<svg width="180" height="200" viewBox="0 0 180 200" fill="none" xmlns="http://www.w3.org/2000/svg">
<path d="M178.386 59.3339H177.536V36.0032C177.536 32.4219 176.113 28.9873 173.581 26.455C171.049 23.9227 167.614 22.5001 164.033 22.5001H114.603C112.83 22.5 111.074 22.8493 109.435 23.5278C107.797 24.2064 106.309 25.201 105.055 26.4549C103.801 27.7087 102.806 29.1973 102.128 30.8355C101.449 32.4738 101.1 34.2297 101.1 36.0029V163.997C101.1 167.578 102.522 171.013 105.055 173.545C107.587 176.077 111.021 177.5 114.603 177.5H164.032C167.613 177.5 171.048 176.077 173.58 173.545C176.113 171.013 177.535 167.578 177.535 163.997V75.941H178.386L178.386 59.3339Z" fill="#3F3D56"/>
<path d="M174.784 35.0984V164.9C174.783 167.616 173.705 170.219 171.785 172.14C169.865 174.06 167.261 175.139 164.546 175.14H114.102C111.385 175.14 108.78 174.062 106.859 172.142C104.938 170.221 103.858 167.617 103.857 164.9V35.0984C103.858 32.3822 104.938 29.7776 106.859 27.8573C108.78 25.9371 111.385 24.8585 114.101 24.8589H120.221C119.92 25.5978 119.806 26.3992 119.888 27.1926C119.969 27.986 120.245 28.7472 120.69 29.4093C121.134 30.0713 121.735 30.614 122.439 30.9895C123.143 31.365 123.928 31.562 124.725 31.563H153.485C154.282 31.562 155.067 31.365 155.771 30.9895C156.475 30.614 157.076 30.0713 157.52 29.4093C157.965 28.7472 158.241 27.986 158.323 27.1926C158.404 26.3992 158.29 25.5978 157.989 24.8589H164.544C167.259 24.8593 169.863 25.938 171.783 27.8578C173.704 29.7776 174.783 32.3813 174.784 35.0965V35.0984Z" fill="#21222D"/>
<path d="M139.861 87.0273C134.118 87.0295 128.609 84.7501 124.547 80.6907C120.484 76.6313 118.2 71.1243 118.197 65.381V65.3618C118.197 65.3164 118.197 65.2686 118.2 65.2233C118.265 53.3592 127.984 43.6978 139.861 43.6978C145.607 43.6974 151.118 45.9796 155.181 50.0423C159.244 54.1049 161.527 59.6152 161.527 65.361C161.527 71.1068 159.245 76.6173 155.182 80.6804C151.12 84.7435 145.61 87.0263 139.864 87.0267H139.861V87.0273ZM139.861 44.1536C134.262 44.1661 128.894 46.3876 124.924 50.3356C120.953 54.2835 118.701 59.6388 118.656 65.2379C118.654 65.2863 118.654 65.3251 118.654 65.362C118.653 69.5571 119.897 73.6582 122.227 77.1467C124.557 80.6351 127.87 83.3542 131.745 84.96C135.621 86.5659 139.885 86.9865 144 86.1686C148.115 85.3507 151.894 83.331 154.861 80.3649C157.828 77.3989 159.848 73.6197 160.667 69.5052C161.486 65.3908 161.067 61.1259 159.462 57.2499C157.857 53.3739 155.139 50.0609 151.651 47.7297C148.163 45.3986 144.062 44.1541 139.867 44.1536H139.861Z" fill="#E6E6E6"/>
<path d="M162.261 109.805H117.436C117.215 109.805 117.004 109.717 116.849 109.562C116.693 109.406 116.606 109.195 116.605 108.975V97.8558C116.606 97.6358 116.693 97.4248 116.849 97.2692C117.005 97.1136 117.215 97.026 117.436 97.0258H162.261C162.481 97.026 162.692 97.1136 162.848 97.2692C163.003 97.4248 163.091 97.6358 163.091 97.8558V108.975C163.091 109.195 163.003 109.406 162.848 109.562C162.692 109.717 162.481 109.805 162.261 109.805V109.805ZM117.436 97.3577C117.303 97.3578 117.177 97.4103 117.083 97.5037C116.99 97.5971 116.938 97.7237 116.937 97.8558V108.975C116.938 109.107 116.99 109.234 117.083 109.327C117.177 109.421 117.303 109.473 117.436 109.473H162.261C162.393 109.473 162.52 109.421 162.613 109.327C162.707 109.234 162.759 109.107 162.759 108.975V97.8558C162.759 97.7237 162.707 97.5971 162.613 97.5037C162.52 97.4103 162.393 97.3578 162.261 97.3577H117.436Z" fill="#E6E6E6"/>
<path d="M131.3 101.092C131.146 101.092 130.998 101.153 130.889 101.262C130.78 101.371 130.719 101.519 130.719 101.673C130.719 101.827 130.78 101.975 130.889 102.084C130.998 102.193 131.146 102.254 131.3 102.254H158.693C158.769 102.257 158.845 102.245 158.917 102.218C158.988 102.192 159.054 102.151 159.11 102.099C159.166 102.048 159.211 101.985 159.243 101.916C159.275 101.846 159.293 101.772 159.296 101.695C159.299 101.619 159.287 101.543 159.26 101.471C159.234 101.4 159.193 101.334 159.142 101.278C159.09 101.222 159.027 101.177 158.958 101.145C158.889 101.113 158.814 101.095 158.737 101.092C158.729 101.092 158.72 101.092 158.712 101.092H131.3V101.092Z" fill="#E6E6E6"/>
<path d="M131.3 104.578C131.146 104.578 130.998 104.639 130.889 104.748C130.78 104.857 130.719 105.004 130.719 105.159C130.719 105.313 130.78 105.461 130.889 105.57C130.998 105.678 131.146 105.74 131.3 105.74H158.693C158.769 105.743 158.845 105.731 158.917 105.704C158.988 105.678 159.054 105.637 159.11 105.585C159.166 105.533 159.211 105.471 159.243 105.402C159.275 105.332 159.293 105.257 159.296 105.181C159.299 105.105 159.287 105.029 159.26 104.957C159.234 104.886 159.193 104.82 159.142 104.764C159.09 104.708 159.027 104.663 158.958 104.631C158.889 104.599 158.814 104.581 158.737 104.578C158.729 104.578 158.72 104.578 158.712 104.578L131.3 104.578Z" fill="#E6E6E6"/>
<path d="M162.261 128.399H117.436C117.215 128.399 117.004 128.312 116.849 128.156C116.693 128 116.606 127.789 116.605 127.569V116.45C116.606 116.23 116.693 116.019 116.849 115.864C117.005 115.708 117.215 115.621 117.436 115.62H162.261C162.481 115.621 162.692 115.708 162.848 115.864C163.003 116.019 163.091 116.23 163.091 116.45V127.57C163.091 127.79 163.003 128.001 162.848 128.156C162.692 128.312 162.481 128.399 162.261 128.399ZM117.436 115.952C117.303 115.952 117.177 116.005 117.083 116.098C116.99 116.192 116.938 116.318 116.937 116.45V127.57C116.938 127.702 116.99 127.828 117.083 127.922C117.177 128.015 117.303 128.068 117.436 128.068H162.261C162.393 128.068 162.52 128.015 162.613 127.922C162.707 127.828 162.759 127.702 162.759 127.57V116.45C162.759 116.318 162.707 116.192 162.613 116.098C162.52 116.005 162.393 115.952 162.261 115.952H117.436Z" fill="#E6E6E6"/>
<path d="M131.3 119.685C131.146 119.685 130.998 119.746 130.889 119.855C130.78 119.964 130.719 120.112 130.719 120.266C130.719 120.42 130.78 120.568 130.889 120.677C130.998 120.786 131.146 120.847 131.3 120.847H158.693C158.845 120.846 158.99 120.786 159.098 120.679C159.206 120.572 159.268 120.427 159.271 120.275C159.273 120.124 159.216 119.977 159.112 119.866C159.007 119.756 158.864 119.691 158.712 119.685L131.3 119.685Z" fill="#E6E6E6"/>
<path d="M131.3 123.172C131.146 123.172 130.998 123.233 130.889 123.342C130.78 123.451 130.719 123.599 130.719 123.753C130.719 123.907 130.78 124.055 130.889 124.164C130.998 124.273 131.146 124.334 131.3 124.334H158.693C158.845 124.333 158.99 124.273 159.098 124.166C159.206 124.059 159.268 123.915 159.271 123.763C159.273 123.611 159.216 123.464 159.112 123.354C159.007 123.243 158.864 123.178 158.712 123.172L131.3 123.172Z" fill="#E6E6E6"/>
<path d="M162.261 146.994H117.436C117.215 146.993 117.004 146.906 116.849 146.75C116.693 146.595 116.606 146.384 116.605 146.164V135.045C116.606 134.824 116.693 134.614 116.849 134.458C117.005 134.302 117.215 134.215 117.436 134.214H162.261C162.481 134.215 162.692 134.302 162.848 134.458C163.003 134.614 163.091 134.824 163.091 135.045V146.164C163.091 146.384 163.003 146.595 162.848 146.751C162.692 146.906 162.481 146.994 162.261 146.994V146.994ZM117.436 134.546C117.303 134.547 117.177 134.599 117.083 134.692C116.99 134.786 116.938 134.912 116.937 135.045V146.164C116.938 146.296 116.99 146.423 117.083 146.516C117.177 146.609 117.303 146.662 117.436 146.662H162.261C162.393 146.662 162.52 146.609 162.613 146.516C162.707 146.423 162.759 146.296 162.759 146.164V135.045C162.759 134.912 162.707 134.786 162.613 134.692C162.52 134.599 162.393 134.547 162.261 134.546H117.436Z" fill="#E6E6E6"/>
<path d="M131.3 138.279C131.146 138.279 130.998 138.34 130.889 138.449C130.78 138.558 130.719 138.706 130.719 138.86C130.719 139.014 130.78 139.162 130.889 139.271C130.998 139.38 131.146 139.441 131.3 139.441H158.693C158.769 139.444 158.845 139.432 158.917 139.406C158.988 139.379 159.054 139.339 159.11 139.287C159.166 139.235 159.211 139.173 159.243 139.103C159.275 139.034 159.293 138.959 159.296 138.883C159.299 138.807 159.287 138.731 159.26 138.659C159.234 138.587 159.193 138.522 159.142 138.466C159.09 138.41 159.027 138.364 158.958 138.333C158.889 138.301 158.814 138.283 158.737 138.28C158.729 138.28 158.72 138.279 158.712 138.279L131.3 138.279Z" fill="#E6E6E6"/>
<path d="M131.3 141.766C131.146 141.766 130.998 141.827 130.889 141.936C130.78 142.045 130.719 142.193 130.719 142.347C130.719 142.501 130.78 142.649 130.889 142.758C130.998 142.867 131.146 142.928 131.3 142.928H158.693C158.769 142.931 158.845 142.919 158.917 142.892C158.988 142.866 159.054 142.825 159.11 142.774C159.166 142.722 159.211 142.659 159.243 142.59C159.275 142.521 159.293 142.446 159.296 142.369C159.299 142.293 159.287 142.217 159.26 142.145C159.234 142.074 159.193 142.008 159.142 141.952C159.09 141.896 159.027 141.851 158.958 141.819C158.889 141.787 158.814 141.769 158.737 141.766C158.729 141.766 158.72 141.766 158.712 141.766L131.3 141.766Z" fill="#E6E6E6"/>
<path d="M146.705 64.8363H140.387V58.518H139.334V64.8363H133.016V65.8892H139.334V72.2075H140.387V65.8892H146.705V64.8363Z" fill="#5534A5"/>
<path d="M49.685 144.289C49.685 144.289 44.5189 149.947 43.7809 162.986C43.0429 176.024 42.7969 177.5 42.7969 177.5H61.2472L64.6896 168.645L68.6265 177.499H86.0926C86.0926 177.499 88.0607 150.439 86.0926 149.701C84.1246 148.963 49.685 144.289 49.685 144.289Z" fill="#2F2E41"/>
<path d="M74.4028 77.7451C79.2938 77.7451 83.2588 73.7801 83.2588 68.8891C83.2588 63.998 79.2938 60.0331 74.4028 60.0331C69.5118 60.0331 65.5469 63.998 65.5469 68.8891C65.5469 73.7801 69.5118 77.7451 74.4028 77.7451Z" fill="#FFB8B8"/>
<path d="M112.659 144.536L99.1289 119.936L91.2559 107.144L100.605 102.961L105.771 113.047C105.771 113.047 112.659 123.134 114.381 131.498C116.103 139.862 117.825 143.798 117.825 143.798L112.659 144.536Z" fill="#FFB8B8"/>
<path d="M38.1193 137.401L58.2914 119.689L57.3084 105.421H51.6504L49.9275 112.801L33.6914 134.203L38.1193 137.401Z" fill="#FFB8B8"/>
<path d="M64.195 82.0509C64.195 82.0509 71.501 85.1138 76.9498 81.3683C76.9498 81.3683 90.2711 83.5274 91.0091 84.265C91.7471 85.0026 90.2711 107.143 90.2711 107.143L87.3195 119.689C87.3195 119.689 91.5016 138.878 85.3515 143.798L86.5815 150.44C86.5815 150.44 59.2754 152.408 48.4512 145.766L50.4188 139.123L55.5849 118.213L52.3868 89.1851C52.3868 89.1851 54.846 82.5429 64.195 82.0509Z" fill="#E4E4E4"/>
<path d="M84.7354 85.3716L91.1315 84.3884C91.1315 84.3884 94.3295 84.8804 97.2816 91.0306C100.234 97.1807 103.432 105.299 103.432 105.299L92.3617 110.219L83.2598 95.9507L84.7354 85.3716Z" fill="#E4E4E4"/>
<path d="M53.8659 87.9547L52.3899 89.1847C52.3899 89.1847 50.4219 96.3189 50.4219 101.239V107.881L59.278 108.865L53.8659 87.9547Z" fill="#E4E4E4"/>
<path d="M65.5505 71.2929C65.5505 71.2929 64.3466 69.9929 64.4685 68.3655C64.5489 67.4397 64.4897 66.5072 64.293 65.599C64.293 65.599 64.6698 62.9354 65.2262 61.3913C65.7825 59.8473 65.3134 59.3101 67.705 58.4672C70.0966 57.6243 68.5741 54.5762 75.6247 57.006C75.8929 57.2767 76.2352 57.462 76.6086 57.5384C76.9819 57.6148 77.3696 57.5789 77.7225 57.4352C79.0243 56.9584 79.8088 58.7468 79.8088 58.7468C79.8088 58.7468 80.6207 58.0805 81.0763 58.7732C81.5319 59.4658 83.7355 57.8873 84.5439 62.9258C85.3524 67.9644 82.5781 72.4577 82.5781 72.4577C82.5781 72.4577 82.1888 64.3949 77.6098 64.2486C73.0308 64.1022 67.8524 62.368 67.2101 65.7632C66.5679 69.1584 65.5505 71.2929 65.5505 71.2929Z" fill="#2F2E41"/>
<path d="M34.8927 141.169C37.0006 141.169 38.7093 139.461 38.7093 137.353C38.7093 135.245 37.0006 133.536 34.8927 133.536C32.7849 133.536 31.0762 135.245 31.0762 137.353C31.0762 139.461 32.7849 141.169 34.8927 141.169Z" fill="#FFB8B8"/>
<path d="M7.37399 163.129L70.2308 150.582L64.9779 124.267L2.12109 136.814L7.37399 163.129Z" fill="white"/>
<path d="M70.7484 150.926L7.03372 163.645L1.60938 136.471L65.3241 123.753L70.7484 150.926ZM7.72027 162.616L69.7199 150.24L64.6377 124.781L2.63833 137.158L7.72027 162.616Z" fill="#E4E4E4"/>
<path d="M27.8694 154.766L27.8436 154.776C27.6387 154.861 27.4309 154.941 27.2175 155.011C27.1458 155.035 27.0714 155.057 26.9993 155.079C26.9273 155.101 26.8528 155.124 26.7782 155.144C26.6568 155.179 26.5325 155.21 26.4075 155.239C26.354 155.253 26.2977 155.265 26.2437 155.276L26.2113 155.283C26.1444 155.297 26.0774 155.311 26.01 155.324L25.8356 155.354C25.8032 155.361 25.7712 155.365 25.7396 155.37C24.3534 155.587 22.936 155.488 21.5939 155.079C20.2517 154.669 19.0199 153.961 17.9909 153.007C16.9619 152.053 16.1626 150.878 15.6531 149.571C15.1436 148.264 14.9371 146.858 15.0492 145.459C15.1613 144.061 15.589 142.705 16.3003 141.496C17.0115 140.286 17.9877 139.254 19.1555 138.476C20.3232 137.698 21.6521 137.195 23.0423 137.005C24.4325 136.815 25.8477 136.942 27.1815 137.378C25.9743 138.468 25.075 139.857 24.5736 141.404C24.0723 142.952 23.9865 144.604 24.3249 146.195C24.6633 147.787 25.414 149.261 26.5018 150.47C27.5896 151.68 28.9762 152.583 30.5226 153.087C29.7407 153.794 28.8435 154.362 27.87 154.766L27.8694 154.766Z" fill="#5534A5"/>
<path d="M41.1368 150.045C41.5425 150.248 41.9628 150.421 42.3943 150.561C41.1863 151.656 39.71 152.411 38.1155 152.75L37.9988 152.775C36.6068 153.054 35.1692 153.011 33.7967 152.647C32.4242 152.284 31.1533 151.611 30.0819 150.679C29.0105 149.747 28.1671 148.582 27.6166 147.274C27.0662 145.965 26.8233 144.547 26.9066 143.13C26.99 141.712 27.3975 140.333 28.0976 139.098C28.7977 137.863 29.7719 136.805 30.9452 136.005C32.1184 135.205 33.4595 134.686 34.8651 134.486C36.2708 134.286 37.7036 134.411 39.0532 134.852C37.928 135.863 37.0675 137.134 36.547 138.555C36.0265 139.975 35.8619 141.502 36.0674 143.001C36.273 144.5 36.8425 145.925 37.7262 147.153C38.6099 148.381 39.7809 149.374 41.1368 150.045Z" fill="#5534A5"/>
<path d="M57.1331 139.217C57.515 141.013 57.3558 142.881 56.6758 144.586C55.9958 146.292 54.8254 147.757 53.3127 148.797C51.8 149.837 50.0129 150.405 48.1774 150.429C46.3419 150.453 44.5404 149.932 43.0007 148.933C41.4611 147.933 40.2524 146.5 39.5276 144.813C38.8028 143.126 38.5943 141.263 38.9287 139.458C39.263 137.653 40.125 135.988 41.4058 134.672C42.6866 133.357 44.3285 132.452 46.124 132.07C47.3162 131.816 48.5467 131.8 49.7451 132.022C50.9436 132.244 52.0866 132.7 53.1089 133.364C54.1312 134.027 55.0127 134.886 55.7032 135.89C56.3937 136.895 56.8796 138.025 57.1331 139.217Z" fill="#5534A5"/>
<path d="M53.2462 147.5C53.3339 147.911 53.3798 148.329 53.3831 148.749C52.361 149.465 51.2055 149.967 49.9853 150.227C48.7651 150.486 47.5052 150.497 46.2805 150.26C46.1125 149.875 45.9841 149.474 45.897 149.063C45.4428 146.927 46.1468 144.891 47.5159 143.97C46.8643 143.845 46.2759 143.5 45.8505 142.991C45.425 142.482 45.1888 141.841 45.1818 141.178C45.1748 140.515 45.3976 139.87 45.8123 139.352C46.227 138.834 46.808 138.476 47.4568 138.338C48.1056 138.2 48.7821 138.291 49.3715 138.595C49.961 138.899 50.4271 139.398 50.6906 140.006C50.9542 140.615 50.999 141.296 50.8174 141.934C50.6359 142.572 50.2392 143.128 49.6946 143.506C51.3208 143.791 52.792 145.364 53.2462 147.5Z" fill="white"/>
<path d="M41.1365 150.046L41.1425 150.074C41.2205 150.59 41.2559 151.111 41.2482 151.633C40.2868 152.307 39.2122 152.502 37.9986 152.776L37.8819 152.801C36.6618 153.062 35.4016 153.073 34.1771 152.834C34.1604 152.799 34.146 152.763 34.1337 152.726C33.9858 152.375 33.872 152.01 33.7938 151.637C33.3396 149.501 34.0435 147.465 35.4127 146.544C34.7611 146.42 34.1726 146.074 33.7471 145.565C33.3215 145.056 33.0852 144.416 33.0783 143.752C33.0713 143.089 33.2941 142.444 33.7089 141.926C34.1236 141.409 34.7048 141.051 35.3536 140.913C35.5734 140.865 35.7982 140.845 36.023 140.852C35.8434 142.722 36.2362 144.603 37.1494 146.245C38.0627 147.886 39.4532 149.212 41.1368 150.046L41.1365 150.046Z" fill="white"/>
<path d="M29.4932 152.682C29.5669 153.052 29.6053 153.428 29.6079 153.806C28.8733 154.321 28.0676 154.727 27.2162 155.01C27.1444 155.034 27.0701 155.057 26.998 155.079C26.926 155.101 26.8515 155.124 26.7769 155.144C26.6555 155.179 26.5312 155.21 26.4062 155.239C26.3807 155.246 26.3527 155.252 26.3267 155.258L26.21 155.282C26.143 155.297 26.0761 155.311 26.0086 155.323L25.8343 155.353C25.8019 155.36 25.7699 155.365 25.7383 155.369C24.6659 155.543 23.5713 155.525 22.5052 155.316C22.5024 155.312 22.5006 155.307 22.4998 155.301C22.485 155.271 22.4723 155.24 22.4619 155.208C22.3139 154.856 22.2001 154.492 22.1219 154.119C21.6678 151.983 22.3717 149.947 23.7408 149.026C23.0892 148.902 22.5007 148.556 22.0752 148.047C21.6497 147.538 21.4134 146.898 21.4064 146.234C21.3994 145.571 21.6223 144.926 22.037 144.408C22.4518 143.891 23.0329 143.532 23.6817 143.395C23.8374 143.361 23.9957 143.341 24.1547 143.335C23.9613 145.254 24.3716 147.187 25.3286 148.862C26.2855 150.538 27.7414 151.873 29.4933 152.682L29.4932 152.682Z" fill="white"/>
<path d="M125.128 105.083C125.129 105.293 125.107 105.503 125.065 105.709C124.491 105.952 123.874 106.078 123.25 106.078C122.626 106.078 122.008 105.952 121.434 105.709C121.392 105.503 121.371 105.293 121.371 105.083C121.371 103.992 121.927 103.069 122.693 102.76C122.387 102.632 122.135 102.401 121.98 102.108C121.825 101.815 121.776 101.477 121.841 101.152C121.907 100.827 122.083 100.535 122.34 100.325C122.596 100.114 122.918 99.9997 123.25 99.9997C123.581 99.9997 123.903 100.114 124.159 100.325C124.416 100.535 124.592 100.827 124.658 101.152C124.723 101.477 124.674 101.815 124.519 102.108C124.364 102.401 124.112 102.632 123.807 102.76C124.572 103.069 125.128 103.992 125.128 105.083Z" fill="#5534A5"/>
<path d="M125.128 124.055C125.129 124.265 125.107 124.474 125.065 124.68C124.491 124.924 123.874 125.049 123.25 125.049C122.626 125.049 122.008 124.924 121.434 124.68C121.392 124.474 121.371 124.265 121.371 124.055C121.371 122.963 121.927 122.04 122.693 121.732C122.387 121.603 122.135 121.373 121.98 121.08C121.825 120.787 121.776 120.449 121.841 120.124C121.907 119.798 122.083 119.506 122.34 119.296C122.596 119.086 122.918 118.971 123.25 118.971C123.581 118.971 123.903 119.086 124.159 119.296C124.416 119.506 124.592 119.798 124.658 120.124C124.723 120.449 124.674 120.787 124.519 121.08C124.364 121.373 124.112 121.603 123.807 121.732C124.572 122.04 125.128 122.963 125.128 124.055Z" fill="#5534A5"/>
<path d="M125.128 142.648C125.129 142.859 125.107 143.068 125.065 143.274C124.491 143.517 123.874 143.643 123.25 143.643C122.626 143.643 122.008 143.517 121.434 143.274C121.392 143.068 121.371 142.859 121.371 142.648C121.371 141.557 121.927 140.634 122.693 140.326C122.387 140.197 122.135 139.967 121.98 139.673C121.825 139.38 121.776 139.042 121.841 138.717C121.907 138.392 122.083 138.1 122.34 137.89C122.596 137.68 122.918 137.565 123.25 137.565C123.581 137.565 123.903 137.68 124.159 137.89C124.416 138.1 124.592 138.392 124.658 138.717C124.723 139.042 124.674 139.38 124.519 139.673C124.364 139.967 124.112 140.197 123.807 140.326C124.572 140.634 125.128 141.557 125.128 142.648Z" fill="#5534A5"/>
<path d="M115.476 149.021C117.403 149.021 118.965 147.458 118.965 145.531C118.965 143.604 117.403 142.042 115.476 142.042C113.549 142.042 111.986 143.604 111.986 145.531C111.986 147.458 113.549 149.021 115.476 149.021Z" fill="#FFB8B8"/>
</svg>
