<svg width="180" height="200" viewBox="0 0 180 200" fill="none" xmlns="http://www.w3.org/2000/svg">
<g clip-path="url(#clip0_984_9023)">
<path d="M177.822 35.7523H2.23547C1.97471 35.752 1.72472 35.6483 1.54033 35.4639C1.35595 35.2795 1.25224 35.0295 1.25195 34.7687V28.9833C1.25224 28.7226 1.35595 28.4726 1.54033 28.2882C1.72472 28.1038 1.97471 28.0001 2.23547 27.9998H177.822C178.083 28.0001 178.333 28.1038 178.517 28.2882C178.702 28.4726 178.805 28.7226 178.806 28.9833V34.7687C178.805 35.0295 178.702 35.2795 178.517 35.4639C178.333 35.6483 178.083 35.752 177.822 35.7523Z" fill="#21222D"/>
<path d="M6.9276 32.99C7.69879 32.99 8.32396 32.3648 8.32396 31.5936C8.32396 30.8224 7.69879 30.1973 6.9276 30.1973C6.15642 30.1973 5.53125 30.8224 5.53125 31.5936C5.53125 32.3648 6.15642 32.99 6.9276 32.99Z" fill="white"/>
<path d="M12.2264 32.9898C12.9976 32.9898 13.6228 32.3646 13.6228 31.5935C13.6228 30.8223 12.9976 30.1971 12.2264 30.1971C11.4552 30.1971 10.8301 30.8223 10.8301 31.5935C10.8301 32.3646 11.4552 32.9898 12.2264 32.9898Z" fill="white"/>
<path d="M17.535 32.9901C18.3062 32.9901 18.9314 32.3649 18.9314 31.5937C18.9314 30.8225 18.3062 30.1973 17.535 30.1973C16.7638 30.1973 16.1387 30.8225 16.1387 31.5937C16.1387 32.3649 16.7638 32.9901 17.535 32.9901Z" fill="white"/>
<path d="M176.463 171.999H98.3669C97.7347 171.999 97.1286 171.747 96.6816 171.3C96.2346 170.853 95.9831 170.247 95.9824 169.615V114.41C95.9831 113.778 96.2346 113.172 96.6816 112.725C97.1286 112.278 97.7347 112.026 98.3669 112.025H176.463C177.095 112.026 177.701 112.278 178.148 112.725C178.595 113.172 178.847 113.778 178.847 114.41V169.615C178.847 170.247 178.595 170.853 178.148 171.3C177.701 171.747 177.095 171.999 176.463 171.999Z" fill="#21222D"/>
<path d="M173.217 115.277H101.626C100.993 115.277 100.387 115.529 99.9398 115.976C99.4926 116.423 99.241 117.03 99.2402 117.662V166.363C99.2411 166.995 99.4926 167.602 99.9398 168.049C100.387 168.496 100.993 168.748 101.626 168.748H173.217C173.849 168.748 174.456 168.496 174.902 168.049C175.349 167.601 175.601 166.995 175.601 166.363V117.662C175.601 117.03 175.349 116.424 174.902 115.976C174.456 115.529 173.849 115.278 173.217 115.277Z" fill="#21222D"/>
<path d="M143.944 138.427C145.132 133.252 141.9 128.094 136.725 126.906C131.55 125.718 126.392 128.95 125.204 134.125C124.016 139.3 127.248 144.458 132.423 145.646C137.598 146.834 142.756 143.602 143.944 138.427Z" fill="#9E616A"/>
<path d="M162.222 159.696C161.869 158.025 161.068 156.482 159.907 155.23C158.745 153.978 157.266 153.065 155.627 152.588L155.62 152.584C155.307 152.43 154.975 152.316 154.634 152.246L143.08 149.882L140.766 147.398L130.916 148.027L129.888 150.884L118.574 155.912L118.761 155.781C118.277 155.975 117.805 156.201 117.35 156.457L117.293 156.482C116.967 156.629 116.664 156.822 116.393 157.056C113.516 159.053 111.615 162.258 111.545 165.832L111.246 168.749H164.144L162.222 159.696Z" fill="#5534A5"/>
<path d="M145.094 131.125C144.307 128.666 142.005 126.59 139.424 126.656C139.625 126.043 139.282 125.356 138.768 124.965C138.254 124.575 137.604 124.419 136.972 124.287C135.666 124.015 134.305 123.807 133.007 124.114C131.709 124.42 130.478 125.352 130.186 126.654C129.003 125.545 126.817 125.852 125.985 127.243C125.556 127.959 125.496 128.92 125.959 129.614C126.418 130.304 127.289 130.614 128.117 130.653C128.945 130.692 129.765 130.507 130.589 130.42C132.558 130.213 134.637 130.61 136.229 131.787C137.82 132.964 138.837 134.983 138.554 136.942C139.19 136.535 140.107 136.818 140.551 137.428C140.996 138.039 141.031 138.873 140.824 139.599C140.618 140.325 140.199 140.97 139.786 141.602C139.025 142.765 138.264 143.929 137.504 145.093L137.815 145.3C138.963 145.784 140.204 144.879 141.04 143.956C142.448 142.397 143.583 140.612 144.396 138.674C145.394 136.294 145.882 133.583 145.094 131.125Z" fill="#2F2E41"/>
<path d="M103.61 129.251H4.1766C3.37169 129.25 2.60001 128.93 2.03085 128.36C1.46169 127.791 1.14154 127.02 1.14062 126.215V55.9256C1.14153 55.1207 1.46168 54.349 2.03084 53.7798C2.6 53.2107 3.37169 52.8905 4.1766 52.8896H103.61C104.414 52.8905 105.186 53.2107 105.755 53.7798C106.324 54.349 106.645 55.1207 106.646 55.9256V126.215C106.645 127.02 106.324 127.791 105.755 128.36C105.186 128.93 104.414 129.25 103.61 129.251Z" fill="#21222D"/>
<path d="M87.0428 35.6495H-4.10915C-4.91438 35.6506 -5.68634 35.9709 -6.25572 36.5403C-6.82511 37.1097 -7.14545 37.8817 -7.14648 38.6869V100.694C-7.14545 101.5 -6.82512 102.272 -6.25573 102.841C-5.68635 103.41 -4.91439 103.731 -4.10915 103.732H87.0428C87.8477 103.731 88.6194 103.41 89.1884 102.841C89.7574 102.271 90.0773 101.499 90.0778 100.694V38.6869C90.0773 37.8819 89.7574 37.11 89.1884 36.5405C88.6194 35.9711 87.8477 35.6507 87.0428 35.6495Z" fill="#21222D"/>
<path d="M67.0268 86.1293L66.8587 86.4323C68.3551 82.7444 66.9944 78.1999 64.3249 75.419C61.6555 72.6382 57.9444 71.3669 54.2903 70.8625C51.5776 70.4881 48.7619 70.4989 46.1825 71.4926C42.4473 72.9315 39.5935 76.2625 37.2109 79.7277C36.121 81.3127 35.0494 83.1196 35.158 85.1006C35.2588 86.9389 36.35 88.499 37.2436 90.0587C38.1373 91.6184 38.8836 93.5534 38.2422 95.2558C37.86 96.2702 37.0523 97.0008 36.3969 97.8306C35.7415 98.6605 35.2023 99.7821 35.5189 100.823C35.775 101.666 36.5455 102.22 37.338 102.404C38.1303 102.589 38.9523 102.468 39.7547 102.347L60.5834 99.2C61.9988 98.9862 63.3414 98.4332 64.4969 97.5883C65.6523 96.7434 66.5863 95.6316 67.2192 94.3477C67.8521 93.0638 68.1652 91.6459 68.1317 90.2149C68.0982 88.7839 67.7191 87.3822 67.0268 86.1293Z" fill="#2F2E41"/>
<path d="M51.5273 99.0544C57.1516 99.0544 61.7109 94.495 61.7109 88.8707C61.7109 83.2465 57.1516 78.6871 51.5273 78.6871C45.9031 78.6871 41.3438 83.2465 41.3438 88.8707C41.3438 94.495 45.9031 99.0544 51.5273 99.0544Z" fill="#FFB9B9"/>
<path d="M76.93 111.924C76.271 110.48 75.2315 109.242 73.9229 108.344C72.6144 107.445 71.086 106.919 69.5016 106.823L66.6635 106.651L66.6703 106.681L59.4555 102.341C59.633 102.544 47.72 102.969 47.72 102.969L43.2998 106.783L41.4461 106.895C39.8617 106.992 38.3333 107.517 37.0248 108.416C35.7162 109.314 34.6768 110.552 34.0178 111.996L27.998 125.183H39.9961L40.2745 123.986C40.5773 124.354 40.8709 124.73 41.1553 125.111H82.9496L76.93 111.924Z" fill="#5534A5"/>
<path d="M61.1793 79.4191C60.9164 78.0285 59.4981 77.3924 58.2829 77.0842C54.758 76.1849 51.0914 75.9835 47.4893 76.4915C44.8634 76.866 42.1752 77.6917 40.2699 79.7414C38.7839 81.34 37.8848 83.6301 37.8148 85.9945C37.7741 87.3726 38.0205 88.8066 38.7061 89.9671C39.3918 91.1276 40.5604 91.9694 41.7668 91.9399L41.889 92.3648C47.0018 91.6524 51.7511 88.4711 54.7423 83.7552C54.1809 85.7598 53.0637 87.5647 51.5199 88.9611C54.9717 87.5799 57.9722 85.2673 60.1871 82.2812C60.792 81.4783 61.3792 80.4772 61.1793 79.4191Z" fill="#2F2E41"/>
<path d="M172.604 30.6326H166.5C166.441 30.6328 166.382 30.6212 166.327 30.5986C166.272 30.5759 166.222 30.5427 166.18 30.5007C166.138 30.4587 166.104 30.4088 166.081 30.3538C166.059 30.2989 166.047 30.24 166.047 30.1805C166.047 30.121 166.059 30.0621 166.081 30.0072C166.104 29.9522 166.138 29.9023 166.18 29.8603C166.222 29.8183 166.272 29.785 166.327 29.7624C166.382 29.7398 166.441 29.7282 166.5 29.7284H172.604C172.723 29.7288 172.838 29.7766 172.923 29.8613C173.007 29.9461 173.054 30.0608 173.054 30.1805C173.054 30.3002 173.007 30.4149 172.923 30.4997C172.838 30.5844 172.723 30.6322 172.604 30.6326Z" fill="white"/>
<path d="M172.604 32.3279H166.5C166.441 32.3281 166.382 32.3165 166.327 32.2939C166.272 32.2713 166.222 32.238 166.18 32.196C166.138 32.154 166.104 32.1041 166.081 32.0491C166.059 31.9942 166.047 31.9353 166.047 31.8758C166.047 31.8163 166.059 31.7574 166.081 31.7025C166.104 31.6475 166.138 31.5976 166.18 31.5556C166.222 31.5136 166.272 31.4804 166.327 31.4577C166.382 31.4351 166.441 31.4235 166.5 31.4237H172.604C172.723 31.4241 172.838 31.4719 172.923 31.5566C173.007 31.6414 173.054 31.7561 173.054 31.8758C173.054 31.9955 173.007 32.1102 172.923 32.195C172.838 32.2797 172.723 32.3275 172.604 32.3279Z" fill="white"/>
<path d="M172.604 34.0236H166.5C166.441 34.0238 166.382 34.0122 166.327 33.9896C166.272 33.9669 166.222 33.9337 166.18 33.8917C166.138 33.8497 166.104 33.7998 166.081 33.7448C166.059 33.6899 166.047 33.631 166.047 33.5715C166.047 33.512 166.059 33.4531 166.081 33.3982C166.104 33.3432 166.138 33.2933 166.18 33.2513C166.222 33.2093 166.272 33.176 166.327 33.1534C166.382 33.1308 166.441 33.1192 166.5 33.1194H172.604C172.723 33.1198 172.838 33.1676 172.923 33.2523C173.007 33.337 173.054 33.4518 173.054 33.5715C173.054 33.6911 173.007 33.8059 172.923 33.8907C172.838 33.9754 172.723 34.0232 172.604 34.0236Z" fill="white"/>
</g>
<defs>
<clipPath id="clip0_984_9023">
<rect width="177.697" height="144" fill="white" transform="translate(1.15234 28)"/>
</clipPath>
</defs>
</svg>
