<svg width="180" height="200" viewBox="0 0 180 200" fill="none" xmlns="http://www.w3.org/2000/svg">
<path d="M71.412 162.871C68.129 159.496 63.3716 157.561 58.3595 157.561L58.1661 157.561C54.8648 157.562 51.6224 156.689 48.7705 155.032L48.4737 154.859L48.7127 154.614C50.0067 153.279 51.0872 151.755 51.9164 150.093C51.3275 150.64 50.6252 151.052 49.859 151.298C49.0929 151.545 48.2818 151.621 47.483 151.52C46.6397 151.42 45.8301 151.131 45.1149 150.674C44.3997 150.218 43.7976 149.606 43.3536 148.884C41.6018 146.051 39.5137 142.031 39.5137 138.968C39.5164 136.379 40.0602 133.82 41.1103 131.452C42.1604 129.085 43.6938 126.961 45.6129 125.217C46.8278 124.125 47.7982 122.79 48.4608 121.299C49.1234 119.808 49.4634 118.195 49.4586 116.564L49.4576 116.332C49.4573 114.186 49.7205 112.047 50.2413 109.964L50.2942 109.753L50.5113 109.761C51.9114 109.808 53.3123 109.691 54.685 109.412C53.3974 109.255 52.1378 108.921 50.9419 108.42L50.7083 108.326L50.7876 108.087C56.2519 104.715 68.5865 106.461 75.7459 90.1334C81.5511 76.8938 102.034 101.886 102.034 116.332C102.034 117.806 100.571 119.754 101.666 120.729C113.509 131.261 105.338 138.024 102.761 144.829C102.15 146.444 103.475 148.216 103.475 149.963C103.475 150.259 103.468 150.565 103.453 150.872L103.43 151.344L103.035 151.082C102.254 150.572 101.53 149.98 100.875 149.316C101.554 150.874 101.875 152.564 101.812 154.262C101.749 155.959 101.306 157.621 100.514 159.126C99.2726 161.461 98.0718 163.132 96.9449 164.094C93.3348 167.173 88.681 168.762 83.9349 168.534C79.1889 168.307 74.7093 166.281 71.412 162.871Z" fill="#E6E6E6"/>
<path d="M91.2418 198C91.3225 198 91.4005 197.971 91.4614 197.918C91.5224 197.865 91.5621 197.792 91.5735 197.713C91.5878 197.613 92.9837 187.577 91.73 174.24C90.5722 161.922 86.854 144.181 75.7158 129.61C75.6891 129.575 75.6558 129.546 75.6177 129.524C75.5796 129.501 75.5375 129.487 75.4938 129.481C75.4501 129.475 75.4057 129.478 75.3631 129.489C75.3205 129.5 75.2805 129.52 75.2454 129.546C75.2103 129.573 75.1809 129.606 75.1587 129.644C75.1366 129.682 75.1222 129.724 75.1163 129.768C75.1104 129.811 75.1132 129.856 75.1245 129.898C75.1358 129.941 75.1554 129.98 75.1822 130.015C86.2242 144.46 89.9124 162.072 91.062 174.302C92.3084 187.562 90.9235 197.519 90.9093 197.618C90.9026 197.666 90.9061 197.714 90.9198 197.76C90.9334 197.806 90.9568 197.849 90.9883 197.885C91.0198 197.921 91.0588 197.95 91.1025 197.97C91.1463 197.99 91.1938 198 91.2418 198Z" fill="#3F3D56"/>
<path d="M82.1516 150.163C82.2225 150.163 82.2915 150.141 82.3489 150.099C82.4063 150.058 82.4489 149.999 82.4709 149.932C82.4928 149.865 82.4928 149.793 82.471 149.725C82.4491 149.658 82.4064 149.6 82.3491 149.558C79.1754 147.417 75.7469 145.677 72.1425 144.379C66.5114 142.324 57.9483 140.461 49.1329 143.258C49.0908 143.271 49.0518 143.292 49.018 143.321C48.9842 143.349 48.9564 143.383 48.9361 143.423C48.9158 143.462 48.9034 143.504 48.8997 143.548C48.8959 143.592 48.9009 143.636 48.9142 143.678C48.9276 143.72 48.9491 143.759 48.9776 143.792C49.0061 143.826 49.0409 143.853 49.0801 143.874C49.1193 143.894 49.1621 143.906 49.2061 143.91C49.25 143.913 49.2943 143.908 49.3363 143.895C57.9712 141.156 66.379 142.988 71.9118 145.007C75.4583 146.283 78.8318 147.993 81.9547 150.099C82.0119 150.141 82.0809 150.163 82.1516 150.163Z" fill="#3F3D56"/>
<path d="M97.5026 112.047C97.5078 111.977 97.4904 111.906 97.4531 111.846C97.4157 111.786 97.3602 111.74 97.2946 111.713C97.229 111.687 97.1566 111.681 97.0878 111.698C97.019 111.715 96.9573 111.753 96.9116 111.807C94.5404 114.808 92.5527 118.092 90.9943 121.582C88.5325 127.033 86.0517 135.412 88.2153 144.378C88.2255 144.421 88.2441 144.461 88.27 144.496C88.2959 144.532 88.3286 144.562 88.3661 144.585C88.4037 144.608 88.4455 144.623 88.489 144.63C88.5326 144.637 88.577 144.635 88.6199 144.625C88.6628 144.615 88.7032 144.596 88.7388 144.57C88.7745 144.545 88.8047 144.512 88.8277 144.474C88.8506 144.437 88.866 144.395 88.8728 144.352C88.8797 144.309 88.8779 144.264 88.8675 144.221C86.7484 135.439 89.1872 127.212 91.6061 121.857C93.1381 118.422 95.0926 115.192 97.4245 112.238C97.4702 112.185 97.4976 112.118 97.5026 112.047Z" fill="#3F3D56"/>
<path d="M162.206 197.646H135.502L135.387 197.438C135.046 196.821 134.716 196.167 134.408 195.495C131.657 189.625 130.495 182.911 129.469 176.988L128.696 172.523C128.603 171.983 128.673 171.427 128.899 170.926C129.124 170.425 129.494 170.003 129.962 169.714C130.43 169.424 130.973 169.28 131.523 169.3C132.073 169.32 132.605 169.504 133.05 169.827C137.108 172.77 141.168 175.711 145.229 178.649C146.767 179.764 148.524 181.055 150.206 182.45C150.368 181.664 150.538 180.876 150.707 180.099C150.824 179.563 151.099 179.073 151.497 178.694C151.895 178.314 152.397 178.061 152.94 177.967C153.483 177.874 154.041 177.944 154.544 178.169C155.046 178.393 155.47 178.762 155.761 179.228L158.886 184.232C161.164 187.886 163.176 191.487 162.766 195.37C162.768 195.418 162.764 195.465 162.755 195.511C162.673 196.149 162.521 196.776 162.302 197.381L162.206 197.646Z" fill="#F0F0F0"/>
<path d="M149.767 92.9985L144.613 73.9844C144.393 73.1795 143.863 72.4933 143.14 72.074C142.416 71.6548 141.556 71.5359 140.745 71.7432C140.325 71.8504 139.932 72.0417 139.589 72.3054C139.246 72.569 138.961 72.8995 138.75 73.2767C138.54 73.6539 138.408 74.0699 138.364 74.4994C138.32 74.9288 138.364 75.3627 138.494 75.7746L144.455 95.362L147.573 107.416C147.119 107.762 146.783 108.239 146.61 108.782C146.437 109.325 146.436 109.907 146.607 110.451C146.778 110.995 147.112 111.473 147.565 111.82C148.018 112.167 148.568 112.367 149.138 112.393C149.709 112.418 150.274 112.268 150.756 111.962C151.239 111.656 151.615 111.21 151.833 110.684C152.052 110.157 152.103 109.577 151.98 109.021C151.856 108.464 151.563 107.96 151.142 107.575L149.767 92.9985Z" fill="#A0616A"/>
<path d="M106.399 88.9034L122.057 76.891C122.719 76.3801 123.153 75.6303 123.265 74.8034C123.378 73.9764 123.159 73.1387 122.657 72.4709C122.397 72.1255 122.07 71.8364 121.694 71.6212C121.319 71.4061 120.903 71.2694 120.473 71.2195C120.043 71.1697 119.607 71.2076 119.192 71.3312C118.777 71.4547 118.392 71.6611 118.06 71.9379L102.178 84.9129L92.1937 92.3915C91.6997 92.1052 91.1291 91.9774 90.5597 92.0256C89.9902 92.0737 89.4495 92.2954 89.0108 92.6606C88.5722 93.0257 88.257 93.5166 88.108 94.0666C87.959 94.6165 87.9834 95.1989 88.178 95.7345C88.3726 96.2701 88.7279 96.733 89.1957 97.0604C89.6634 97.3877 90.2209 97.5636 90.7924 97.5641C91.3638 97.5646 91.9216 97.3897 92.39 97.0632C92.8583 96.7368 93.2144 96.2745 93.41 95.7392L106.399 88.9034Z" fill="#A0616A"/>
<path d="M119.159 91.6649L118.469 107.031L140.141 102.336C138.296 96.1614 137.042 95.1083 138.428 90.8113L119.159 91.6649Z" fill="#A0616A"/>
<path d="M132.487 63.4951H125.266L122.165 68.7848L120.687 68.7035C119.965 68.6637 119.241 68.7713 118.562 69.0196C117.882 69.2679 117.261 69.6518 116.735 70.1477C116.209 70.6436 115.79 71.2412 115.504 71.9039C115.218 72.5666 115.07 73.2806 115.07 74.0021L116.891 76.815C116.891 76.815 113.635 82.4715 118.325 85.2543C118.325 85.2543 117.489 90.4974 118.325 90.4411C119.162 90.3847 121.089 89.3176 119.162 90.3847C117.235 91.4518 117.379 91.5951 117.628 91.8436L117.877 92.0921L138.139 95.4833C138.139 95.4833 138.731 91.568 138.795 90.8697C138.859 90.1713 138.431 91.8786 138.859 90.1713C139.287 88.464 139.93 89.1042 139.287 88.464C138.645 87.8237 143.449 79.8917 141.475 76.815L144.64 73.7382C144.64 70.7869 139.884 68.3944 136.924 68.3944H136.544L132.487 63.4951Z" fill="#E6E6E6"/>
<path d="M115.087 191.722H112.164L110.773 180.484L115.087 180.484L115.087 191.722Z" fill="#A0616A"/>
<path d="M106.266 196.021C106.268 196.347 106.398 196.66 106.63 196.891C106.861 197.122 107.174 197.253 107.502 197.255H113.004L113.174 196.902L113.952 195.302L114.254 196.902L114.321 197.255H116.396L116.366 196.9L115.813 190.285L115.089 190.241L111.961 190.056L111.193 190.009V191.984C110.61 192.603 106.034 194.94 106.266 196.021Z" fill="#2F2E41"/>
<path d="M158.524 184.091L156.066 185.667L148.797 176.966L152.425 174.64L158.524 184.091Z" fill="#A0616A"/>
<path d="M153.44 192.463C153.619 192.737 153.898 192.93 154.218 192.999C154.538 193.069 154.872 193.01 155.149 192.835L159.776 189.867L159.728 189.479L159.514 187.713L160.636 188.897L160.884 189.157L162.629 188.038L162.412 187.756L158.356 182.491L157.723 182.844L154.992 184.376L154.321 184.751L155.393 186.412C155.238 187.246 152.658 191.679 153.44 192.463Z" fill="#2F2E41"/>
<path d="M172.16 197.851L81.6564 197.939C81.5661 197.939 81.4796 197.903 81.4159 197.839C81.3522 197.775 81.3164 197.688 81.3164 197.598C81.3164 197.508 81.3522 197.422 81.4159 197.358C81.4796 197.294 81.5661 197.258 81.6564 197.258L172.16 197.17C172.25 197.17 172.336 197.206 172.4 197.27C172.464 197.334 172.5 197.42 172.5 197.511C172.5 197.601 172.464 197.687 172.4 197.751C172.336 197.815 172.25 197.851 172.16 197.851Z" fill="#CACACA"/>
<path d="M139.804 100.6C139.804 100.6 125.951 107.904 118.624 102.921C118.624 102.921 117.021 110.659 116.379 111.299C115.736 111.939 114.713 112.218 115.439 112.933C116.165 113.647 116.569 114.611 115.189 115.836C113.809 117.061 112.434 116.673 113.764 117.934C115.094 119.196 109.742 150.141 109.742 150.141C109.742 150.141 110.598 178.919 109.742 179.789C108.885 180.66 107.74 180.854 108.848 181.931C109.956 183.007 109.956 182.172 109.956 183.657V185.141L110.462 186.617H117.414C117.414 186.617 119.092 184.674 117.414 182.987C115.736 181.3 117.925 180.838 118.436 179.255C118.948 177.672 119.804 179.379 118.948 177.672C118.092 175.964 117.68 176.289 117.672 175.166C117.663 174.044 130.295 130.08 130.295 130.08L131.825 154.413L150.228 181.062L155.645 177.013C155.645 177.013 151.701 171.479 152.624 170.718C153.546 169.957 149.905 169.003 151.053 168.145C152.201 167.286 149.438 166.422 150.479 165.284C151.521 164.146 149.045 161.279 147.61 161.279C146.175 161.279 144.161 156.499 144.161 156.499L147.167 118.74L139.804 100.6Z" fill="#2F2E41"/>
<path d="M125.121 47.963C125.023 48.0913 124.242 48.0222 123.303 47.8855C121.446 47.6152 121.192 47.9364 119.804 49.1952C117.793 51.0187 118.936 62.1407 117.948 64.5505L117.629 64.785C118.262 64.6645 118.884 64.491 119.488 64.2664C119.829 63.1932 120.172 62.1165 120.516 61.0442C120.841 61.8785 121.046 62.7548 121.123 63.6465C121.601 63.4586 122.077 62.9992 124.074 62.3831C125.08 61.7029 132.357 61.019 133.293 60.7197C135.667 52.6673 131.841 49.4108 125.121 47.963Z" fill="#2F2E41"/>
<path d="M127.579 60.38C131.42 60.38 134.533 57.2765 134.533 53.4482C134.533 49.6198 131.42 46.5164 127.579 46.5164C123.738 46.5164 120.625 49.6198 120.625 53.4482C120.625 57.2765 123.738 60.38 127.579 60.38Z" fill="#A0616A"/>
<path d="M131.958 47.3517C131.566 47.2941 131.189 47.1622 130.846 46.9633C130.677 46.8612 130.539 46.7136 130.45 46.5373C130.36 46.361 130.322 46.1632 130.34 45.9665C130.426 45.474 130.985 45.1799 131.485 45.2099C131.984 45.2815 132.457 45.4725 132.865 45.7665C132.82 45.2906 132.616 44.8434 132.286 44.4969C131.955 44.1504 131.518 43.9247 131.043 43.8559C131.702 43.8206 132.386 43.7894 132.995 44.0418C133.604 44.2942 134.111 44.9191 134.001 45.5672C135.025 45.4358 136.034 46.1466 136.456 47.0851C136.879 48.0236 136.795 49.1257 136.458 50.0977C136.424 50.2466 136.359 50.3866 136.267 50.5082C136.175 50.6298 136.057 50.7302 135.923 50.8027C135.578 50.933 135.207 50.7145 134.909 50.4991C133.35 49.3739 131.931 48.0675 130.682 46.6076" fill="#2F2E41"/>
<path d="M134.987 60.8176C134.692 60.9559 134.846 61.4706 134.617 61.7011C134.517 61.7987 134.397 61.8731 134.265 61.9188C134.231 61.4892 134.131 61.0674 133.968 60.6682C133.938 60.5956 133.889 60.5145 133.812 60.5209C133.722 60.5316 133.698 60.649 133.696 60.7365C133.678 61.1705 133.581 61.5978 133.411 61.9978C133.409 62.002 133.407 62.0084 133.405 62.0127C133.338 62.0106 133.27 62.0084 133.206 62.0063C132.709 61.9871 131.608 60.7152 131.364 61.1462C132.225 59.6246 133.274 57.3367 133.435 55.5974C133.49 55.2333 133.463 54.8613 133.356 54.509C133.299 54.3337 133.194 54.1782 133.051 54.0609C132.909 53.9436 132.736 53.8695 132.553 53.8474C132.462 53.8433 132.372 53.8591 132.288 53.8938C132.205 53.9285 132.13 53.9812 132.069 54.0481C132.009 54.115 131.963 54.1944 131.937 54.2807C131.911 54.3671 131.904 54.4581 131.917 54.5474L131.793 54.5303C130.641 53.5956 131.634 51.9714 130.294 51.3291C129.84 51.1114 127.061 51.8391 126.571 51.7111C126.56 51.1963 126.455 50.6877 126.26 50.2108C126.23 50.1382 126.181 50.0571 126.104 50.0635C126.014 50.0742 125.99 50.1916 125.988 50.2791C125.97 50.7131 125.874 51.1404 125.704 51.5404C125.024 51.4443 124.333 51.4805 123.667 51.6471C123.081 51.8007 122.524 52.0654 121.935 52.2062C121.644 52.2951 121.338 52.3239 121.036 52.2909C120.733 52.2579 120.44 52.1637 120.175 52.0141C119.428 51.5147 119.298 50.4092 119.67 49.594C119.94 49.0709 120.304 48.602 120.745 48.211C121.081 47.8866 121.43 47.5751 121.779 47.2635C122.092 46.9839 122.404 46.7043 122.717 46.4247C123.11 46.0556 123.53 45.7147 123.971 45.4046C124.677 44.9437 125.47 44.6313 126.3 44.4867C127.131 44.3421 127.983 44.3683 128.804 44.5637C129.789 44.7985 131.105 44.4677 132.007 44.9266C132.478 45.1677 133.52 46.0918 133.934 46.4205C134.991 47.2592 134.276 46.5758 135.432 47.0607C138.191 48.217 136.971 59.8866 134.987 60.8176Z" fill="#2F2E41"/>
<path d="M57.9895 111.412C81.8075 111.412 101.116 92.1657 101.116 68.4239C101.116 44.6821 81.8075 25.4355 57.9895 25.4355C34.1716 25.4355 14.8633 44.6821 14.8633 68.4239C14.8633 92.1657 34.1716 111.412 57.9895 111.412Z" fill="white"/>
<path d="M57.9904 111.841C33.9731 111.841 14.4336 92.3642 14.4336 68.4238C14.4336 44.4834 33.9731 25.0063 57.9904 25.0063C82.0077 25.0063 101.547 44.4834 101.547 68.4238C101.547 92.3642 82.0077 111.841 57.9904 111.841ZM57.9904 25.8646C34.4479 25.8646 15.2946 44.9566 15.2946 68.4238C15.2946 91.891 34.4479 110.983 57.9904 110.983C81.5329 110.983 100.686 91.891 100.686 68.4238C100.686 44.9566 81.5329 25.8646 57.9904 25.8646Z" fill="#5534A5"/>
<path d="M52.1071 90.7974C51.3623 90.7974 50.6278 90.6246 49.9618 90.2925C49.2957 89.9604 48.7164 89.4783 48.2697 88.8843L36.5042 73.2469C36.1263 72.7445 35.8513 72.1729 35.695 71.5645C35.5386 70.9562 35.504 70.3232 35.5932 69.7016C35.6823 69.0799 35.8933 68.4819 36.2143 67.9416C36.5353 67.4012 36.9599 66.9292 37.4639 66.5525C37.9679 66.1757 38.5414 65.9016 39.1516 65.7458C39.7619 65.59 40.3969 65.5555 41.0206 65.6443C41.6442 65.7331 42.2442 65.9435 42.7862 66.2635C43.3283 66.5834 43.8018 67.0067 44.1798 67.509L51.8771 77.7386L71.6468 48.1792C72.3529 47.1248 73.4502 46.3931 74.6974 46.1448C75.9446 45.8966 77.2396 46.1522 78.2978 46.8554C79.356 47.5586 80.0908 48.6519 80.3406 49.895C80.5904 51.138 80.3348 52.4291 79.63 53.4843L56.099 88.6679C55.6734 89.3042 55.1009 89.8296 54.4295 90.1998C53.7582 90.5701 53.0075 90.7745 52.2406 90.7959C52.1961 90.7967 52.1516 90.7974 52.1071 90.7974Z" fill="#5534A5"/>
<path d="M102.423 28.1214C102.543 27.2995 101.68 26.4939 100.495 26.322C99.3093 26.1501 98.2512 26.677 98.1313 27.4989C98.0113 28.3208 98.8749 29.1264 100.06 29.2983C101.245 29.4702 102.303 28.9433 102.423 28.1214Z" fill="#E6E6E6"/>
<path d="M116.533 26.7491C116.653 25.9272 115.789 25.1216 114.604 24.9497C113.419 24.7778 112.361 25.3047 112.241 26.1266C112.121 26.9485 112.984 27.7541 114.17 27.926C115.355 28.0979 116.413 27.571 116.533 26.7491Z" fill="#3F3D56"/>
<path d="M98.5601 16.7337C98.6801 15.9118 97.8165 15.1062 96.6313 14.9343C95.446 14.7624 94.388 15.2893 94.268 16.1112C94.148 16.9331 95.0116 17.7387 96.1969 17.9106C97.3821 18.0825 98.4402 17.5556 98.5601 16.7337Z" fill="#FF6584"/>
<path d="M92.425 12.0689C92.4308 11.3143 92.0085 10.6995 91.482 10.6955C90.9554 10.6915 90.5239 11.3 90.5182 12.0545C90.5125 12.809 90.9347 13.4239 91.4612 13.4278C91.9878 13.4318 92.4193 12.8234 92.425 12.0689Z" fill="#E6E6E6"/>
<path d="M90.3469 3.38062C90.3526 2.6261 89.9304 2.01123 89.4038 2.00726C88.8773 2.00329 88.4458 2.61173 88.4401 3.36625C88.4343 4.12076 88.8566 4.73564 89.3831 4.73961C89.9097 4.74358 90.3412 4.13514 90.3469 3.38062Z" fill="#3F3D56"/>
<path d="M106.515 18.6714C106.521 17.9169 106.098 17.302 105.572 17.298C105.045 17.2941 104.614 17.9025 104.608 18.657C104.602 19.4115 105.025 20.0264 105.551 20.0304C106.078 20.0343 106.509 19.4259 106.515 18.6714Z" fill="#E6E6E6"/>
<path d="M99.6985 22.0655C99.7042 21.3109 99.282 20.6961 98.7554 20.6921C98.2288 20.6881 97.7973 21.2966 97.7916 22.0511C97.7859 22.8056 98.2081 23.4205 98.7347 23.4244C99.2612 23.4284 99.6927 22.82 99.6985 22.0655Z" fill="#FF6584"/>
<path d="M109.191 28.3384C109.196 27.5839 108.774 26.969 108.248 26.965C107.721 26.9611 107.29 27.5695 107.284 28.324C107.278 29.0785 107.7 29.6934 108.227 29.6974C108.753 29.7013 109.185 29.0929 109.191 28.3384Z" fill="#3F3D56"/>
<path d="M21.4918 129.962C21.6118 129.14 20.7482 128.334 19.5629 128.162C18.3777 127.99 17.3196 128.517 17.1996 129.339C17.0797 130.161 17.9432 130.967 19.1285 131.139C20.3137 131.311 21.3718 130.784 21.4918 129.962Z" fill="#E6E6E6"/>
<path d="M35.6031 128.59C35.7231 127.768 34.8595 126.963 33.6742 126.791C32.489 126.619 31.4309 127.146 31.311 127.968C31.191 128.79 32.0546 129.595 33.2398 129.767C34.4251 129.939 35.4831 129.412 35.6031 128.59Z" fill="#3F3D56"/>
<path d="M17.6285 118.575C17.7485 117.753 16.8849 116.947 15.6996 116.775C14.5144 116.603 13.4563 117.13 13.3364 117.952C13.2164 118.774 14.08 119.58 15.2652 119.751C16.4505 119.923 17.5085 119.396 17.6285 118.575Z" fill="#FF6584"/>
<path d="M11.4973 113.909C11.503 113.155 11.0808 112.54 10.5542 112.536C10.0277 112.532 9.59617 113.141 9.59044 113.895C9.58472 114.65 10.0069 115.264 10.5335 115.268C11.0601 115.272 11.4916 114.664 11.4973 113.909Z" fill="#E6E6E6"/>
<path d="M9.41722 105.221C9.42294 104.467 9.00072 103.852 8.47416 103.848C7.94759 103.844 7.51609 104.453 7.51036 105.207C7.50464 105.962 7.92686 106.576 8.45343 106.58C8.97999 106.584 9.4115 105.976 9.41722 105.221Z" fill="#3F3D56"/>
<path d="M25.5871 120.512C25.5929 119.757 25.1706 119.142 24.6441 119.138C24.1175 119.134 23.686 119.743 23.6803 120.497C23.6746 121.252 24.0968 121.867 24.6233 121.871C25.1499 121.875 25.5814 121.266 25.5871 120.512Z" fill="#E6E6E6"/>
<path d="M18.7688 123.906C18.7745 123.151 18.3523 122.536 17.8257 122.532C17.2992 122.528 16.8677 123.137 16.8619 123.891C16.8562 124.646 17.2784 125.261 17.805 125.265C18.3316 125.268 18.7631 124.66 18.7688 123.906Z" fill="#FF6584"/>
<path d="M28.261 130.179C28.2667 129.425 27.8445 128.81 27.3179 128.806C26.7913 128.802 26.3598 129.411 26.3541 130.165C26.3484 130.92 26.7706 131.534 27.2972 131.538C27.8237 131.542 28.2552 130.934 28.261 130.179Z" fill="#3F3D56"/>
</svg>
