<svg width="180" height="200" viewBox="0 0 180 200" fill="none" xmlns="http://www.w3.org/2000/svg">
<path d="M71.47 162.871C68.1975 159.496 63.4553 157.561 58.4593 157.561L58.2666 157.561C54.9758 157.563 51.7437 156.69 48.901 155.032L48.6051 154.86L48.8434 154.614C50.1333 153.28 51.2103 151.755 52.0368 150.093C51.4498 150.64 50.7497 151.052 49.9861 151.299C49.2224 151.545 48.4138 151.621 47.6176 151.521C46.777 151.42 45.97 151.131 45.2571 150.675C44.5442 150.218 43.944 149.606 43.5015 148.884C41.7553 146.051 39.6738 142.031 39.6738 138.968C39.6765 136.38 40.2186 133.82 41.2653 131.452C42.3121 129.085 43.8406 126.961 45.7535 125.217C46.9645 124.125 47.9318 122.79 48.5923 121.3C49.2528 119.809 49.5917 118.195 49.5869 116.565L49.5859 116.333C49.5856 114.186 49.8479 112.047 50.3671 109.964L50.4198 109.754L50.6362 109.761C52.0319 109.809 53.4283 109.692 54.7966 109.413C53.5131 109.255 52.2575 108.921 51.0654 108.42L50.8326 108.326L50.9116 108.087C56.3585 104.715 68.6535 106.461 75.79 90.1337C81.5766 76.8941 101.994 101.886 101.994 116.333C101.994 117.807 100.535 119.755 101.627 120.729C113.432 131.261 105.287 138.024 102.719 144.829C102.11 146.444 103.431 148.217 103.431 149.963C103.431 150.26 103.423 150.566 103.408 150.873L103.386 151.345L102.992 151.083C102.213 150.573 101.491 149.981 100.839 149.317C101.516 150.875 101.835 152.565 101.773 154.262C101.71 155.96 101.268 157.622 100.478 159.126C99.2413 161.461 98.0444 163.133 96.9211 164.094C93.3226 167.174 88.6836 168.762 83.9528 168.535C79.222 168.308 74.7567 166.282 71.47 162.871Z" fill="#E6E6E6"/>
<path d="M91.2312 198C91.3116 198 91.3894 197.971 91.4501 197.918C91.5108 197.865 91.5505 197.792 91.5618 197.713C91.576 197.613 92.9675 187.578 91.7178 174.24C90.5637 161.923 86.8574 144.181 75.7549 129.61C75.7283 129.575 75.695 129.546 75.6571 129.524C75.6191 129.501 75.5772 129.487 75.5336 129.481C75.4901 129.475 75.4458 129.478 75.4033 129.489C75.3608 129.5 75.321 129.52 75.286 129.547C75.251 129.573 75.2217 129.606 75.1996 129.644C75.1775 129.682 75.1631 129.724 75.1573 129.768C75.1514 129.811 75.1542 129.856 75.1655 129.898C75.1767 129.941 75.1963 129.981 75.223 130.015C86.2296 144.46 89.906 162.072 91.052 174.302C92.2944 187.562 90.9138 197.519 90.8997 197.618C90.893 197.666 90.8966 197.714 90.9102 197.76C90.9237 197.806 90.947 197.849 90.9785 197.885C91.0099 197.921 91.0487 197.95 91.0923 197.97C91.1359 197.99 91.1833 198 91.2312 198Z" fill="#3F3D56"/>
<path d="M82.174 150.163C82.2447 150.163 82.3135 150.14 82.3707 150.099C82.4278 150.058 82.4704 149.999 82.4922 149.932C82.5141 149.865 82.5141 149.792 82.4923 149.725C82.4705 149.658 82.428 149.599 82.3709 149.558C79.2073 147.417 75.7898 145.677 72.197 144.379C66.5838 142.324 58.0483 140.461 49.261 143.257C49.2191 143.271 49.1802 143.292 49.1465 143.32C49.1129 143.349 49.0851 143.383 49.0649 143.422C49.0446 143.461 49.0323 143.504 49.0286 143.548C49.0248 143.592 49.0297 143.636 49.0431 143.678C49.0564 143.72 49.0779 143.758 49.1063 143.792C49.1346 143.826 49.1694 143.853 49.2084 143.873C49.2475 143.894 49.2902 143.906 49.334 143.909C49.3778 143.913 49.4219 143.908 49.4638 143.895C58.071 141.155 66.4519 142.988 71.967 145.007C75.5021 146.283 78.8648 147.993 81.9777 150.099C82.0347 150.14 82.1035 150.163 82.174 150.163Z" fill="#3F3D56"/>
<path d="M97.478 112.047C97.4831 111.977 97.4658 111.906 97.4286 111.846C97.3913 111.786 97.336 111.74 97.2706 111.713C97.2052 111.686 97.133 111.681 97.0645 111.698C96.9959 111.715 96.9344 111.753 96.8889 111.807C94.5253 114.808 92.544 118.092 90.9906 121.582C88.5367 127.032 86.0638 135.412 88.2204 144.378C88.2306 144.42 88.2492 144.461 88.275 144.496C88.3008 144.532 88.3334 144.562 88.3708 144.585C88.4083 144.608 88.4499 144.623 88.4933 144.63C88.5367 144.637 88.581 144.635 88.6238 144.625C88.6665 144.615 88.7068 144.596 88.7423 144.57C88.7778 144.544 88.8079 144.512 88.8308 144.474C88.8538 144.437 88.8691 144.395 88.8759 144.352C88.8827 144.308 88.8809 144.264 88.8705 144.221C86.7583 135.439 89.1893 127.212 91.6004 121.856C93.1275 118.422 95.0756 115.191 97.4001 112.238C97.4457 112.184 97.473 112.117 97.478 112.047Z" fill="#3F3D56"/>
<path d="M161.971 197.646H135.353L135.239 197.439C134.898 196.821 134.57 196.167 134.263 195.495C131.521 189.625 130.362 182.912 129.339 176.989L128.569 172.524C128.476 171.983 128.546 171.427 128.771 170.926C128.996 170.426 129.365 170.004 129.831 169.714C130.297 169.424 130.839 169.28 131.387 169.301C131.935 169.321 132.465 169.504 132.909 169.827C136.954 172.771 141.001 175.711 145.049 178.649C146.582 179.765 148.333 181.055 150.009 182.45C150.171 181.665 150.34 180.877 150.51 180.1C150.626 179.563 150.9 179.074 151.297 178.694C151.693 178.314 152.194 178.061 152.735 177.968C153.276 177.874 153.833 177.944 154.334 178.169C154.835 178.394 155.257 178.763 155.547 179.229L158.662 184.232C160.933 187.886 162.938 191.487 162.529 195.371C162.531 195.418 162.528 195.465 162.519 195.512C162.437 196.15 162.286 196.777 162.067 197.381L161.971 197.646Z" fill="#F0F0F0"/>
<path d="M149.574 92.9983L144.437 73.9842C144.217 73.1792 143.689 72.4931 142.968 72.0738C142.246 71.6545 141.389 71.5357 140.581 71.743C140.163 71.8502 139.771 72.0415 139.429 72.3051C139.087 72.5688 138.803 72.8993 138.593 73.2765C138.383 73.6537 138.252 74.0697 138.208 74.4991C138.164 74.9286 138.208 75.3625 138.337 75.7743L144.279 95.3618L147.388 107.416C146.935 107.762 146.6 108.239 146.427 108.781C146.255 109.324 146.254 109.907 146.424 110.451C146.594 110.994 146.928 111.472 147.38 111.82C147.831 112.167 148.379 112.367 148.948 112.393C149.517 112.418 150.08 112.267 150.56 111.962C151.041 111.656 151.416 111.21 151.634 110.683C151.852 110.157 151.903 109.576 151.78 109.02C151.656 108.464 151.365 107.959 150.945 107.575L149.574 92.9983Z" fill="#A0616A"/>
<path d="M106.342 88.9034L121.95 76.891C122.61 76.3801 123.043 75.6303 123.154 74.8034C123.266 73.9764 123.048 73.1387 122.548 72.4709C122.289 72.1255 121.963 71.8364 121.588 71.6212C121.214 71.4061 120.8 71.2694 120.371 71.2195C119.942 71.1697 119.508 71.2076 119.094 71.3312C118.681 71.4547 118.297 71.6611 117.965 71.9379L102.134 84.9129L92.1823 92.3915C91.6898 92.1052 91.1211 91.9774 90.5535 92.0256C89.9859 92.0737 89.4468 92.2954 89.0096 92.6606C88.5723 93.0257 88.2581 93.5166 88.1096 94.0666C87.9611 94.6166 87.9855 95.1989 88.1794 95.7345C88.3734 96.2701 88.7276 96.7331 89.1938 97.0604C89.66 97.3877 90.2157 97.5636 90.7854 97.5641C91.3551 97.5646 91.9111 97.3898 92.3779 97.0633C92.8447 96.7368 93.1997 96.2745 93.3946 95.7392L106.342 88.9034Z" fill="#A0616A"/>
<path d="M119.063 91.6649L118.375 107.031L139.978 102.336C138.139 96.1613 136.889 95.1082 138.27 90.8112L119.063 91.6649Z" fill="#A0616A"/>
<path d="M132.348 63.4948H125.15L122.058 68.7845L120.585 68.7032C119.865 68.6634 119.144 68.771 118.467 69.0193C117.789 69.2676 117.17 69.6515 116.645 70.1474C116.121 70.6433 115.704 71.2409 115.419 71.9036C115.133 72.5663 114.986 73.2803 114.986 74.0018L116.801 76.8147C116.801 76.8147 113.555 82.4712 118.231 85.254C118.231 85.254 117.397 90.4972 118.231 90.4408C119.065 90.3844 120.985 89.3174 119.065 90.3844C117.144 91.4515 117.287 91.5948 117.536 91.8433L117.784 92.0918L137.981 95.483C137.981 95.483 138.572 91.5678 138.635 90.8694C138.699 90.171 138.272 91.8784 138.699 90.171C139.126 88.4637 139.766 89.1039 139.126 88.4637C138.485 87.8234 143.274 79.8914 141.307 76.8147L144.461 73.7379C144.461 70.7866 139.721 68.3941 136.77 68.3941H136.392L132.348 63.4948Z" fill="#E6E6E6"/>
<path d="M115.007 191.723H112.093L110.707 180.485L115.007 180.485L115.007 191.723Z" fill="#A0616A"/>
<path d="M106.21 196.021C106.211 196.347 106.341 196.66 106.572 196.891C106.802 197.122 107.115 197.253 107.441 197.255H112.925L113.095 196.902L113.871 195.302L114.172 196.902L114.238 197.255H116.307L116.277 196.9L115.726 190.285L115.004 190.241L111.886 190.056L111.12 190.009V191.984C110.539 192.603 105.978 194.94 106.21 196.021Z" fill="#2F2E41"/>
<path d="M158.303 184.091L155.853 185.667L148.607 176.966L152.224 174.64L158.303 184.091Z" fill="#A0616A"/>
<path d="M153.233 192.464C153.411 192.737 153.689 192.93 154.008 193C154.327 193.069 154.66 193.01 154.936 192.835L159.548 189.868L159.501 189.48L159.287 187.714L160.406 188.898L160.652 189.158L162.392 188.039L162.175 187.756L158.133 182.492L157.502 182.845L154.78 184.376L154.11 184.751L155.179 186.412C155.025 187.247 152.453 191.68 153.233 192.464Z" fill="#2F2E41"/>
<path d="M171.896 197.851L81.6826 197.939C81.5926 197.939 81.5064 197.903 81.4429 197.839C81.3794 197.775 81.3438 197.689 81.3438 197.599C81.3438 197.508 81.3794 197.422 81.4429 197.358C81.5064 197.294 81.5926 197.258 81.6826 197.258L171.896 197.17C171.986 197.17 172.072 197.207 172.135 197.27C172.199 197.334 172.234 197.421 172.234 197.511C172.234 197.601 172.199 197.687 172.135 197.751C172.072 197.815 171.986 197.851 171.896 197.851Z" fill="#CACACA"/>
<path d="M139.639 100.599C139.639 100.599 125.83 107.904 118.527 102.92C118.527 102.92 116.929 110.658 116.289 111.299C115.648 111.939 114.628 112.218 115.352 112.932C116.075 113.646 116.478 114.611 115.103 115.836C113.728 117.061 112.356 116.672 113.682 117.934C115.008 119.195 109.673 150.14 109.673 150.14C109.673 150.14 110.526 178.918 109.673 179.789C108.819 180.659 107.678 180.854 108.782 181.93C109.886 183.007 109.886 182.172 109.886 183.656V185.141L110.391 186.616H117.321C117.321 186.616 118.993 184.674 117.321 182.986C115.648 181.299 117.83 180.838 118.34 179.254C118.85 177.671 119.703 179.378 118.85 177.671C117.996 175.964 117.586 176.289 117.578 175.166C117.569 174.043 130.161 130.079 130.161 130.079L131.686 154.413L150.03 181.062L155.429 177.012C155.429 177.012 151.498 171.478 152.418 170.717C153.337 169.956 149.708 169.002 150.852 168.144C151.997 167.286 149.242 166.421 150.28 165.283C151.318 164.146 148.85 161.278 147.42 161.278C145.989 161.278 143.982 156.499 143.982 156.499L146.979 118.74L139.639 100.599Z" fill="#2F2E41"/>
<path d="M125.005 47.9629C124.908 48.0912 124.129 48.0221 123.193 47.8854C121.342 47.6151 121.089 47.9363 119.705 49.1951C117.701 51.0186 118.84 62.1406 117.855 64.5504L117.537 64.7849C118.168 64.6644 118.788 64.4909 119.39 64.2663C119.731 63.1931 120.072 62.1164 120.415 61.0441C120.739 61.8784 120.943 62.7546 121.02 63.6464C121.497 63.4585 121.97 62.9991 123.962 62.383C124.964 61.7028 132.218 61.0189 133.151 60.7196C135.517 52.6671 131.703 49.4107 125.005 47.9629Z" fill="#2F2E41"/>
<path d="M127.455 60.38C131.284 60.38 134.387 57.2765 134.387 53.4482C134.387 49.6198 131.284 46.5164 127.455 46.5164C123.627 46.5164 120.523 49.6198 120.523 53.4482C120.523 57.2765 123.627 60.38 127.455 60.38Z" fill="#A0616A"/>
<path d="M131.822 47.3517C131.431 47.2941 131.055 47.1622 130.714 46.9633C130.545 46.8612 130.408 46.7136 130.319 46.5373C130.229 46.361 130.192 46.1632 130.209 45.9665C130.295 45.474 130.852 45.1799 131.351 45.2099C131.847 45.2815 132.319 45.4725 132.726 45.7665C132.681 45.2906 132.478 44.8434 132.149 44.4969C131.819 44.1504 131.383 43.9247 130.91 43.8559C131.566 43.8206 132.249 43.7894 132.855 44.0418C133.462 44.2942 133.968 44.9191 133.858 45.5672C134.879 45.4358 135.885 46.1466 136.306 47.0851C136.727 48.0236 136.644 49.1257 136.307 50.0977C136.274 50.2466 136.209 50.3866 136.117 50.5082C136.025 50.6298 135.908 50.7302 135.774 50.8027C135.43 50.933 135.061 50.7145 134.763 50.4991C133.209 49.3739 131.795 48.0675 130.55 46.6076" fill="#2F2E41"/>
<path d="M134.838 60.8174C134.544 60.9558 134.697 61.4705 134.468 61.701C134.369 61.7986 134.25 61.873 134.118 61.9187C134.084 61.4891 133.984 61.0673 133.822 60.6681C133.792 60.5955 133.743 60.5144 133.666 60.5208C133.576 60.5315 133.553 60.6489 133.551 60.7364C133.533 61.1704 133.437 61.5977 133.267 61.9977C133.265 62.0019 133.263 62.0083 133.261 62.0126C133.194 62.0105 133.126 62.0083 133.062 62.0062C132.567 61.987 131.47 60.715 131.227 61.1461C132.085 59.6245 133.13 57.3366 133.29 55.5973C133.346 55.2331 133.319 54.8612 133.211 54.5089C133.155 54.3336 133.05 54.1781 132.908 54.0608C132.766 53.9435 132.594 53.8694 132.411 53.8473C132.321 53.8432 132.231 53.859 132.148 53.8937C132.065 53.9284 131.99 53.9811 131.929 54.048C131.869 54.1149 131.824 54.1943 131.798 54.2806C131.771 54.3669 131.764 54.458 131.777 54.5473L131.654 54.5302C130.505 53.5954 131.496 51.9713 130.16 51.329C129.707 51.1113 126.937 51.839 126.448 51.711C126.438 51.1961 126.333 50.6876 126.139 50.2107C126.109 50.1381 126.06 50.057 125.983 50.0634C125.893 50.0741 125.87 50.1914 125.868 50.2789C125.85 50.713 125.754 51.1403 125.584 51.5402C124.907 51.4442 124.218 51.4804 123.554 51.6469C122.97 51.8006 122.415 52.0652 121.828 52.2061C121.538 52.295 121.233 52.3238 120.931 52.2908C120.629 52.2578 120.338 52.1636 120.074 52.014C119.329 51.5146 119.199 50.4091 119.57 49.5939C119.839 49.0707 120.202 48.6019 120.641 48.2109C120.976 47.8865 121.324 47.5749 121.672 47.2634C121.984 46.9838 122.295 46.7042 122.607 46.4246C122.999 46.0554 123.417 45.7146 123.857 45.4045C124.561 44.9435 125.351 44.6312 126.179 44.4866C127.007 44.342 127.856 44.3682 128.674 44.5636C129.656 44.7984 130.968 44.4676 131.867 44.9264C132.336 45.1676 133.376 46.0917 133.788 46.4204C134.842 47.2591 134.129 46.5757 135.282 47.0606C138.031 48.2169 136.815 59.8865 134.838 60.8174Z" fill="#2F2E41"/>
<path d="M58.0896 111.412C81.8312 111.412 101.078 92.1659 101.078 68.424C101.078 44.6822 81.8312 25.4356 58.0896 25.4356C34.348 25.4356 15.1016 44.6822 15.1016 68.424C15.1016 92.1659 34.348 111.412 58.0896 111.412Z" fill="#21222D"/>
<path d="M58.091 111.841C34.1507 111.841 14.6738 92.3643 14.6738 68.4239C14.6738 44.4834 34.1507 25.0064 58.091 25.0064C82.0312 25.0064 101.508 44.4834 101.508 68.4239C101.508 92.3643 82.0312 111.841 58.091 111.841ZM58.091 25.8646C34.6239 25.8646 15.532 44.9567 15.532 68.4239C15.532 91.8911 34.6239 110.983 58.091 110.983C81.558 110.983 100.65 91.8911 100.65 68.4239C100.65 44.9567 81.558 25.8646 58.091 25.8646Z" fill="#5534A5"/>
<path d="M52.2259 90.7972C51.4835 90.7972 50.7514 90.6243 50.0875 90.2923C49.4235 89.9602 48.8461 89.4781 48.4008 88.8841L36.673 73.2466C36.2963 72.7443 36.0222 72.1726 35.8664 71.5643C35.7105 70.956 35.6761 70.323 35.7649 69.7013C35.8537 69.0797 36.0641 68.4816 36.384 67.9413C36.704 67.401 37.1272 66.929 37.6296 66.5522C38.132 66.1755 38.7036 65.9014 39.3119 65.7455C39.9202 65.5897 40.5533 65.5552 41.1749 65.644C41.7965 65.7329 42.3946 65.9433 42.9349 66.2632C43.4752 66.5832 43.9472 67.0064 44.324 67.5088L51.9967 77.7384L71.703 48.179C72.4069 47.1246 73.5006 46.3928 74.7438 46.1446C75.987 45.8964 77.2779 46.1519 78.3327 46.8551C79.3875 47.5584 80.1199 48.6517 80.3689 49.8947C80.6179 51.1378 80.3631 52.4288 79.6606 53.4841L56.205 88.6677C55.7807 89.304 55.2101 89.8293 54.5409 90.1996C53.8717 90.5698 53.1235 90.7742 52.359 90.7956C52.3146 90.7964 52.2702 90.7972 52.2259 90.7972Z" fill="#5534A5"/>
<path d="M102.38 28.1213C102.499 27.2995 101.638 26.4939 100.457 26.322C99.2756 26.1501 98.2209 26.677 98.1013 27.4988C97.9817 28.3207 98.8425 29.1263 100.024 29.2982C101.205 29.4701 102.26 28.9432 102.38 28.1213Z" fill="#E6E6E6"/>
<path d="M116.446 26.749C116.566 25.9271 115.705 25.1215 114.523 24.9496C113.342 24.7777 112.287 25.3046 112.168 26.1265C112.048 26.9484 112.909 27.754 114.09 27.9259C115.272 28.0978 116.327 27.5709 116.446 26.749Z" fill="#3F3D56"/>
<path d="M98.5281 16.7335C98.6477 15.9116 97.7869 15.106 96.6054 14.9341C95.424 14.7623 94.3693 15.2892 94.2497 16.111C94.1301 16.9329 94.991 17.7385 96.1724 17.9104C97.3538 18.0823 98.4085 17.5554 98.5281 16.7335Z" fill="#FF6584"/>
<path d="M92.4169 12.0689C92.4226 11.3143 92.0018 10.6995 91.4769 10.6955C90.952 10.6915 90.5219 11.3 90.5162 12.0545C90.5105 12.809 90.9314 13.4239 91.4562 13.4278C91.9811 13.4318 92.4112 12.8234 92.4169 12.0689Z" fill="#E6E6E6"/>
<path d="M90.3447 3.38037C90.3504 2.62586 89.9295 2.01098 89.4046 2.00701C88.8798 2.00304 88.4496 2.61148 88.4439 3.366C88.4382 4.12052 88.8591 4.7354 89.384 4.73936C89.9088 4.74333 90.339 4.13489 90.3447 3.38037Z" fill="#3F3D56"/>
<path d="M106.462 18.6714C106.468 17.9169 106.047 17.302 105.522 17.298C104.997 17.2941 104.567 17.9025 104.561 18.657C104.555 19.4115 104.976 20.0264 105.501 20.0304C106.026 20.0343 106.456 19.4259 106.462 18.6714Z" fill="#E6E6E6"/>
<path d="M99.665 22.0654C99.6707 21.3109 99.2498 20.696 98.7249 20.692C98.2001 20.6881 97.7699 21.2965 97.7642 22.051C97.7585 22.8055 98.1794 23.4204 98.7043 23.4244C99.2292 23.4283 99.6593 22.8199 99.665 22.0654Z" fill="#FF6584"/>
<path d="M109.128 28.3383C109.134 27.5838 108.713 26.9689 108.188 26.965C107.663 26.961 107.233 27.5694 107.227 28.324C107.221 29.0785 107.642 29.6933 108.167 29.6973C108.692 29.7013 109.122 29.0929 109.128 28.3383Z" fill="#3F3D56"/>
<path d="M21.7098 129.962C21.8293 129.14 20.9685 128.334 19.7871 128.162C18.6056 127.99 17.5509 128.517 17.4314 129.339C17.3118 130.161 18.1726 130.967 19.354 131.139C20.5355 131.311 21.5902 130.784 21.7098 129.962Z" fill="#E6E6E6"/>
<path d="M35.7742 128.59C35.8938 127.768 35.033 126.963 33.8515 126.791C32.6701 126.619 31.6154 127.146 31.4958 127.968C31.3762 128.79 32.237 129.595 33.4185 129.767C34.5999 129.939 35.6546 129.412 35.7742 128.59Z" fill="#3F3D56"/>
<path d="M17.8582 118.575C17.9778 117.753 17.117 116.947 15.9355 116.775C14.7541 116.603 13.6994 117.13 13.5798 117.952C13.4602 118.774 14.321 119.58 15.5025 119.752C16.6839 119.923 17.7386 119.397 17.8582 118.575Z" fill="#FF6584"/>
<path d="M11.7451 113.909C11.7508 113.155 11.3299 112.54 10.805 112.536C10.2801 112.532 9.85002 113.14 9.84432 113.895C9.83861 114.649 10.2595 115.264 10.7844 115.268C11.3092 115.272 11.7394 114.664 11.7451 113.909Z" fill="#E6E6E6"/>
<path d="M9.6728 105.221C9.67851 104.466 9.25763 103.851 8.73276 103.847C8.20788 103.843 7.77775 104.452 7.77205 105.206C7.76634 105.961 8.18722 106.576 8.71209 106.58C9.23697 106.584 9.66709 105.975 9.6728 105.221Z" fill="#3F3D56"/>
<path d="M25.79 120.512C25.7957 119.757 25.3748 119.142 24.8499 119.138C24.3251 119.134 23.8949 119.743 23.8892 120.497C23.8835 121.252 24.3044 121.867 24.8293 121.871C25.3542 121.875 25.7843 121.266 25.79 120.512Z" fill="#E6E6E6"/>
<path d="M18.9931 123.906C18.9988 123.151 18.5779 122.537 18.0531 122.533C17.5282 122.529 17.0981 123.137 17.0924 123.892C17.0867 124.646 17.5075 125.261 18.0324 125.265C18.5573 125.269 18.9874 124.661 18.9931 123.906Z" fill="#FF6584"/>
<path d="M28.456 130.179C28.4617 129.425 28.0408 128.81 27.5159 128.806C26.9911 128.802 26.561 129.41 26.5553 130.165C26.5495 130.919 26.9704 131.534 27.4953 131.538C28.0202 131.542 28.4503 130.934 28.456 130.179Z" fill="#3F3D56"/>
</svg>
