<svg width="180" height="200" viewBox="0 0 180 200" fill="none" xmlns="http://www.w3.org/2000/svg">
<path d="M178.499 59.3338H177.648V36.0031C177.648 32.4219 176.223 28.9873 173.688 26.455C171.152 23.9226 167.713 22.5 164.128 22.5H114.635C112.86 22.5 111.102 22.8492 109.462 23.5278C107.821 24.2063 106.331 25.201 105.075 26.4548C103.82 27.7087 102.824 29.1972 102.144 30.8355C101.465 32.4737 101.115 34.2296 101.115 36.0029V163.997C101.115 167.578 102.54 171.013 105.075 173.545C107.611 176.077 111.05 177.5 114.635 177.5H164.127C167.713 177.5 171.152 176.077 173.687 173.545C176.223 171.013 177.647 167.578 177.647 163.997V75.941H178.499L178.499 59.3338Z" fill="#3F3D56"/>
<path d="M174.893 35.0984V164.9C174.892 167.616 173.812 170.22 171.89 172.14C169.968 174.06 167.361 175.139 164.642 175.14H114.134C111.415 175.141 108.806 174.062 106.882 172.142C104.959 170.221 103.878 167.617 103.877 164.9V35.0984C103.878 32.3822 104.959 29.7776 106.882 27.8573C108.806 25.9371 111.414 24.8585 114.134 24.8589H120.261C119.96 25.5978 119.845 26.3992 119.927 27.1926C120.009 27.986 120.285 28.7472 120.73 29.4093C121.176 30.0713 121.777 30.614 122.482 30.9895C123.186 31.365 123.973 31.562 124.771 31.563H153.567C154.365 31.562 155.152 31.365 155.856 30.9895C156.561 30.614 157.162 30.0713 157.608 29.4093C158.053 28.7472 158.329 27.986 158.411 27.1926C158.493 26.3992 158.378 25.5978 158.077 24.8589H164.64C167.359 24.8593 169.966 25.938 171.889 27.8578C173.811 29.7776 174.892 32.3813 174.893 35.0965V35.0984Z" fill="white"/>
<path d="M139.924 87.0273C134.174 87.0295 128.658 84.7501 124.59 80.6907C120.522 76.6313 118.235 71.1243 118.232 65.381V65.3618C118.232 65.3164 118.232 65.2687 118.235 65.2233C118.301 53.3592 128.032 43.6978 139.924 43.6978C145.677 43.6974 151.195 45.9796 155.263 50.0423C159.331 54.1049 161.617 59.6152 161.617 65.361C161.617 71.1068 159.332 76.6173 155.264 80.6804C151.197 84.7435 145.679 87.0264 139.926 87.0267H139.924V87.0273ZM139.924 44.1536C134.318 44.1661 128.943 46.3877 124.967 50.3356C120.992 54.2835 118.737 59.6388 118.692 65.2379C118.689 65.2863 118.689 65.3251 118.689 65.362C118.689 69.5571 119.934 73.6582 122.267 77.1467C124.6 80.6351 127.917 83.3542 131.797 84.9601C135.678 86.566 139.948 86.9865 144.068 86.1686C148.188 85.3507 151.972 83.331 154.943 80.3649C157.913 77.3989 159.936 73.6197 160.756 69.5052C161.576 65.3908 161.156 61.1259 159.549 57.2499C157.942 53.3739 155.221 50.0609 151.728 47.7297C148.236 45.3986 144.13 44.1541 139.93 44.1536H139.924Z" fill="#E6E6E6"/>
<path d="M162.356 109.805H117.474C117.253 109.805 117.042 109.717 116.886 109.562C116.73 109.406 116.643 109.195 116.643 108.975V97.8559C116.643 97.6359 116.731 97.4249 116.886 97.2693C117.042 97.1137 117.253 97.0262 117.474 97.0259H162.356C162.576 97.0262 162.788 97.1137 162.943 97.2693C163.099 97.4249 163.187 97.6359 163.187 97.8559V108.975C163.187 109.195 163.099 109.406 162.943 109.562C162.788 109.718 162.576 109.805 162.356 109.805V109.805ZM117.474 97.3578C117.341 97.3579 117.215 97.4104 117.121 97.5038C117.028 97.5972 116.975 97.7239 116.975 97.8559V108.975C116.975 109.107 117.028 109.234 117.121 109.327C117.215 109.421 117.341 109.473 117.474 109.473H162.356C162.488 109.473 162.615 109.421 162.708 109.327C162.802 109.234 162.855 109.107 162.855 108.975V97.8559C162.855 97.7239 162.802 97.5972 162.708 97.5038C162.615 97.4104 162.488 97.3579 162.356 97.3578H117.474Z" fill="#E6E6E6"/>
<path d="M131.353 101.091C131.199 101.091 131.051 101.153 130.942 101.262C130.833 101.37 130.771 101.518 130.771 101.672C130.771 101.827 130.833 101.974 130.942 102.083C131.051 102.192 131.199 102.254 131.353 102.254H158.781C158.857 102.256 158.934 102.244 159.005 102.218C159.077 102.191 159.143 102.151 159.199 102.099C159.255 102.047 159.3 101.985 159.332 101.916C159.364 101.846 159.382 101.771 159.385 101.695C159.388 101.619 159.376 101.543 159.349 101.471C159.323 101.399 159.282 101.334 159.23 101.278C159.178 101.222 159.116 101.177 159.046 101.145C158.977 101.113 158.902 101.095 158.826 101.092C158.817 101.092 158.809 101.091 158.8 101.092H131.353V101.091Z" fill="#E6E6E6"/>
<path d="M131.353 104.578C131.199 104.578 131.051 104.639 130.942 104.748C130.833 104.857 130.771 105.005 130.771 105.159C130.771 105.313 130.833 105.461 130.942 105.57C131.051 105.679 131.199 105.74 131.353 105.74H158.781C158.857 105.743 158.934 105.731 159.005 105.704C159.077 105.678 159.143 105.637 159.199 105.585C159.255 105.534 159.3 105.471 159.332 105.402C159.364 105.333 159.382 105.258 159.385 105.181C159.388 105.105 159.376 105.029 159.349 104.957C159.323 104.886 159.282 104.82 159.23 104.764C159.178 104.708 159.116 104.663 159.046 104.631C158.977 104.599 158.902 104.581 158.826 104.578C158.817 104.578 158.809 104.578 158.8 104.578L131.353 104.578Z" fill="#E6E6E6"/>
<path d="M162.356 128.4H117.474C117.253 128.399 117.042 128.312 116.886 128.156C116.73 128.001 116.643 127.79 116.643 127.57V116.45C116.643 116.23 116.731 116.019 116.886 115.864C117.042 115.708 117.253 115.621 117.474 115.62H162.356C162.576 115.621 162.788 115.708 162.943 115.864C163.099 116.019 163.187 116.23 163.187 116.45V127.57C163.187 127.79 163.099 128.001 162.943 128.156C162.787 128.312 162.576 128.399 162.356 128.4ZM117.474 115.952C117.341 115.952 117.215 116.005 117.121 116.098C117.028 116.192 116.975 116.318 116.975 116.45V127.57C116.975 127.702 117.028 127.828 117.121 127.922C117.215 128.015 117.341 128.068 117.474 128.068H162.356C162.488 128.068 162.615 128.015 162.708 127.922C162.802 127.828 162.855 127.702 162.855 127.57V116.45C162.855 116.318 162.802 116.192 162.708 116.098C162.615 116.005 162.488 115.952 162.356 115.952H117.474Z" fill="#E6E6E6"/>
<path d="M131.353 119.685C131.199 119.685 131.051 119.746 130.942 119.855C130.833 119.964 130.771 120.112 130.771 120.266C130.771 120.42 130.833 120.568 130.942 120.677C131.051 120.786 131.199 120.847 131.353 120.847H158.781C158.933 120.846 159.079 120.786 159.187 120.679C159.295 120.572 159.357 120.427 159.36 120.276C159.362 120.124 159.305 119.977 159.2 119.866C159.096 119.756 158.952 119.691 158.8 119.685L131.353 119.685Z" fill="#E6E6E6"/>
<path d="M131.353 123.172C131.199 123.172 131.051 123.233 130.942 123.342C130.833 123.451 130.771 123.599 130.771 123.753C130.771 123.907 130.833 124.055 130.942 124.164C131.051 124.273 131.199 124.334 131.353 124.334H158.781C158.933 124.333 159.079 124.273 159.187 124.166C159.295 124.059 159.357 123.915 159.36 123.763C159.362 123.611 159.305 123.464 159.2 123.354C159.096 123.243 158.952 123.178 158.8 123.172L131.353 123.172Z" fill="#E6E6E6"/>
<path d="M162.356 146.994H117.474C117.253 146.993 117.042 146.906 116.886 146.75C116.73 146.595 116.643 146.384 116.643 146.164V135.044C116.643 134.824 116.731 134.613 116.886 134.458C117.042 134.302 117.253 134.215 117.474 134.214H162.356C162.576 134.215 162.788 134.302 162.943 134.458C163.099 134.613 163.187 134.824 163.187 135.044V146.164C163.187 146.384 163.099 146.595 162.943 146.75C162.788 146.906 162.576 146.994 162.356 146.994V146.994ZM117.474 134.546C117.341 134.546 117.215 134.599 117.121 134.692C117.028 134.786 116.975 134.912 116.975 135.044V146.164C116.975 146.296 117.028 146.422 117.121 146.516C117.215 146.609 117.341 146.662 117.474 146.662H162.356C162.488 146.662 162.615 146.609 162.708 146.516C162.802 146.422 162.855 146.296 162.855 146.164V135.044C162.855 134.912 162.802 134.786 162.708 134.692C162.615 134.599 162.488 134.546 162.356 134.546H117.474Z" fill="#E6E6E6"/>
<path d="M131.353 138.28C131.199 138.28 131.051 138.341 130.942 138.45C130.833 138.559 130.771 138.707 130.771 138.861C130.771 139.015 130.833 139.163 130.942 139.272C131.051 139.381 131.199 139.442 131.353 139.442H158.781C158.857 139.445 158.934 139.433 159.005 139.406C159.077 139.38 159.143 139.339 159.199 139.287C159.255 139.236 159.3 139.173 159.332 139.104C159.364 139.034 159.382 138.959 159.385 138.883C159.388 138.807 159.376 138.731 159.349 138.659C159.323 138.588 159.282 138.522 159.23 138.466C159.178 138.41 159.116 138.365 159.046 138.333C158.977 138.301 158.902 138.283 158.826 138.28C158.817 138.28 158.809 138.28 158.8 138.28L131.353 138.28Z" fill="#E6E6E6"/>
<path d="M131.353 141.766C131.199 141.766 131.051 141.827 130.942 141.936C130.833 142.045 130.771 142.193 130.771 142.347C130.771 142.501 130.833 142.649 130.942 142.758C131.051 142.867 131.199 142.928 131.353 142.928H158.781C158.857 142.931 158.934 142.919 159.005 142.892C159.077 142.866 159.143 142.826 159.199 142.774C159.255 142.722 159.3 142.659 159.332 142.59C159.364 142.521 159.382 142.446 159.385 142.37C159.388 142.293 159.376 142.217 159.349 142.146C159.323 142.074 159.282 142.008 159.23 141.952C159.178 141.896 159.116 141.851 159.046 141.819C158.977 141.787 158.902 141.769 158.826 141.766C158.817 141.766 158.809 141.766 158.8 141.766L131.353 141.766Z" fill="#E6E6E6"/>
<path d="M146.779 64.8364H140.453V58.5181H139.398V64.8364H133.072V65.8893H139.398V72.2076H140.453V65.8893H146.779V64.8364Z" fill="#5534A5"/>
<path d="M49.6332 144.289C49.6332 144.289 44.4606 149.947 43.7216 162.985C42.9827 176.023 42.7363 177.499 42.7363 177.499H61.2101L64.6568 168.644L68.5987 177.499H86.087C86.087 177.499 88.0575 150.438 86.087 149.7C84.1165 148.962 49.6332 144.289 49.6332 144.289Z" fill="#2F2E41"/>
<path d="M74.3867 77.745C79.2839 77.745 83.2538 73.78 83.2538 68.889C83.2538 63.9979 79.2839 60.033 74.3867 60.033C69.4895 60.033 65.5195 63.9979 65.5195 68.889C65.5195 73.78 69.4895 77.745 74.3867 77.745Z" fill="#FFB8B8"/>
<path d="M112.688 144.536L99.1408 119.936L91.2578 107.144L100.618 102.961L105.791 113.047C105.791 113.047 112.688 123.133 114.412 131.498C116.136 139.862 117.86 143.798 117.86 143.798L112.688 144.536Z" fill="#FFB8B8"/>
<path d="M38.0545 137.401L58.2521 119.689L57.2679 105.421H51.6027L49.8776 112.801L33.6211 134.203L38.0545 137.401Z" fill="#FFB8B8"/>
<path d="M64.1641 82.0508C64.1641 82.0508 71.4793 85.1137 76.9349 81.3682C76.9349 81.3682 90.2731 83.5273 91.012 84.2649C91.7509 85.0024 90.2731 107.143 90.2731 107.143L87.3177 119.689C87.3177 119.689 91.5051 138.878 85.3472 143.798L86.5788 150.44C86.5788 150.44 59.2382 152.408 48.4004 145.766L50.3705 139.123L55.5431 118.213L52.341 89.185C52.341 89.185 54.8033 82.5428 64.1641 82.0508Z" fill="#E4E4E4"/>
<path d="M84.7314 85.3716L91.1356 84.3884C91.1356 84.3884 94.3377 84.8804 97.2935 91.0306C100.249 97.1808 103.451 105.299 103.451 105.299L92.3674 110.219L83.2539 95.9507L84.7314 85.3716Z" fill="#E4E4E4"/>
<path d="M53.8195 87.9546L52.3416 89.1846C52.3416 89.1846 50.3711 96.3188 50.3711 101.239V107.881L59.2384 108.865L53.8195 87.9546Z" fill="#E4E4E4"/>
<path d="M65.5208 71.2927C65.5208 71.2927 64.3154 69.9927 64.4375 68.3653C64.5179 67.4395 64.4587 66.507 64.2617 65.5988C64.2617 65.5988 64.6391 62.9352 65.1961 61.3912C65.7532 59.8471 65.2835 59.3099 67.6781 58.467C70.0727 57.6241 68.5482 54.576 75.6078 57.0058C75.8763 57.2766 76.2191 57.4618 76.5929 57.5382C76.9667 57.6146 77.3549 57.5787 77.7083 57.435C79.0117 56.9582 79.7972 58.7466 79.7972 58.7466C79.7972 58.7466 80.6101 58.0803 81.0663 58.773C81.5225 59.4656 83.7288 57.8871 84.5383 62.9257C85.3478 67.9642 82.57 72.4576 82.57 72.4576C82.57 72.4576 82.1802 64.3947 77.5954 64.2484C73.0106 64.102 67.8257 62.3678 67.1826 65.763C66.5395 69.1583 65.5208 71.2927 65.5208 71.2927Z" fill="#2F2E41"/>
<path d="M34.8233 141.169C36.9338 141.169 38.6447 139.461 38.6447 137.353C38.6447 135.245 36.9338 133.536 34.8233 133.536C32.7128 133.536 31.002 135.245 31.002 137.353C31.002 139.461 32.7128 141.169 34.8233 141.169Z" fill="#FFB8B8"/>
<path d="M7.27518 163.13L70.2117 150.583L64.9521 124.268L2.01562 136.814L7.27518 163.13Z" fill="white"/>
<path d="M70.7264 150.926L6.9312 163.645L1.5 136.471L65.2952 123.753L70.7264 150.926ZM7.61862 162.616L69.6966 150.24L64.608 124.781L2.53025 137.158L7.61862 162.616Z" fill="#E4E4E4"/>
<path d="M27.7958 154.766L27.77 154.777C27.5647 154.861 27.3567 154.941 27.143 155.011C27.0712 155.035 26.9968 155.058 26.9246 155.08C26.8525 155.102 26.7779 155.124 26.7032 155.145C26.5816 155.18 26.4572 155.211 26.3321 155.239C26.2785 155.253 26.2221 155.265 26.1681 155.277L26.1356 155.283C26.0686 155.298 26.0015 155.312 25.934 155.324L25.7594 155.354C25.727 155.361 25.6949 155.366 25.6633 155.37C24.2754 155.588 22.8561 155.488 21.5123 155.079C20.1685 154.67 18.9351 153.962 17.9048 153.008C16.8745 152.054 16.0742 150.879 15.5641 149.572C15.0539 148.264 14.8472 146.858 14.9594 145.46C15.0716 144.061 15.4999 142.706 16.212 141.496C16.9242 140.287 17.9016 139.254 19.0708 138.477C20.2401 137.699 21.5707 137.196 22.9626 137.005C24.3545 136.815 25.7715 136.943 27.107 137.378C25.8983 138.469 24.9978 139.857 24.4959 141.405C23.9939 142.952 23.908 144.605 24.2468 146.196C24.5857 147.787 25.3373 149.261 26.4264 150.471C27.5156 151.681 28.9039 152.583 30.4523 153.088C29.6694 153.795 28.7711 154.363 27.7964 154.767L27.7958 154.766Z" fill="#5534A5"/>
<path d="M41.0826 150.046C41.4888 150.249 41.9096 150.422 42.3417 150.562C41.1321 151.656 39.654 152.412 38.0575 152.751L37.9406 152.776C36.5468 153.055 35.1074 153.011 33.7332 152.648C32.3589 152.285 31.0865 151.611 30.0137 150.679C28.9409 149.748 28.0965 148.583 27.5453 147.274C26.9941 145.965 26.7509 144.548 26.8344 143.13C26.9179 141.713 27.3258 140.334 28.0269 139.098C28.7279 137.863 29.7033 136.805 30.8781 136.006C32.0528 135.206 33.3955 134.686 34.803 134.486C36.2104 134.286 37.645 134.412 38.9964 134.852C37.8697 135.864 37.0081 137.135 36.487 138.555C35.9658 139.976 35.801 141.502 36.0068 143.001C36.2126 144.5 36.7828 145.926 37.6676 147.154C38.5524 148.382 39.7249 149.375 41.0826 150.046Z" fill="#5534A5"/>
<path d="M57.0997 139.218C57.482 141.013 57.3227 142.882 56.6418 144.587C55.9609 146.292 54.7891 147.757 53.2744 148.797C51.7598 149.837 49.9705 150.405 48.1326 150.429C46.2948 150.453 44.491 149.933 42.9494 148.933C41.4078 147.934 40.1976 146.5 39.4719 144.813C38.7462 143.127 38.5375 141.263 38.8722 139.458C39.207 137.653 40.0701 135.988 41.3525 134.673C42.6349 133.358 44.2789 132.452 46.0767 132.07C47.2704 131.817 48.5024 131.8 49.7023 132.022C50.9023 132.244 52.0468 132.7 53.0703 133.364C54.0939 134.028 54.9766 134.886 55.6679 135.891C56.3593 136.895 56.8458 138.026 57.0997 139.218Z" fill="#5534A5"/>
<path d="M53.2075 147.5C53.2954 147.911 53.3413 148.329 53.3446 148.75C52.3213 149.465 51.1643 149.967 49.9426 150.227C48.7208 150.486 47.4593 150.498 46.233 150.26C46.0649 149.875 45.9362 149.474 45.8491 149.063C45.3943 146.927 46.0991 144.891 47.47 143.97C46.8176 143.846 46.2285 143.5 45.8025 142.991C45.3765 142.482 45.1399 141.842 45.133 141.178C45.126 140.515 45.3491 139.87 45.7643 139.352C46.1795 138.834 46.7612 138.476 47.4108 138.338C48.0604 138.2 48.7378 138.291 49.328 138.595C49.9182 138.899 50.3849 139.398 50.6488 140.007C50.9126 140.615 50.9575 141.297 50.7757 141.934C50.594 142.572 50.1967 143.128 49.6515 143.507C51.2797 143.791 52.7528 145.364 53.2075 147.5Z" fill="white"/>
<path d="M41.0822 150.046L41.0882 150.074C41.1664 150.59 41.2018 151.112 41.1941 151.633C40.2315 152.308 39.1555 152.502 37.9403 152.776L37.8235 152.801C36.6019 153.062 35.3401 153.074 34.114 152.834C34.0974 152.799 34.0829 152.763 34.0706 152.726C33.9225 152.375 33.8085 152.01 33.7302 151.637C33.2755 149.502 33.9803 147.466 35.3512 146.544C34.6988 146.42 34.1095 146.074 33.6835 145.565C33.2574 145.057 33.0208 144.416 33.0138 143.753C33.0069 143.09 33.23 142.444 33.6452 141.927C34.0605 141.409 34.6424 141.051 35.292 140.913C35.5121 140.866 35.7372 140.845 35.9623 140.852C35.7824 142.722 36.1757 144.603 37.0901 146.245C38.0045 147.887 39.3968 149.213 41.0825 150.047L41.0822 150.046Z" fill="white"/>
<path d="M29.4233 152.683C29.4971 153.053 29.5355 153.429 29.5382 153.806C28.8026 154.322 27.996 154.727 27.1434 155.011C27.0716 155.035 26.9972 155.058 26.925 155.079C26.8529 155.101 26.7783 155.124 26.7036 155.144C26.582 155.179 26.4576 155.21 26.3325 155.239C26.3069 155.247 26.2789 155.253 26.2528 155.258L26.136 155.283C26.0689 155.297 26.0019 155.312 25.9344 155.324L25.7598 155.354C25.7274 155.361 25.6953 155.366 25.6637 155.37C24.5899 155.543 23.4939 155.525 22.4265 155.317C22.4237 155.312 22.4219 155.307 22.4211 155.302C22.4063 155.272 22.3936 155.24 22.3831 155.208C22.235 154.857 22.121 154.492 22.0427 154.119C21.588 151.984 22.2928 149.948 23.6637 149.026C23.0113 148.902 22.422 148.556 21.996 148.048C21.5699 147.539 21.3333 146.898 21.3263 146.235C21.3194 145.572 21.5425 144.926 21.9577 144.409C22.373 143.891 22.9549 143.533 23.6045 143.395C23.7604 143.362 23.9188 143.342 24.0781 143.335C23.8844 145.255 24.2953 147.187 25.2534 148.863C26.2116 150.539 27.6693 151.874 29.4234 152.683L29.4233 152.683Z" fill="white"/>
<path d="M125.172 105.083C125.172 105.293 125.151 105.503 125.109 105.709C124.534 105.952 123.916 106.078 123.291 106.078C122.667 106.078 122.048 105.952 121.473 105.709C121.431 105.503 121.41 105.293 121.41 105.083C121.41 103.991 121.967 103.069 122.733 102.76C122.427 102.632 122.175 102.401 122.02 102.108C121.864 101.815 121.815 101.477 121.881 101.152C121.947 100.827 122.123 100.534 122.38 100.324C122.637 100.114 122.959 99.9995 123.291 99.9995C123.623 99.9995 123.945 100.114 124.202 100.324C124.459 100.534 124.635 100.827 124.701 101.152C124.767 101.477 124.718 101.815 124.562 102.108C124.407 102.401 124.155 102.632 123.849 102.76C124.616 103.069 125.172 103.991 125.172 105.083Z" fill="#5534A5"/>
<path d="M125.172 124.055C125.172 124.265 125.151 124.474 125.109 124.68C124.534 124.924 123.916 125.049 123.291 125.049C122.667 125.049 122.048 124.924 121.473 124.68C121.431 124.474 121.41 124.265 121.41 124.055C121.41 122.963 121.967 122.04 122.733 121.732C122.427 121.603 122.175 121.373 122.02 121.08C121.864 120.786 121.815 120.449 121.881 120.123C121.947 119.798 122.123 119.506 122.38 119.296C122.637 119.086 122.959 118.971 123.291 118.971C123.623 118.971 123.945 119.086 124.202 119.296C124.459 119.506 124.635 119.798 124.701 120.123C124.767 120.449 124.718 120.786 124.562 121.08C124.407 121.373 124.155 121.603 123.849 121.732C124.616 122.04 125.172 122.963 125.172 124.055Z" fill="#5534A5"/>
<path d="M125.172 142.648C125.172 142.858 125.151 143.068 125.109 143.274C124.534 143.517 123.916 143.643 123.291 143.643C122.667 143.643 122.048 143.517 121.473 143.274C121.431 143.068 121.41 142.858 121.41 142.648C121.41 141.557 121.967 140.634 122.733 140.325C122.427 140.197 122.175 139.966 122.02 139.673C121.864 139.38 121.815 139.042 121.881 138.717C121.947 138.392 122.123 138.1 122.38 137.89C122.637 137.679 122.959 137.565 123.291 137.565C123.623 137.565 123.945 137.679 124.202 137.89C124.459 138.1 124.635 138.392 124.701 138.717C124.767 139.042 124.718 139.38 124.562 139.673C124.407 139.966 124.155 140.197 123.849 140.325C124.616 140.634 125.172 141.557 125.172 142.648Z" fill="#5534A5"/>
<path d="M115.509 149.02C117.439 149.02 119.003 147.458 119.003 145.531C119.003 143.604 117.439 142.042 115.509 142.042C113.58 142.042 112.016 143.604 112.016 145.531C112.016 147.458 113.58 149.02 115.509 149.02Z" fill="#FFB8B8"/>
</svg>
