<svg width="180" height="200" viewBox="0 0 180 200" fill="none" xmlns="http://www.w3.org/2000/svg">
<g clip-path="url(#clip0_713_3405)">
<path d="M177.952 35.7525H2.06722C1.80602 35.7522 1.5556 35.6485 1.3709 35.4641C1.1862 35.2797 1.08232 35.0297 1.08203 34.7689V28.9835C1.08232 28.7228 1.1862 28.4728 1.3709 28.2884C1.5556 28.104 1.80602 28.0003 2.06722 28H177.952C178.213 28.0003 178.464 28.104 178.648 28.2884C178.833 28.4728 178.937 28.7228 178.937 28.9835V34.7689C178.937 35.0297 178.833 35.2797 178.648 35.4641C178.464 35.6485 178.213 35.7522 177.952 35.7525Z" fill="#E4E4E4"/>
<path d="M6.78936 32.9903C7.56186 32.9903 8.18809 32.3651 8.18809 31.5939C8.18809 30.8227 7.56186 30.1975 6.78936 30.1975C6.01686 30.1975 5.39062 30.8227 5.39062 31.5939C5.39062 32.3651 6.01686 32.9903 6.78936 32.9903Z" fill="white"/>
<path d="M12.098 32.9903C12.8705 32.9903 13.4967 32.3651 13.4967 31.5939C13.4967 30.8227 12.8705 30.1975 12.098 30.1975C11.3255 30.1975 10.6992 30.8227 10.6992 31.5939C10.6992 32.3651 11.3255 32.9903 12.098 32.9903Z" fill="white"/>
<path d="M17.4105 32.9903C18.183 32.9903 18.8092 32.3651 18.8092 31.5939C18.8092 30.8227 18.183 30.1975 17.4105 30.1975C16.638 30.1975 16.0117 30.8227 16.0117 31.5939C16.0117 32.3651 16.638 32.9903 17.4105 32.9903Z" fill="white"/>
<path d="M176.614 171.999H98.3846C97.7514 171.999 97.1443 171.747 96.6965 171.3C96.2487 170.853 95.9968 170.247 95.9961 169.615V114.41C95.9968 113.778 96.2487 113.172 96.6965 112.725C97.1443 112.278 97.7514 112.026 98.3846 112.026H176.614C177.247 112.026 177.854 112.278 178.302 112.725C178.749 113.172 179.001 113.778 179.002 114.41V169.615C179.001 170.247 178.749 170.853 178.302 171.3C177.854 171.747 177.247 171.999 176.614 171.999Z" fill="#E6E6E6"/>
<path d="M173.357 115.277H101.644C101.01 115.278 100.403 115.529 99.9547 115.977C99.5067 116.424 99.2547 117.03 99.2539 117.663V166.363C99.2547 166.996 99.5067 167.602 99.9547 168.049C100.403 168.497 101.01 168.748 101.644 168.749H173.357C173.99 168.748 174.597 168.496 175.045 168.049C175.492 167.602 175.744 166.996 175.744 166.363V117.663C175.744 117.03 175.492 116.424 175.045 115.977C174.597 115.53 173.99 115.278 173.357 115.277Z" fill="white"/>
<path d="M144.034 138.428C145.224 133.253 141.987 128.095 136.803 126.907C131.619 125.718 126.452 128.95 125.262 134.125C124.072 139.3 127.31 144.459 132.493 145.647C137.677 146.835 142.844 143.603 144.034 138.428Z" fill="#9E616A"/>
<path d="M162.346 159.696C161.992 158.025 161.19 156.482 160.027 155.23C158.864 153.979 157.382 153.065 155.74 152.588L155.732 152.584C155.419 152.43 155.087 152.316 154.745 152.246L143.172 149.882L140.853 147.398L130.987 148.027L129.957 150.884L118.623 155.912L118.811 155.781C118.326 155.975 117.853 156.201 117.397 156.457L117.34 156.483C117.013 156.629 116.71 156.822 116.439 157.056C113.557 159.053 111.653 162.259 111.582 165.833L111.283 168.749H164.271L162.346 159.696Z" fill="#5534A5"/>
<path d="M145.19 131.125C144.402 128.666 142.095 126.591 139.51 126.657C139.712 126.043 139.368 125.356 138.853 124.966C138.338 124.575 137.687 124.419 137.054 124.287C135.746 124.015 134.383 123.808 133.082 124.114C131.781 124.421 130.549 125.352 130.256 126.654C129.072 125.545 126.881 125.852 126.048 127.243C125.619 127.959 125.558 128.921 126.022 129.615C126.482 130.304 127.355 130.614 128.184 130.654C129.013 130.693 129.834 130.507 130.66 130.42C132.632 130.214 134.715 130.61 136.309 131.787C137.903 132.965 138.922 134.983 138.639 136.942C139.276 136.536 140.194 136.818 140.639 137.428C141.084 138.039 141.119 138.873 140.913 139.599C140.706 140.325 140.286 140.97 139.872 141.602C139.11 142.766 138.348 143.929 137.586 145.093L137.899 145.3C139.048 145.784 140.292 144.88 141.128 143.956C142.54 142.397 143.676 140.612 144.491 138.675C145.49 136.294 145.978 133.583 145.19 131.125Z" fill="#2F2E41"/>
<path d="M103.644 129.251H4.04116C3.23487 129.25 2.46187 128.93 1.89174 128.361C1.32161 127.792 1.00091 127.02 1 126.215V55.9262C1.00091 55.1212 1.32161 54.3495 1.89174 53.7804C2.46187 53.2112 3.23487 52.891 4.04116 52.8901H103.644C104.45 52.891 105.223 53.2112 105.793 53.7804C106.363 54.3495 106.684 55.1212 106.685 55.9262V126.215C106.684 127.02 106.363 127.792 105.793 128.361C105.223 128.93 104.45 129.25 103.644 129.251Z" fill="#E6E6E6"/>
<path d="M87.0335 35.6497H-4.2739C-5.0805 35.6507 -5.85377 35.971 -6.42413 36.5404C-6.99448 37.1098 -7.31537 37.8818 -7.31641 38.687V100.695C-7.31537 101.5 -6.99449 102.272 -6.42413 102.841C-5.85378 103.411 -5.0805 103.731 -4.2739 103.732H87.0335C87.8398 103.731 88.6128 103.41 89.1828 102.841C89.7528 102.272 90.0732 101.5 90.0737 100.695V38.687C90.0732 37.882 89.7528 37.1101 89.1828 36.5407C88.6128 35.9712 87.8398 35.6508 87.0335 35.6497Z" fill="white"/>
<path d="M66.9853 86.1295L66.8169 86.4326C68.3158 82.7446 66.9528 78.2001 64.2787 75.4192C61.6048 72.6384 57.8875 71.3671 54.2271 70.8627C51.5098 70.4883 48.6893 70.4991 46.1056 71.4927C42.364 72.9317 39.5054 76.2627 37.1187 79.7279C36.0269 81.3129 34.9536 83.1198 35.0623 85.1008C35.1633 86.9391 36.2563 88.4992 37.1515 90.0589C38.0467 91.6186 38.7942 93.5537 38.1518 95.256C37.7689 96.2704 36.9598 97.001 36.3033 97.8309C35.6468 98.6607 35.1067 99.7824 35.4238 100.824C35.6804 101.666 36.4522 102.22 37.246 102.404C38.0396 102.589 38.863 102.468 39.6668 102.347L60.5309 99.2003C61.9487 98.9864 63.2936 98.4335 64.451 97.5886C65.6084 96.7436 66.544 95.6318 67.178 94.3479C67.812 93.0641 68.1256 91.6461 68.092 90.2151C68.0585 88.7841 67.6788 87.3824 66.9853 86.1295Z" fill="#2F2E41"/>
<path d="M51.4626 99.0546C57.0964 99.0546 61.6635 94.4952 61.6635 88.8709C61.6635 83.2466 57.0964 78.6873 51.4626 78.6873C45.8288 78.6873 41.2617 83.2466 41.2617 88.8709C41.2617 94.4952 45.8288 99.0546 51.4626 99.0546Z" fill="#FFB9B9"/>
<path d="M76.9058 111.925C76.2457 110.481 75.2044 109.243 73.8936 108.344C72.5828 107.446 71.0519 106.92 69.4647 106.823L66.6218 106.652L66.6287 106.681L59.4016 102.341C59.5794 102.545 47.6461 102.97 47.6461 102.97L43.2184 106.783L41.3616 106.896C39.7744 106.992 38.2435 107.518 36.9327 108.416C35.6219 109.315 34.5807 110.553 33.9206 111.997L27.8906 125.184H39.9091L40.1879 123.986C40.4912 124.355 40.7853 124.73 41.0703 125.112H82.9357L76.9058 111.925Z" fill="#5534A5"/>
<path d="M61.137 79.4195C60.8737 78.0288 59.4529 77.3928 58.2357 77.0846C54.7048 76.1852 51.0319 75.9839 47.4237 76.4919C44.7934 76.8663 42.1006 77.6921 40.1921 79.7417C38.7036 81.3404 37.8029 83.6305 37.7328 85.9949C37.692 87.373 37.9388 88.807 38.6256 89.9675C39.3124 91.128 40.4831 91.9698 41.6915 91.9403L41.8139 92.3652C46.9354 91.6528 51.6928 88.4715 54.6891 83.7556C54.1267 85.7602 53.0076 87.565 51.4612 88.9615C54.9188 87.5802 57.9245 85.2677 60.1432 82.2816C60.749 81.4787 61.3373 80.4775 61.137 79.4195Z" fill="#2F2E41"/>
<path d="M172.744 30.633H166.63C166.57 30.6331 166.511 30.6216 166.456 30.599C166.401 30.5763 166.351 30.543 166.309 30.501C166.267 30.459 166.233 30.4091 166.21 30.3542C166.188 30.2993 166.176 30.2404 166.176 30.1809C166.176 30.1214 166.188 30.0625 166.21 30.0075C166.233 29.9526 166.267 29.9027 166.309 29.8607C166.351 29.8187 166.401 29.7854 166.456 29.7628C166.511 29.7401 166.57 29.7286 166.63 29.7288H172.744C172.864 29.7291 172.978 29.7769 173.063 29.8617C173.148 29.9464 173.195 30.0612 173.195 30.1809C173.195 30.3005 173.148 30.4153 173.063 30.5C172.978 30.5848 172.864 30.6326 172.744 30.633Z" fill="white"/>
<path d="M172.744 32.3283H166.63C166.57 32.3285 166.511 32.3169 166.456 32.2943C166.401 32.2716 166.351 32.2384 166.309 32.1964C166.267 32.1544 166.233 32.1045 166.21 32.0495C166.188 31.9946 166.176 31.9357 166.176 31.8762C166.176 31.8167 166.188 31.7578 166.21 31.7028C166.233 31.6479 166.267 31.598 166.309 31.556C166.351 31.514 166.401 31.4807 166.456 31.4581C166.511 31.4354 166.57 31.4239 166.63 31.4241H172.744C172.864 31.4244 172.978 31.4722 173.063 31.557C173.148 31.6417 173.195 31.7565 173.195 31.8762C173.195 31.9958 173.148 32.1106 173.063 32.1954C172.978 32.2801 172.864 32.3279 172.744 32.3283Z" fill="white"/>
<path d="M172.744 34.0238H166.63C166.57 34.024 166.511 34.0125 166.456 33.9898C166.401 33.9672 166.351 33.9339 166.309 33.8919C166.267 33.8499 166.233 33.8 166.21 33.7451C166.188 33.6901 166.176 33.6312 166.176 33.5717C166.176 33.5122 166.188 33.4533 166.21 33.3984C166.233 33.3435 166.267 33.2936 166.309 33.2516C166.351 33.2096 166.401 33.1763 166.456 33.1536C166.511 33.131 166.57 33.1194 166.63 33.1196H172.744C172.864 33.12 172.978 33.1678 173.063 33.2525C173.148 33.3373 173.195 33.4521 173.195 33.5717C173.195 33.6914 173.148 33.8062 173.063 33.8909C172.978 33.9757 172.864 34.0235 172.744 34.0238Z" fill="white"/>
</g>
<defs>
<clipPath id="clip0_713_3405">
<rect width="178" height="144" fill="white" transform="translate(1 28)"/>
</clipPath>
</defs>
</svg>
