<svg xmlns="http://www.w3.org/2000/svg" width="1920" height="1080.514" viewBox="0 0 1920 1080.514"><g transform="translate(0 0.002)"><rect width="1920" height="1080" fill="#2d2d2f"/><path d="M-18766.607-1271.488v0h-325.3c124.5-104.4,195.91-257.122,195.91-419.009a548.867,548.867,0,0,0-11.023-109.556,543.434,543.434,0,0,0-31.625-102.147,547.4,547.4,0,0,0-50.037-92.555,552.015,552.015,0,0,0-66.271-80.778,545.124,545.124,0,0,0-153.258-82.094A544.167,544.167,0,0,0-19385.7-2187.2c-140.633,0-274.342,53.5-376.494,150.655v-92.039c9.1-8.323,18.557-16.509,28.125-24.33-9.525,6.023-18.988,12.424-28.125,19.029v-91.346c6.445-4.706,13.053-9.349,19.641-13.8,17.6-11.885,35.951-23.032,54.551-33.133,18.752-10.188,38.205-19.56,57.822-27.854,19.814-8.383,40.262-15.866,60.773-22.242,20.748-6.454,42.078-11.939,63.393-16.3a662.425,662.425,0,0,1,65.682-10.02,671.483,671.483,0,0,1,67.629-3.42,671.59,671.59,0,0,1,67.639,3.42,662.567,662.567,0,0,1,65.682,10.02c21.344,4.369,42.672,9.854,63.393,16.3,20.559,6.392,41.006,13.876,60.777,22.242,19.57,8.276,39.027,17.648,57.828,27.854,18.631,10.122,36.979,21.27,54.535,33.133a666.668,666.668,0,0,1,93.992,76.9,668.049,668.049,0,0,1,60.91,53.875,666.136,666.136,0,0,1,80.777,97.9c11.867,17.568,23.014,35.92,33.133,54.546,10.164,18.708,19.535,38.162,27.854,57.823,8.369,19.776,15.852,40.225,22.242,60.777,6.459,20.741,11.943,42.07,16.3,63.394a661.584,661.584,0,0,1,10.029,65.682,671.759,671.759,0,0,1,3.416,67.633,671.762,671.762,0,0,1-3.416,67.633,661.622,661.622,0,0,1-10.029,65.682c-4.355,21.324-9.84,42.653-16.3,63.394-6.385,20.532-13.867,40.98-22.242,60.777-8.316,19.66-17.689,39.114-27.854,57.823-9.941,18.3-20.9,36.37-32.566,53.7Z" transform="translate(19762.199 2352)" fill="rgba(180,180,180,0.55)" opacity="0.03"/></g></svg>