<svg width="128" height="128" viewBox="0 0 128 128" fill="none" xmlns="http://www.w3.org/2000/svg">
<path d="M26.6667 16L10.6667 32M117.333 32L101.333 16M32.0001 101.333L21.3334 112M96.0001 101.333L106.667 112M48.0001 72L58.6667 82.6667L82.6668 58.6667M64.0001 112C75.316 112 86.1684 107.505 94.17 99.5032C102.172 91.5017 106.667 80.6492 106.667 69.3333C106.667 58.0174 102.172 47.165 94.17 39.1634C86.1684 31.1619 75.316 26.6667 64.0001 26.6667C52.6842 26.6667 41.8317 31.1619 33.8302 39.1634C25.8286 47.165 21.3334 58.0174 21.3334 69.3333C21.3334 80.6492 25.8286 91.5017 33.8302 99.5032C41.8317 107.505 52.6842 112 64.0001 112Z" stroke="white" stroke-width="10.6667" stroke-linecap="round" stroke-linejoin="round"/>
</svg>
