<svg width="184" height="100" viewBox="0 0 184 100" fill="none" xmlns="http://www.w3.org/2000/svg">
<path d="M44.999 60.9989L91.9481 52.8959C92.9315 52.7261 93.5296 53.9434 92.7943 54.6181L71.577 74.0867C71.5032 74.1544 71.4228 74.2122 71.3278 74.2438C69.3181 74.9122 62.3674 72.1847 58.2415 70.3393C57.6755 70.0861 57.0155 70.395 56.8431 70.9907C56.0164 73.8464 55.0795 76.4551 54.5041 77.9429C54.3334 78.3842 53.8624 78.5664 53.6511 78.143C52.8026 76.4426 52.6537 71.2577 52.7055 67.9095C52.7135 67.3969 52.3373 66.9616 51.8408 66.8343C48.902 66.0806 45.158 63.5953 43.5195 62.3346" stroke="white" stroke-width="1.5" stroke-linecap="round"/>
<path d="M57.6875 69.415C62.7898 66.9825 75.6974 60.8902 86.5099 55.9809" stroke="white" stroke-width="1.5" stroke-linecap="round"/>
<path d="M53.7812 78.6968L63.3073 72.5903" stroke="white" stroke-width="1.5" stroke-linecap="round"/>
<path d="M55.9844 64.7742L69.1743 60.1333" stroke="white" stroke-width="1.5" stroke-linecap="round"/>
<path d="M48.5889 86.903C43.7444 89.5207 30.5192 92.3179 16.3744 82.5655" stroke="white" stroke-width="1.5" stroke-linecap="round"/>
<path d="M41.4141 80.9012C33.3382 79.6953 14.1493 72.4843 2.00039 53.2868" stroke="white" stroke-width="1.5" stroke-linecap="round"/>
<path d="M110.974 39.2506C107.684 59.5389 117.725 77.6927 132.958 80.1632C148.191 82.6338 163.455 68.5839 166.746 48.2956C170.036 28.0073 159.995 9.85346 144.762 7.38292C129.529 4.91237 114.265 18.9622 110.974 39.2506Z" stroke="white" stroke-width="1.5"/>
<path d="M117.352 39.9117C116.095 47.658 117.292 55.0198 120.207 60.6549C123.122 66.2902 127.724 70.1547 133.286 71.0567C138.848 71.9588 144.436 69.7469 148.982 65.3218C153.529 60.8967 156.991 54.2906 158.247 46.5442C159.504 38.7978 158.307 31.436 155.392 25.8009C152.477 20.1657 147.875 16.3012 142.313 15.3991C136.751 14.497 131.163 16.7089 126.617 21.1341C122.07 25.5592 118.608 32.1653 117.352 39.9117Z" stroke="white" stroke-width="1.5"/>
<ellipse cx="10.8208" cy="14.5903" rx="10.8208" ry="14.5903" transform="matrix(-0.987103 -0.160089 -0.160089 0.987103 148.84 30.8688)" fill="white"/>
<path d="M160.684 76.4988C141.144 95.3067 119.405 84.3151 114.764 72.4686C116.831 84.2853 130.833 90.9895 142.487 91.2762C155.311 91.2762 171.31 80.651 175.706 71.0028C191.886 35.4983 167.238 10.5086 154.944 7.00761C178.027 17.8771 181.686 56.2849 160.684 76.4988Z" fill="white"/>
</svg>
