<svg width="266" height="253" viewBox="0 0 266 253" fill="none" xmlns="http://www.w3.org/2000/svg">
<path d="M15.5972 116.946C17.0337 116.946 18.1982 115.781 18.1982 114.345C18.1982 112.908 17.0337 111.744 15.5972 111.744C14.1606 111.744 12.9961 112.908 12.9961 114.345C12.9961 115.781 14.1606 116.946 15.5972 116.946Z" stroke="black" stroke-width="3"/>
<path d="M20.6965 114.61C25.943 114.07 34.1751 114.708 35.1481 118.766C36.1211 122.825 32.4056 124.309 30.4263 124.544C22.8906 125.742 12.8984 125.178 12.8984 118.766" stroke="black" stroke-width="3" stroke-linecap="round"/>
<path d="M18.7995 120.747C19.131 120.747 19.3997 120.479 19.3997 120.147C19.3997 119.816 19.131 119.547 18.7995 119.547C18.468 119.547 18.1992 119.816 18.1992 120.147C18.1992 120.479 18.468 120.747 18.7995 120.747Z" stroke="black" stroke-width="3"/>
<path d="M24.6037 120.147C24.6037 120.439 24.332 120.747 23.9034 120.747C23.4748 120.747 23.2031 120.439 23.2031 120.147C23.2031 119.856 23.4748 119.547 23.9034 119.547C24.332 119.547 24.6037 119.856 24.6037 120.147Z" stroke="black" stroke-width="3"/>
<path d="M29.0026 120.747C29.3341 120.747 29.6028 120.479 29.6028 120.147C29.6028 119.816 29.3341 119.547 29.0026 119.547C28.6711 119.547 28.4023 119.816 28.4023 120.147C28.4023 120.479 28.6711 120.747 29.0026 120.747Z" stroke="black" stroke-width="3"/>
<path d="M212.979 43.7157C214.305 43.7157 215.38 42.6407 215.38 41.3147C215.38 39.9887 214.305 38.9137 212.979 38.9137C211.653 38.9137 210.578 39.9887 210.578 41.3147C210.578 42.6407 211.653 43.7157 212.979 43.7157Z" stroke="black" stroke-width="3"/>
<path d="M217.696 39.2138C219.456 39.2138 224.483 39.2138 226.848 39.2138C228.764 39.2138 229.686 39.6376 229.686 42.6036C229.686 45.4854 229.662 49.2183 229.686 50.725C229.702 51.7842 229.175 52.9565 227.416 53.126C225.656 53.2954 218.595 53.1966 215.284 53.126C214.055 53.126 211.879 52.4289 211.879 49.5949V46.417" stroke="black" stroke-width="3" stroke-linecap="round"/>
<path d="M216.48 44.2159L220.882 47.2172" stroke="black" stroke-width="3" stroke-linecap="round"/>
<path d="M220.883 47.2171L228.886 39.8141" stroke="black" stroke-width="3" stroke-linecap="round"/>
<path d="M222.91 45.4164L225.097 47.6173L227.284 49.8182" stroke="black" stroke-width="3" stroke-linecap="round"/>
<path d="M214.879 49.8182L218.106 45.4164" stroke="black" stroke-width="3" stroke-linecap="round"/>
<path d="M230.576 193.774C229.912 194.44 229.338 195.014 228.943 195.409C227.914 196.44 226.833 195.839 226.421 195.409L219.853 189.081C218.883 188.179 218.064 187.289 214.399 183.793C214.024 183.417 213.429 182.458 214.053 181.626C214.676 180.794 218.179 176.425 219.853 174.344C220.361 173.609 221.464 172.734 222.871 174.042C224.084 175.169 228.239 179.07 231.789 182.036" stroke="black" stroke-width="3" stroke-linecap="round"/>
<path d="M219.781 174.569C219.988 178.365 221.381 184.475 228.585 186.774" stroke="black" stroke-width="3" stroke-linecap="round"/>
<path d="M238.049 187.068C237.719 186.229 235.184 185.252 234.226 187.068C233.239 188.942 233.994 190.52 234.636 190.83C235.456 191.225 236.661 191.432 237.933 189.157" stroke="black" stroke-width="3" stroke-linecap="round"/>
<path d="M238.262 185.9C238.188 186.338 238.112 186.523 238.052 187.068C237.974 187.779 237.924 188.524 237.936 189.157C237.96 190.269 238.18 191.036 238.804 190.666C240.056 189.923 240.733 189.314 240.913 188.693C241.213 187.648 241.215 185.648 239.526 184.341C237.489 182.762 235.192 182.805 233.386 184.341C231.592 185.865 231.101 188.305 231.199 189.571C231.307 190.956 232.34 193.93 235.713 193.977C239.084 194.023 240.911 192.205 241.191 191.354" stroke="black" stroke-width="3" stroke-linecap="round"/>
<path d="M60.5154 162.078C59.7961 159.301 57.4075 154.18 53.6091 155.911C49.8106 157.642 52.0263 160.744 53.6091 162.078C54.6742 162.799 56.9639 163.571 57.6018 160.888C58.2396 158.205 55.5515 157.101 54.796 158.291C54.3977 158.76 53.9477 159.936 55.3356 160.888" stroke="black" stroke-width="3" stroke-linecap="round"/>
<path d="M78.6269 28.8223C78.4652 27.9107 79.419 27.2093 80.241 27.6355C81.444 28.2591 82.8769 28.2509 84.0726 27.6135C84.8897 27.178 85.8515 27.8684 85.7002 28.7818C85.4788 30.1187 85.9294 31.4789 86.9051 32.4192C87.5718 33.0617 87.2124 34.1897 86.2969 34.3281C84.9571 34.5306 83.8027 35.3795 83.21 36.5981C82.8049 37.4307 81.621 37.4374 81.2065 36.6095C80.5999 35.3978 79.4358 34.5623 78.0937 34.3751C77.1767 34.2472 76.8044 33.1233 77.4637 32.4732C78.4286 31.5218 78.8636 30.1566 78.6269 28.8223Z" stroke="black" stroke-width="3"/>
<path d="M139.25 116.929V133.936" stroke="black" stroke-width="3" stroke-linecap="round"/>
<path d="M152.055 118.93V135.136" stroke="black" stroke-width="3" stroke-linecap="round"/>
<path d="M122.105 192.577C117.877 193.103 107.978 195.045 105.81 198.994C105.16 200.178 104.405 203.061 106.591 205.114C108.776 207.167 112.771 206.628 114.494 206.101L124.545 202.054" stroke="black" stroke-width="3" stroke-linecap="round"/>
<path d="M179.724 162.78C171.834 163.034 136.988 179.904 120.551 188.307C119.151 197.567 125.058 204.216 128.186 206.383C144.57 201.626 178.197 191.986 181.633 191.478C185.069 190.971 188.473 188.519 189.745 187.356C198.653 176.955 192.078 168.118 187.678 165C184.545 162.78 181.84 162.712 179.724 162.78Z" fill="black"/>
<path d="M105.82 160.42C111.41 160.793 135.796 170.244 147.35 175.197L120.925 188.402C109.099 191.87 101.834 190.727 99.6159 189.98C86.8092 183.81 91.8268 168.588 96.9151 162.949C100.195 160.158 103.817 160.286 105.82 160.42Z" fill="black"/>
<path d="M168.036 194.378C171.53 196.057 173.419 198.256 174.377 200.06C176.43 204.758 172.744 207.582 168.536 206.254C166.211 205.521 165.662 205.029 164.431 204.007C163.806 203.489 160.887 200.777 157.555 197.574" stroke="black" stroke-width="3" stroke-linecap="round"/>
<path d="M101.405 122.535L103.213 155.398C103.505 160.699 107.889 164.848 113.198 164.848H172.466C177.988 164.848 182.466 160.371 182.466 154.848V121.162C182.466 115.586 177.906 111.088 172.331 111.163L111.255 111.986C105.57 112.063 101.092 116.858 101.405 122.535Z" fill="black"/>
<rect x="103.234" y="165.549" width="79.2325" height="3.80156" rx="1.90078" fill="black"/>
<path d="M152.254 89.9176C159.223 89.8176 174.563 95.1197 180.666 111.827" stroke="black" stroke-width="3" stroke-linecap="round"/>
<path d="M136.95 89.8176C121.043 92.9189 113.44 99.7217 107.438 112.827" stroke="black" stroke-width="3" stroke-linecap="round"/>
<path d="M190.168 105.641L194.07 99.1384" stroke="black" stroke-width="3" stroke-linecap="round"/>
<path d="M194.07 107.442L199.372 103.04" stroke="black" stroke-width="3" stroke-linecap="round"/>
<path d="M194.871 110.443C195.905 110.843 198.252 111.223 199.373 109.543" stroke="black" stroke-width="3" stroke-linecap="round"/>
<path d="M92.5298 104.424L86.5273 98.2211" stroke="black" stroke-width="3" stroke-linecap="round"/>
<path d="M98.6327 103.423L95.0312 94.1194" stroke="black" stroke-width="3" stroke-linecap="round"/>
<path d="M91.0292 107.925L86.5273 106.224" stroke="black" stroke-width="3" stroke-linecap="round"/>
<path d="M184.668 123.048C188.369 128.851 192.571 135.753 184.668 148.742" stroke="black" stroke-width="3" stroke-linecap="round"/>
<path d="M152.353 90.4179C153.253 87.8168 152.433 86.0664 151.633 85.733C146.831 90.1348 139.548 88.5008 136.847 85.833C135.886 86.7134 136.446 89.3174 136.847 90.1177C142.049 95.8801 149.452 92.6521 152.353 90.4179Z" fill="black"/>
<path d="M131.047 106.424L131.45 105.805C133.715 102.329 138.124 100.941 141.972 102.492V102.492C145.427 103.886 149.386 102.919 151.811 100.09L154.957 96.4203" stroke="black" stroke-width="3" stroke-linecap="round"/>
<path d="M99.7343 126.733C98.2336 130.268 96.4529 138.838 101.335 144.84" stroke="black" stroke-width="3" stroke-linecap="round"/>
<path d="M166.148 49.5222C163.947 57.4254 162.847 58.1257 159.645 61.6272C159.645 58.1667 159.051 52.3584 159.051 49.9399C148.569 49.9399 139.722 45.6608 136.61 43.5213C136.721 50.7771 129.919 55.5212 129.919 55.5212C129.919 55.5212 130.895 58.4514 131.452 65.0094C131.898 70.2559 130.616 69.2419 129.919 68.0792C127.912 61.6048 124.622 63.335 123.228 65.0094C106.124 37.2171 132.428 31.8471 137.446 32.3587C141.237 29.1215 146.525 26.5847 150.242 26.2126C163.647 24.8707 169.717 36.7073 166.148 49.5222Z" fill="black"/>
<path d="M130.152 73.0258C131.953 84.0194 144.04 91.9244 152.762 83.0189C161.484 74.1135 159.738 57.8123 158.806 50.2055" stroke="black" stroke-width="3" stroke-linecap="round"/>
<path d="M123.03 64.3282C121.93 67.0294 122.962 73.0148 130.153 73.0148" stroke="black" stroke-width="3" stroke-linecap="round"/>
<path d="M126.203 65.8119C126.044 66.3899 126.171 67.7593 127.953 68.613" stroke="black" stroke-width="3" stroke-linecap="round"/>
<path d="M158.566 71.6142C160.913 70.6357 162.568 67.0123 161.931 61.21" stroke="black" stroke-width="3" stroke-linecap="round"/>
<path d="M145.359 78.217C147.66 78.8172 147.515 77.1654 149.261 75.7159" stroke="black" stroke-width="3" stroke-linecap="round"/>
<circle cx="152.227" cy="64.2412" r="1.50062" fill="black"/>
<circle cx="139.024" cy="64.4412" r="1.50062" fill="black"/>
<path d="M135.758 61.0099C136.074 60.0801 137.436 58.3601 140.36 58.9179" stroke="black" stroke-width="3" stroke-linecap="round"/>
<path d="M149.762 59.2092C150.459 58.6052 152.356 57.7597 154.364 59.2092" stroke="black" stroke-width="3" stroke-linecap="round"/>
<path d="M144.923 63.4109C144.69 65.3865 144.531 69.3929 145.762 69.6134" stroke="black" stroke-width="3" stroke-linecap="round"/>
<path d="M202.574 154.161C229.285 161.564 277.265 170.067 255.496 144.857C248.626 138.088 238.489 130.151 222.182 123.148" stroke="black" stroke-width="3" stroke-linecap="round"/>
<path d="M231.485 102.437C248.092 91.7996 274.843 69.824 248.993 67.0228C223.142 64.2217 199.539 73.9256 190.969 79.1278" stroke="black" stroke-width="3" stroke-linecap="round"/>
<path d="M167.158 86.8921C178.163 63.1823 195.97 14.0422 179.163 7.15933C158.155 -1.4442 130.943 23.366 108.734 82.5903" stroke="black" stroke-width="3" stroke-linecap="round"/>
<path d="M84.2622 66.4677C59.6521 52.9955 9.41146 32.2736 5.32979 57.1639C1.24811 82.0541 51.1153 102.816 76.559 110.086" stroke="black" stroke-width="3" stroke-linecap="round"/>
<path d="M83.0922 123.148C47.1774 141.456 2.17683 166.775 27.1031 179.972C37.3071 185.374 63.4179 182.073 75.4228 177.17" stroke="black" stroke-width="3" stroke-linecap="round"/>
<ellipse cx="141.848" cy="242.998" rx="49.5203" ry="6.00246" fill="black"/>
</svg>
