<svg width="265" height="252" viewBox="0 0 265 252" fill="none" xmlns="http://www.w3.org/2000/svg">
<path d="M15.3784 116.446C16.8149 116.446 17.9795 115.281 17.9795 113.845C17.9795 112.408 16.8149 111.244 15.3784 111.244C13.9419 111.244 12.7773 112.408 12.7773 113.845C12.7773 115.281 13.9419 116.446 15.3784 116.446Z" stroke="white" stroke-width="2"/>
<path d="M20.4778 114.11C25.7242 113.57 33.9564 114.208 34.9294 118.266C35.9024 122.325 32.1869 123.809 30.2076 124.044C22.6718 125.242 12.6797 124.678 12.6797 118.266" stroke="white" stroke-width="2" stroke-linecap="round"/>
<path d="M18.5807 120.247C18.9122 120.247 19.181 119.979 19.181 119.647C19.181 119.316 18.9122 119.047 18.5807 119.047C18.2492 119.047 17.9805 119.316 17.9805 119.647C17.9805 119.979 18.2492 120.247 18.5807 120.247Z" stroke="white" stroke-width="2"/>
<path d="M24.385 119.647C24.385 119.939 24.1133 120.247 23.6847 120.247C23.256 120.247 22.9844 119.939 22.9844 119.647C22.9844 119.356 23.256 119.047 23.6847 119.047C24.1133 119.047 24.385 119.356 24.385 119.647Z" stroke="white" stroke-width="2"/>
<path d="M28.7838 120.247C29.1153 120.247 29.3841 119.979 29.3841 119.647C29.3841 119.316 29.1153 119.047 28.7838 119.047C28.4523 119.047 28.1836 119.316 28.1836 119.647C28.1836 119.979 28.4523 120.247 28.7838 120.247Z" stroke="white" stroke-width="2"/>
<path d="M212.76 43.2157C214.086 43.2157 215.161 42.1407 215.161 40.8147C215.161 39.4887 214.086 38.4137 212.76 38.4137C211.434 38.4137 210.359 39.4887 210.359 40.8147C210.359 42.1407 211.434 43.2157 212.76 43.2157Z" stroke="white" stroke-width="2"/>
<path d="M217.478 38.7138C219.237 38.7138 224.265 38.7138 226.629 38.7138C228.545 38.7138 229.467 39.1376 229.467 42.1036C229.467 44.9854 229.443 48.7183 229.467 50.225C229.484 51.2842 228.956 52.4565 227.197 52.626C225.437 52.7954 218.376 52.6966 215.066 52.626C213.836 52.626 211.66 51.9289 211.66 49.0949V45.917" stroke="white" stroke-width="2" stroke-linecap="round"/>
<path d="M216.262 43.7159L220.664 46.7172" stroke="white" stroke-width="2" stroke-linecap="round"/>
<path d="M220.664 46.7171L228.667 39.3141" stroke="white" stroke-width="2" stroke-linecap="round"/>
<path d="M222.691 44.9164L224.878 47.1173L227.065 49.3182" stroke="white" stroke-width="2" stroke-linecap="round"/>
<path d="M214.66 49.3182L217.887 44.9164" stroke="white" stroke-width="2" stroke-linecap="round"/>
<path d="M230.358 193.274C229.693 193.94 229.12 194.514 228.725 194.909C227.695 195.94 226.614 195.339 226.202 194.909L219.634 188.581C218.665 187.679 217.845 186.789 214.18 183.293C213.805 182.917 213.211 181.958 213.834 181.126C214.457 180.294 217.961 175.925 219.634 173.844C220.142 173.109 221.245 172.234 222.653 173.542C223.865 174.669 228.02 178.57 231.57 181.536" stroke="white" stroke-width="2" stroke-linecap="round"/>
<path d="M219.562 174.069C219.769 177.865 221.162 183.975 228.366 186.274" stroke="white" stroke-width="2" stroke-linecap="round"/>
<path d="M237.831 186.568C237.501 185.729 234.965 184.752 234.007 186.568C233.02 188.442 233.775 190.02 234.417 190.33C235.238 190.725 236.442 190.932 237.715 188.657" stroke="white" stroke-width="2" stroke-linecap="round"/>
<path d="M238.043 185.4C237.969 185.838 237.893 186.023 237.833 186.568C237.755 187.279 237.705 188.024 237.717 188.657C237.741 189.769 237.961 190.536 238.585 190.166C239.838 189.423 240.514 188.814 240.694 188.193C240.994 187.148 240.996 185.148 239.307 183.841C237.271 182.262 234.974 182.305 233.167 183.841C231.373 185.365 230.882 187.805 230.981 189.071C231.088 190.456 232.122 193.43 235.494 193.477C238.865 193.523 240.692 191.705 240.972 190.854" stroke="white" stroke-width="2" stroke-linecap="round"/>
<path d="M60.2966 161.578C59.5773 158.801 57.1887 153.68 53.3904 155.411C49.5918 157.142 51.8075 160.244 53.3904 161.578C54.4554 162.299 56.7452 163.071 57.383 160.388C58.0209 157.705 55.3328 156.601 54.5773 157.791C54.1789 158.26 53.7289 159.436 55.1169 160.388" stroke="white" stroke-width="2" stroke-linecap="round"/>
<path d="M76.8939 31.6172C77.7417 30.7813 78.1238 29.5819 77.9158 28.4097C77.6817 27.09 79.0625 26.0747 80.2524 26.6916C81.3093 27.2395 82.5681 27.2323 83.6187 26.6723C84.8014 26.0418 86.1937 27.0412 85.9747 28.3635C85.7802 29.538 86.1761 30.7331 87.0333 31.5591C87.9984 32.4892 87.4782 34.1222 86.1529 34.3225C84.9758 34.5004 83.9616 35.2462 83.4408 36.3168C82.8545 37.522 81.1407 37.5319 80.5407 36.3334C80.0077 35.2688 78.985 34.5347 77.8059 34.3703C76.4785 34.1852 75.9395 32.5582 76.8939 31.6172Z" stroke="white" stroke-width="2"/>
<path d="M139.031 116.429V133.436" stroke="white" stroke-width="2" stroke-linecap="round"/>
<path d="M151.836 118.43V134.636" stroke="white" stroke-width="2" stroke-linecap="round"/>
<path d="M121.886 192.077C117.658 192.603 107.76 194.545 105.591 198.494C104.941 199.678 104.186 202.561 106.372 204.614C108.558 206.667 112.552 206.128 114.275 205.601L124.326 201.554" stroke="white" stroke-width="2" stroke-linecap="round"/>
<path d="M179.506 162.28C171.616 162.534 136.769 179.404 120.332 187.807C118.932 197.067 124.839 203.716 127.967 205.883C144.351 201.126 177.978 191.486 181.414 190.978C184.85 190.471 188.254 188.019 189.527 186.856C198.434 176.455 191.86 167.618 187.459 164.5C184.326 162.28 181.621 162.212 179.506 162.28Z" fill="white"/>
<path d="M105.601 159.92C111.191 160.293 135.577 169.744 147.132 174.697L120.707 187.902C108.881 191.37 101.616 190.227 99.3972 189.48C86.5904 183.31 91.6081 168.088 96.6964 162.449C99.9758 159.658 103.598 159.786 105.601 159.92Z" fill="white"/>
<path d="M167.818 193.878C171.311 195.557 173.2 197.756 174.158 199.56C176.211 204.258 172.525 207.082 168.317 205.754C165.992 205.021 165.444 204.529 164.212 203.507C163.587 202.989 160.668 200.277 157.336 197.074" stroke="white" stroke-width="2" stroke-linecap="round"/>
<path d="M101.186 122.035L102.994 154.898C103.286 160.199 107.67 164.348 112.979 164.348H172.247C177.77 164.348 182.247 159.871 182.247 154.348V120.662C182.247 115.086 177.687 110.588 172.112 110.663L111.036 111.486C105.351 111.563 100.874 116.358 101.186 122.035Z" fill="white"/>
<rect x="103.016" y="165.049" width="79.2325" height="3.80156" rx="1.90078" fill="white"/>
<path d="M152.035 89.4176C159.005 89.3176 174.344 94.6197 180.447 111.327" stroke="white" stroke-width="2" stroke-linecap="round"/>
<path d="M136.731 89.3176C120.824 92.4189 113.221 99.2217 107.219 112.327" stroke="white" stroke-width="2" stroke-linecap="round"/>
<path d="M189.949 105.141L193.851 98.6384" stroke="white" stroke-width="2" stroke-linecap="round"/>
<path d="M193.852 106.942L199.154 102.54" stroke="white" stroke-width="2" stroke-linecap="round"/>
<path d="M194.652 109.943C195.686 110.343 198.034 110.723 199.154 109.043" stroke="white" stroke-width="2" stroke-linecap="round"/>
<path d="M92.3111 103.924L86.3086 97.7211" stroke="white" stroke-width="2" stroke-linecap="round"/>
<path d="M98.414 102.923L94.8125 93.6194" stroke="white" stroke-width="2" stroke-linecap="round"/>
<path d="M90.8104 107.425L86.3086 105.724" stroke="white" stroke-width="2" stroke-linecap="round"/>
<path d="M184.449 122.548C188.151 128.351 192.352 135.253 184.449 148.242" stroke="white" stroke-width="2" stroke-linecap="round"/>
<path d="M152.134 89.9179C153.035 87.3168 152.214 85.5664 151.414 85.233C146.612 89.6348 139.329 88.0008 136.628 85.333C135.668 86.2134 136.228 88.8174 136.628 89.6177C141.83 95.3801 149.233 92.1521 152.134 89.9179Z" fill="white"/>
<path d="M130.828 105.924L131.232 105.305C133.497 101.829 137.905 100.441 141.753 101.992V101.992C145.208 103.386 149.168 102.419 151.592 99.5904L154.738 95.9203" stroke="white" stroke-width="2" stroke-linecap="round"/>
<path d="M99.5155 126.233C98.0149 129.768 96.2342 138.338 101.116 144.34" stroke="white" stroke-width="2" stroke-linecap="round"/>
<path d="M165.929 49.0222C163.728 56.9254 162.628 57.6257 159.427 61.1272C159.427 57.6667 158.832 51.8584 158.832 49.4399C148.35 49.4399 139.504 45.1608 136.391 43.0213C136.502 50.2771 129.7 55.0212 129.7 55.0212C129.7 55.0212 130.676 57.9514 131.233 64.5094C131.679 69.7559 130.397 68.7419 129.7 67.5792C127.693 61.1048 124.403 62.835 123.009 64.5094C105.905 36.7171 132.209 31.3471 137.227 31.8587C141.018 28.6215 146.306 26.0847 150.023 25.7126C163.428 24.3707 169.498 36.2073 165.929 49.0222Z" fill="white"/>
<path d="M129.934 72.5258C131.734 83.5194 143.821 91.4244 152.543 82.5189C161.265 73.6135 159.519 57.3123 158.588 49.7055" stroke="white" stroke-width="2" stroke-linecap="round"/>
<path d="M122.811 63.8282C121.711 66.5294 122.743 72.5148 129.934 72.5148" stroke="white" stroke-width="2" stroke-linecap="round"/>
<path d="M125.984 65.3119C125.825 65.8899 125.952 67.2593 127.734 68.113" stroke="white" stroke-width="2" stroke-linecap="round"/>
<path d="M158.348 71.1142C160.695 70.1357 162.349 66.5123 161.713 60.71" stroke="white" stroke-width="2" stroke-linecap="round"/>
<path d="M145.141 77.717C147.442 78.3172 147.296 76.6654 149.042 75.2159" stroke="white" stroke-width="2" stroke-linecap="round"/>
<circle cx="152.008" cy="63.7412" r="1.50062" fill="white"/>
<circle cx="138.805" cy="63.9412" r="1.50062" fill="white"/>
<path d="M135.539 60.5099C135.855 59.5801 137.217 57.8601 140.141 58.4179" stroke="white" stroke-width="2" stroke-linecap="round"/>
<path d="M149.543 58.7092C150.24 58.1052 152.137 57.2597 154.145 58.7092" stroke="white" stroke-width="2" stroke-linecap="round"/>
<path d="M144.704 62.9109C144.471 64.8865 144.313 68.8929 145.543 69.1134" stroke="white" stroke-width="2" stroke-linecap="round"/>
<path d="M202.355 153.661C229.066 161.064 277.046 169.567 255.277 144.357C248.408 137.588 238.27 129.651 221.964 122.648" stroke="white" stroke-width="2" stroke-linecap="round"/>
<path d="M231.267 101.937C247.873 91.2996 274.624 69.324 248.774 66.5228C222.923 63.7217 199.32 73.4256 190.75 78.6278" stroke="white" stroke-width="2" stroke-linecap="round"/>
<path d="M166.94 86.3921C177.944 62.6823 195.751 13.5422 178.945 6.65933C157.936 -1.9442 130.725 22.866 108.516 82.0903" stroke="white" stroke-width="2" stroke-linecap="round"/>
<path d="M84.0434 65.9677C59.4333 52.4955 9.19271 31.7737 5.11104 56.6639C1.02936 81.5541 50.8965 102.316 76.3403 109.586" stroke="white" stroke-width="2" stroke-linecap="round"/>
<path d="M82.8734 122.648C46.9587 140.956 1.95808 166.275 26.8843 179.472C37.0884 184.874 63.1992 181.573 75.2041 176.671" stroke="white" stroke-width="2" stroke-linecap="round"/>
<ellipse cx="141.63" cy="242.498" rx="49.5203" ry="6.00246" fill="white"/>
</svg>
