<svg width="140" height="101" viewBox="0 0 140 101" fill="none" xmlns="http://www.w3.org/2000/svg">
<path d="M31.6301 88.0072C20.5397 79.1149 46.8161 74.5653 61.6098 73.563C62.077 73.5313 62.4929 73.837 62.6319 74.2842C67.1186 88.7245 78.2576 94.6016 83.3805 96.0177C71.0469 97.2468 42.921 97.0603 31.6301 88.0072Z" fill="black"/>
<circle cx="94.5703" cy="64.3573" r="29.5117" stroke="black" stroke-width="1.5"/>
<path d="M127.899 64.3572C127.899 82.7628 112.978 97.6835 94.5723 97.6835C76.1667 97.6835 61.2461 82.7628 61.2461 64.3572C61.2461 45.9517 76.1667 31.031 94.5723 31.031C112.978 31.031 127.899 45.9517 127.899 64.3572Z" stroke="black" stroke-width="1.5"/>
<ellipse cx="94.5805" cy="39.4359" rx="1.5258" ry="1.5258" fill="black"/>
<ellipse cx="94.5805" cy="89.2787" rx="1.5258" ry="1.5258" fill="black"/>
<ellipse cx="119.495" cy="64.3572" rx="1.5258" ry="1.5258" fill="black"/>
<ellipse cx="69.6547" cy="64.3572" rx="1.5258" ry="1.5258" fill="black"/>
<path d="M97.6446 64.6116C97.6446 66.304 96.2726 67.6761 94.5801 67.6761C92.8876 67.6761 91.5156 66.304 91.5156 64.6116C91.5156 62.9191 92.8876 61.5471 94.5801 61.5471C96.2726 61.5471 97.6446 62.9191 97.6446 64.6116Z" stroke="black" stroke-width="1.5"/>
<path d="M81.8555 64.6116H91.5189" stroke="black" stroke-width="1.5" stroke-linecap="round"/>
<path d="M40.4137 40.5802C39.2694 40.4107 36.701 39.9191 35.582 39.3087" stroke="black" stroke-width="1.5" stroke-linecap="round"/>
<path d="M67.2481 44.649C63.815 44.9457 56.0843 45.0559 49.5742 42.6146" stroke="black" stroke-width="1.5" stroke-linecap="round"/>
<path d="M60.754 62.45C51.9806 62.662 33.3404 62.2212 25.4062 59.2713" stroke="black" stroke-width="1.5" stroke-linecap="round"/>
<path d="M38.8844 71.4777C30.0263 71.181 10.352 69.9519 2.51953 67.4089" stroke="black" stroke-width="1.5" stroke-linecap="round"/>
<path d="M94.582 61.6872V45.0305" stroke="black" stroke-width="1.5" stroke-linecap="round"/>
<path d="M126.113 53.9311C130.054 54.1854 138.192 56.3471 137.429 51.3881C137.072 49.0697 134.801 48.471 133.303 48.4442C132.945 48.4378 132.601 48.2807 132.377 48.001C130.587 45.7666 126.619 42.8169 122.535 46.046" stroke="black" stroke-width="1.5" stroke-linecap="round"/>
<path d="M78.6836 19.9161C79.7008 15.7626 84.6596 8.70148 96.3575 13.6858L100.045 15.5317" stroke="black" stroke-width="1.5" stroke-linecap="round"/>
<path d="M96.3633 13.6857C98.8639 11.9904 105.009 10.1764 108.061 16.483" stroke="black" stroke-width="1.5" stroke-linecap="round"/>
<path d="M73.4727 20.2975H82.8818" stroke="black" stroke-width="1.5" stroke-linecap="round"/>
<path d="M42.7054 9.56455C42.356 7.38982 40.2305 5.69555 37.61 5.69555C37.115 5.69555 36.62 5.77141 36.1833 5.87256C34.8439 3.82427 32.3108 2.43346 29.3991 2.43346C25.0899 2.43346 21.625 5.46796 21.625 9.18523" stroke="black" stroke-width="1.5" stroke-miterlimit="10" stroke-linecap="round" stroke-linejoin="round"/>
<path d="M42.7042 9.56457C45.8197 9.89331 48.2363 12.1945 48.2363 15.0014C48.2363 18.0359 45.412 20.4888 41.9181 20.4888L24.7684 20.4635H23.0214C19.5274 20.4635 16.7031 18.0106 16.7031 14.9761C16.7031 12.3462 18.8286 10.1715 21.6529 9.61515C22.9341 9.35384 26.2766 8.86663 29.3979 9.00825M42.7042 9.61515C41.7531 9.45499 39.2393 9.58986 36.7935 11.4106" stroke="black" stroke-width="1.5" stroke-miterlimit="10" stroke-linecap="round" stroke-linejoin="round"/>
</svg>
