<svg width="139" height="100" viewBox="0 0 139 100" fill="none" xmlns="http://www.w3.org/2000/svg">
<path d="M31.1106 87.5738C20.0202 78.6814 46.2965 74.1318 61.0903 73.1295C61.5575 73.0979 61.9734 73.4036 62.1123 73.8508C66.5991 88.2911 77.7381 94.1682 82.8609 95.5842C70.5274 96.8133 42.4015 96.6268 31.1106 87.5738Z" fill="white"/>
<circle cx="94.0508" cy="63.9238" r="29.5117" stroke="white" stroke-width="1.5"/>
<path d="M127.379 63.9238C127.379 82.3293 112.458 97.25 94.0528 97.25C75.6472 97.25 60.7266 82.3293 60.7266 63.9238C60.7266 45.5182 75.6472 30.5976 94.0528 30.5976C112.458 30.5976 127.379 45.5182 127.379 63.9238Z" stroke="white" stroke-width="1.5"/>
<ellipse cx="94.061" cy="39.0024" rx="1.5258" ry="1.5258" fill="white"/>
<ellipse cx="94.061" cy="88.8452" rx="1.5258" ry="1.5258" fill="white"/>
<ellipse cx="118.975" cy="63.9238" rx="1.5258" ry="1.5258" fill="white"/>
<ellipse cx="69.1352" cy="63.9238" rx="1.5258" ry="1.5258" fill="white"/>
<path d="M97.1251 64.1781C97.1251 65.8706 95.7531 67.2426 94.0606 67.2426C92.3681 67.2426 90.9961 65.8706 90.9961 64.1781C90.9961 62.4856 92.3681 61.1136 94.0606 61.1136C95.7531 61.1136 97.1251 62.4856 97.1251 64.1781Z" stroke="white" stroke-width="1.5"/>
<path d="M81.3359 64.1781H90.9993" stroke="white" stroke-width="1.5" stroke-linecap="round"/>
<path d="M39.8942 40.1468C38.7499 39.9772 36.1814 39.4856 35.0625 38.8753" stroke="white" stroke-width="1.5" stroke-linecap="round"/>
<path d="M66.7285 44.2155C63.2955 44.5122 55.5648 44.6224 49.0547 42.1811" stroke="white" stroke-width="1.5" stroke-linecap="round"/>
<path d="M60.2344 62.0166C51.4611 62.2285 32.8209 61.7877 24.8867 58.8378" stroke="white" stroke-width="1.5" stroke-linecap="round"/>
<path d="M38.3649 71.0442C29.5068 70.7475 9.83244 69.5184 2 66.9754" stroke="white" stroke-width="1.5" stroke-linecap="round"/>
<path d="M94.0625 61.2537V44.597" stroke="white" stroke-width="1.5" stroke-linecap="round"/>
<path d="M125.593 53.4977C129.535 53.752 137.672 55.9136 136.91 50.9547C136.553 48.6363 134.281 48.0376 132.784 48.0108C132.425 48.0043 132.082 47.8472 131.857 47.5675C130.068 45.3332 126.1 42.3834 122.016 45.6126" stroke="white" stroke-width="1.5" stroke-linecap="round"/>
<path d="M78.1641 19.4827C79.1813 15.3291 84.1401 8.26803 95.8379 13.2523L99.5253 15.0982" stroke="white" stroke-width="1.5" stroke-linecap="round"/>
<path d="M95.8438 13.2522C98.3444 11.5569 104.49 9.74293 107.542 16.0496" stroke="white" stroke-width="1.5" stroke-linecap="round"/>
<path d="M72.9531 19.8641H82.3622" stroke="white" stroke-width="1.5" stroke-linecap="round"/>
<path d="M42.1858 9.13109C41.8364 6.95636 39.7109 5.26209 37.0905 5.26209C36.5955 5.26209 36.1005 5.33796 35.6637 5.43911C34.3244 3.39082 31.7912 2 28.8796 2C24.5703 2 21.1055 5.03451 21.1055 8.75178" stroke="white" stroke-width="1.5" stroke-miterlimit="10" stroke-linecap="round" stroke-linejoin="round"/>
<path d="M42.1847 9.13112C45.3001 9.45985 47.7168 11.761 47.7168 14.5679C47.7168 17.6024 44.8925 20.0553 41.3985 20.0553L24.2489 20.03H22.5019C19.0079 20.03 16.1836 17.5772 16.1836 14.5427C16.1836 11.9127 18.3091 9.73802 21.1334 9.18169C22.4145 8.92039 25.7571 8.43318 28.8784 8.57479M42.1847 9.18169C41.2335 9.02154 38.7198 9.1564 36.274 10.9771" stroke="white" stroke-width="1.5" stroke-miterlimit="10" stroke-linecap="round" stroke-linejoin="round"/>
</svg>
