<svg width="100" height="100" viewBox="0 0 100 100" fill="none" xmlns="http://www.w3.org/2000/svg">
<path d="M41.9524 79.0142C42.9444 65.2919 41.3572 38.6076 27.0727 41.6497C12.7882 44.6918 12.193 61.8751 13.681 70.0865C15.0036 74.8811 22.5758 72.6656 16.4916 57.1908" stroke="black" stroke-width="1.5" stroke-linecap="round"/>
<path d="M11.5312 55.5373C7.50819 55.4271 -1.88713 59.6038 3.76071 73.7236C11.0352 91.9101 48.3998 102.326 59.3115 73.7236" stroke="black" stroke-width="1.5" stroke-linecap="round"/>
<path d="M69.0684 64.9613C66.2578 61.6547 63.1166 64.9613 60.1406 61.6547V69.994C60.6697 71.3167 61.9124 69.994 62.6206 69.4252L69.0684 64.9613Z" fill="black"/>
<path d="M75.1856 60.4974L68.0468 65.5965C64.7375 67.9604 60.1406 65.5947 60.1406 61.5279V51.5696" stroke="black" stroke-width="1.5" stroke-linecap="round"/>
<path d="M66.918 47.767L77.6644 26.1088" stroke="black" stroke-width="1.5" stroke-linecap="round"/>
<path d="M83.2813 26.4394L71.0469 51.4042" stroke="black" stroke-width="1.5" stroke-linecap="round"/>
<path d="M87.253 31.3994L76.6719 52.7269" stroke="black" stroke-width="1.5" stroke-linecap="round"/>
<path d="M73.5298 24.1248L61.4412 48.7611C61.0625 49.533 61.796 50.4656 62.6548 50.5048C64.1645 50.5738 65.7626 51.1676 66.4311 52.9426C66.708 53.6776 67.6178 54.1595 68.363 53.911C69.6842 53.4704 71.1166 53.549 71.6621 55.2568C71.9275 56.0875 73.0096 56.65 73.8301 56.3549C74.073 56.2675 74.3158 56.2049 74.5513 56.1762C75.6173 56.0462 78.2188 56.3541 78.6922 55.3902L90.3934 31.5647" stroke="black" stroke-width="1.5" stroke-linecap="round"/>
<path d="M88.7422 8.74915C83.1871 7.82331 80.5859 9.90646 79.9797 11.0638L77.2851 16.3247C76.9369 17.0045 77.4466 17.8212 78.2093 17.8608C82.5825 18.0881 89.4124 19.6798 92.6377 24.1915C93.1368 24.8896 94.3103 24.8923 94.6941 24.1248L97.8267 17.7029C97.9385 17.4739 97.9612 17.2121 97.875 16.9723C96.9424 14.3791 94.0314 9.63068 88.7422 8.74915Z" fill="black" stroke="black" stroke-width="1.5" stroke-linecap="round"/>
<path d="M93.5337 26.2741L92.0604 29.0474C91.6169 29.8822 90.1056 29.7599 89.5806 28.9738C87.7352 26.2105 83.5891 22.9996 75.9284 22.5282C75.1984 22.4833 74.718 21.7162 75.0345 21.0569L76.3394 18.3383" stroke="black" stroke-width="1.5" stroke-linecap="round"/>
<path d="M77.332 20.4877C79.5915 20.157 85.4001 20.7522 90.5584 25.7782" stroke="black" stroke-width="1.5" stroke-linecap="round"/>
</svg>
