<svg width="24" height="24" viewBox="0 0 24 24" fill="none" xmlns="http://www.w3.org/2000/svg">
<g clip-path="url(#clip0_664_1800)">
<path d="M14.6716 19.1569L11.8432 16.3284M14.6716 19.1569L16.0711 21.9706C16.7831 21.2782 19.1942 18.052 17.4853 16.3431M14.6716 19.1569L17.4853 16.3431M11.8432 16.3284L14.6716 13.5L14.6863 13.4853M11.8432 16.3284L9.00004 14.8995C9.72187 14.1973 13.0011 11.8 14.6863 13.4853M17.5 16.3284L17.4853 16.3431M17.4853 16.3431L19.9867 13.8418C21.0546 12.7738 21.7984 11.4254 22.1321 9.95247L22.4498 8.55025L21.0476 8.86791C19.5746 9.2016 18.2262 9.94542 17.1583 11.0134L14.6863 13.4853" stroke="#5534A5" stroke-width="1.5" stroke-linecap="round" stroke-linejoin="round"/>
<path d="M3.41388 13.3134C2.0755 15.4299 1.56316 17.1195 2.2219 17.7782C2.8077 18.364 4.20868 18.0237 6.0002 17M13.3134 3.41388C15.4299 2.0755 17.1195 1.56315 17.7782 2.2219C18.6638 3.10743 17.4331 5.85576 14.9243 9M4.25405 14C2.34907 11.2703 2.61448 7.48601 5.05028 5.05021C7.48607 2.61442 11.2704 2.349 14 4.25395" stroke="#5534A5" stroke-width="1.5" stroke-linecap="round" stroke-linejoin="round"/>
</g>
<defs>
<clipPath id="clip0_664_1800">
<rect width="24" height="24" fill="white"/>
</clipPath>
</defs>
</svg>
