<svg width="24" height="24" viewBox="0 0 24 24" fill="none" xmlns="http://www.w3.org/2000/svg">
<path fill-rule="evenodd" clip-rule="evenodd" d="M16.2756 0.632431C16.7134 0.632431 17.0687 0.987732 17.0687 1.42551L17.0692 2.32203C18.6132 2.42788 19.8955 2.95674 20.803 3.8662C21.7938 4.86125 22.3152 6.29198 22.3099 8.00821V17.6553C22.3099 21.1787 20.0723 23.3676 16.4718 23.3676H7.52802C3.92747 23.3676 1.68994 21.148 1.68994 17.5749V8.00609C1.68994 4.68275 3.68537 2.54951 6.93976 2.32239L6.94041 1.42551C6.94041 0.987732 7.29571 0.632431 7.73348 0.632431C8.17126 0.632431 8.52656 0.987732 8.52656 1.42551L8.52624 2.30213H15.482L15.4826 1.42551C15.4826 0.987732 15.8379 0.632431 16.2756 0.632431ZM20.7237 10.0479H3.27609V17.5749C3.27609 20.2883 4.7861 21.7814 7.52802 21.7814H16.4718C19.2137 21.7814 20.7238 20.3158 20.7238 17.6553L20.7237 10.0479ZM16.7067 16.7017C17.1445 16.7017 17.4998 17.057 17.4998 17.4947C17.4998 17.9325 17.1445 18.2878 16.7067 18.2878C16.269 18.2878 15.9094 17.9325 15.9094 17.4947C15.9094 17.057 16.2594 16.7017 16.6972 16.7017H16.7067ZM12.0144 16.7017C12.4522 16.7017 12.8075 17.057 12.8075 17.4947C12.8075 17.9325 12.4522 18.2878 12.0144 18.2878C11.5766 18.2878 11.2171 17.9325 11.2171 17.4947C11.2171 17.057 11.5671 16.7017 12.0049 16.7017H12.0144ZM7.3122 16.7017C7.74998 16.7017 8.10527 17.057 8.10527 17.4947C8.10527 17.9325 7.74998 18.2878 7.3122 18.2878C6.87442 18.2878 6.51384 17.9325 6.51384 17.4947C6.51384 17.057 6.86491 16.7017 7.30268 16.7017H7.3122ZM16.7067 12.5917C17.1445 12.5917 17.4998 12.947 17.4998 13.3848C17.4998 13.8226 17.1445 14.1779 16.7067 14.1779C16.269 14.1779 15.9094 13.8226 15.9094 13.3848C15.9094 12.947 16.2594 12.5917 16.6972 12.5917H16.7067ZM12.0144 12.5917C12.4522 12.5917 12.8075 12.947 12.8075 13.3848C12.8075 13.8226 12.4522 14.1779 12.0144 14.1779C11.5766 14.1779 11.2171 13.8226 11.2171 13.3848C11.2171 12.947 11.5671 12.5917 12.0049 12.5917H12.0144ZM7.3122 12.5917C7.74998 12.5917 8.10527 12.947 8.10527 13.3848C8.10527 13.8226 7.74998 14.1779 7.3122 14.1779C6.87442 14.1779 6.51384 13.8226 6.51384 13.3848C6.51384 12.947 6.86491 12.5917 7.30268 12.5917H7.3122ZM15.482 3.8883H8.52624L8.52656 4.90556C8.52656 5.34334 8.17126 5.69864 7.73348 5.69864C7.29571 5.69864 6.94041 5.34334 6.94041 4.90556L6.93985 3.91231C4.57095 4.11131 3.27609 5.54728 3.27609 8.00609V8.46174H20.7237L20.7238 8.00609C20.7279 6.70015 20.3769 5.685 19.68 4.98709C19.0683 4.37357 18.1741 4.00716 17.0696 3.91281L17.0687 4.90556C17.0687 5.34334 16.7134 5.69864 16.2756 5.69864C15.8379 5.69864 15.4826 5.34334 15.4826 4.90556L15.482 3.8883Z" fill="#B8BBD5"/>
</svg>
