<svg width="14" height="14" viewBox="0 0 14 14" fill="none" xmlns="http://www.w3.org/2000/svg">
<path fill-rule="evenodd" clip-rule="evenodd" d="M3.61468 1.00715C4.2678 1.01592 4.73323 1.5053 5.32203 2.12448C5.46762 2.27709 5.62491 2.44372 5.80091 2.61913C6.65399 3.47277 6.41134 4.16913 6.21546 4.72809C6.00263 5.33791 5.81845 5.86413 6.92121 6.96684C8.02396 8.06956 8.54962 7.88538 9.15888 7.67081C9.71845 7.47552 10.4131 7.23112 11.2679 8.08476C11.4416 8.25841 11.6053 8.41394 11.7573 8.55836C12.3789 9.15006 12.87 9.61722 12.8783 10.2721C12.8846 10.8299 12.5455 11.3993 11.7082 12.2366L11.3375 11.9852L11.6515 12.291C11.4661 12.481 10.9732 12.9873 10.0079 12.9932H9.99034C8.53324 12.9932 6.63353 11.8332 4.34381 9.54414C2.04474 7.24574 0.882929 5.34025 0.89165 3.88029C0.896962 2.91556 1.40273 2.4215 1.59276 2.23616L1.60898 2.21845L1.64831 2.17886C2.48737 1.33984 3.06389 0.994873 3.61468 1.00715ZM3.60357 1.88418H3.5989C3.33633 1.88418 2.93757 2.14729 2.38143 2.68747L2.26976 2.79714L2.27103 2.79687C2.27103 2.79687 2.26148 2.80782 2.24522 2.8244L2.20612 2.86353C2.06462 3.00093 1.77168 3.28684 1.76873 3.88497C1.76408 4.72165 2.31429 6.27516 4.9636 8.92378C7.60005 11.5595 9.15128 12.1162 9.99034 12.1162H10.0026C10.6008 12.1127 10.8861 11.8197 11.0235 11.6788C11.065 11.6361 11.0989 11.604 11.1229 11.5847C11.7059 10.9982 12.0041 10.5627 12.0012 10.2826C11.9976 9.99727 11.6427 9.66049 11.1522 9.19332C10.996 9.0454 10.8265 8.88344 10.6475 8.70453C10.1833 8.24204 9.95467 8.32098 9.4489 8.49872C8.75017 8.7437 7.79301 9.07931 6.30142 7.58661C4.80924 6.09508 5.14369 5.13795 5.38752 4.43867C5.5641 3.9335 5.64479 3.70372 5.18112 3.23948C4.99986 3.05823 4.83672 2.88633 4.68645 2.72846C4.22219 2.24084 3.88716 1.88827 3.60357 1.88418ZM8.6368 3.08717C9.85357 3.32338 10.7932 4.26238 11.03 5.4797C11.0762 5.71825 10.9213 5.94803 10.6839 5.99422C10.6552 5.99948 10.6271 6.00241 10.5991 6.00241C10.3933 6.00241 10.2102 5.85741 10.1693 5.64809C10.0009 4.78275 9.33377 4.11563 8.46957 3.94782C8.23159 3.90163 8.07665 3.67185 8.12284 3.43389C8.16903 3.19592 8.40291 3.04039 8.6368 3.08717ZM8.60177 1.01048C10.9862 1.27535 12.838 3.1247 13.1052 5.50847C13.1321 5.74936 12.959 5.96627 12.7187 5.99317C12.7023 5.99492 12.6854 5.99609 12.669 5.99609C12.4486 5.99609 12.2591 5.83063 12.234 5.60669C12.0124 3.6328 10.4793 2.10092 8.50471 1.88166C8.2644 1.85477 8.09074 1.63844 8.11763 1.39755C8.14395 1.15724 8.35853 0.980081 8.60177 1.01048Z" fill="white"/>
</svg>
