<svg width="15" height="15" viewBox="0 0 15 15" fill="none" xmlns="http://www.w3.org/2000/svg">
<path d="M5.42981 11.7159C4.38035 12.6105 3.42091 13.1567 1.63965 13.1567C2.27134 12.525 3.07415 11.6722 3.40911 10.3474C2.3135 9.43854 1.63965 8.20209 1.63965 6.83973C1.63965 4.0487 4.46784 1.78613 7.95658 1.78613C11.1779 1.78613 13.8361 3.71515 14.2246 6.20803" stroke="white" stroke-width="1.14" stroke-linecap="round" stroke-linejoin="round"/>
<path d="M10.4852 12.454C8.39198 12.454 6.69506 11.197 6.69506 9.64642C6.69506 8.09585 8.39198 6.83887 10.4852 6.83887C12.5785 6.83887 14.2754 8.09585 14.2754 9.64642C14.2754 10.4033 13.8711 11.0902 13.2137 11.5951C13.4147 12.3311 13.8964 12.8049 14.2754 13.1559C13.1383 13.1559 12.5594 12.8124 11.8798 12.2578C11.4482 12.3844 10.9777 12.454 10.4852 12.454Z" stroke="white" stroke-width="1.14" stroke-linecap="round" stroke-linejoin="round"/>
</svg>
