<svg width="14" height="14" viewBox="0 0 14 14" fill="none" xmlns="http://www.w3.org/2000/svg">
<path fill-rule="evenodd" clip-rule="evenodd" d="M5.6369 8.38081C7.48945 8.38081 9.9525 8.58943 9.9525 10.3942C9.9525 12.2954 7.08251 12.4095 5.85143 12.4163L5.40446 12.4163C4.09184 12.4095 1.32129 12.2961 1.32129 10.4056C1.32129 8.5023 4.19129 8.3881 5.42236 8.38125L5.57027 8.38083C5.59332 8.38081 5.61555 8.38081 5.6369 8.38081ZM5.6369 9.23347C4.0572 9.23347 2.17395 9.43641 2.17395 10.4056C2.17395 11.1741 3.33926 11.5641 5.6369 11.5641C7.93454 11.5641 9.09984 11.1701 9.09984 10.3942C9.09984 9.62399 7.93454 9.23347 5.6369 9.23347ZM10.8181 8.1153C12.3563 8.34551 12.6786 9.05777 12.6786 9.61427C12.6786 10.0287 12.4995 10.5897 11.6452 10.9132C11.5957 10.9319 11.5445 10.941 11.4939 10.941C11.3217 10.941 11.1597 10.8358 11.0955 10.6659C11.0119 10.4459 11.1228 10.1992 11.3427 10.1162C11.8259 9.93317 11.8259 9.70977 11.8259 9.61427C11.8259 9.29197 11.4445 9.07141 10.6924 8.95943C10.4594 8.92419 10.2985 8.70704 10.3332 8.47455C10.3684 8.24149 10.5896 8.08517 10.8181 8.1153ZM5.6369 1.58398C7.24615 1.58398 8.55587 2.89367 8.55587 4.50292C8.55925 5.27827 8.25855 6.01042 7.71057 6.56181C7.16373 7.11376 6.43328 7.41902 5.65622 7.42186H5.6369C4.02707 7.42186 2.71738 6.11217 2.71738 4.50292C2.71738 2.89367 4.02707 1.58398 5.6369 1.58398ZM9.66578 2.2228C10.7828 2.40583 11.5934 3.36138 11.5934 4.49428C11.5911 5.634 10.7401 6.61285 9.61349 6.77088C9.59359 6.77372 9.57369 6.77486 9.5538 6.77486C9.34461 6.77486 9.16214 6.62081 9.13202 6.40765C9.09961 6.17459 9.26162 5.95858 9.49468 5.92618C10.2041 5.8267 10.7396 5.21108 10.7407 4.49371C10.7407 3.78089 10.2302 3.17948 9.52822 3.06466C9.29573 3.026 9.13827 2.80715 9.17635 2.57466C9.21444 2.34217 9.43443 2.18585 9.66578 2.2228ZM5.6369 2.43664C4.49717 2.43664 3.57004 3.36377 3.57004 4.50292C3.57004 5.64207 4.49717 6.5692 5.6369 6.5692H5.65452C6.2025 6.56692 6.71864 6.35149 7.10575 5.96097C7.49343 5.57159 7.70545 5.05374 7.7032 4.50463C7.7032 3.36377 6.77605 2.43664 5.6369 2.43664Z" fill="white"/>
</svg>
