<svg width="24" height="24" viewBox="0 0 24 24" fill="none" xmlns="http://www.w3.org/2000/svg">
<path fill-rule="evenodd" clip-rule="evenodd" d="M9.52525 14.5067C12.8887 14.5067 17.3606 14.8854 17.3606 18.1621C17.3606 21.6138 12.1499 21.8209 9.91475 21.8333L9.10324 21.8333C6.72008 21.8209 1.68994 21.615 1.68994 18.1828C1.68994 14.7272 6.90064 14.5199 9.13575 14.5075L9.40428 14.5067C9.44613 14.5067 9.48648 14.5067 9.52525 14.5067ZM9.52525 16.0547C6.65719 16.0547 3.23801 16.4231 3.23801 18.1828C3.23801 19.5781 5.35371 20.286 9.52525 20.286C13.6968 20.286 15.8125 19.5708 15.8125 18.1621C15.8125 16.7637 13.6968 16.0547 9.52525 16.0547ZM18.932 14.0246C21.7248 14.4426 22.3099 15.7357 22.3099 16.7461C22.3099 17.4984 21.9848 18.517 20.4337 19.1043C20.3439 19.1383 20.251 19.1548 20.1592 19.1548C19.8464 19.1548 19.5523 18.9639 19.4357 18.6553C19.284 18.2559 19.4852 17.808 19.8846 17.6573C20.7619 17.325 20.7619 16.9194 20.7619 16.7461C20.7619 16.1609 20.0694 15.7605 18.704 15.5572C18.2808 15.4932 17.9888 15.0989 18.0517 14.6769C18.1157 14.2537 18.5172 13.9699 18.932 14.0246ZM9.52525 2.1667C12.447 2.1667 14.8249 4.5445 14.8249 7.46617C14.831 8.87386 14.285 10.2031 13.2902 11.2042C12.2973 12.2063 10.9711 12.7605 9.56034 12.7656H9.52525C6.60249 12.7656 4.22465 10.3878 4.22465 7.46617C4.22465 4.5445 6.60249 2.1667 9.52525 2.1667ZM16.84 3.3265C18.868 3.65881 20.3397 5.39365 20.3397 7.45048C20.3355 9.5197 18.7906 11.2969 16.745 11.5838C16.7089 11.5889 16.6728 11.591 16.6367 11.591C16.2569 11.591 15.9256 11.3113 15.8709 10.9243C15.8121 10.5012 16.1062 10.109 16.5293 10.0502C17.8173 9.86956 18.7895 8.75187 18.7916 7.44945C18.7916 6.15529 17.8648 5.0634 16.5902 4.85493C16.1681 4.78475 15.8822 4.38742 15.9514 3.96532C16.0205 3.54322 16.4199 3.25941 16.84 3.3265ZM9.52525 3.71475C7.45599 3.71475 5.77272 5.39798 5.77272 7.46617C5.77272 9.53436 7.45599 11.2176 9.52525 11.2176H9.55724C10.5521 11.2135 11.4892 10.8223 12.1921 10.1133C12.8959 9.40638 13.2809 8.46621 13.2768 7.46927C13.2768 5.39798 11.5935 3.71475 9.52525 3.71475Z" fill="#5534A5"/>
</svg>
