<svg width="24" height="24" viewBox="0 0 24 24" fill="none" xmlns="http://www.w3.org/2000/svg">
<path d="M14.2027 3.09322H13.3436V3.14813L13.3505 3.20259L14.2027 3.09322ZM14.2027 3.09321H15.0619V3.05036L15.0576 3.00772L14.2027 3.09321ZM14.2027 3.09324L15.0576 3.00776L15.0564 2.9958L15.0549 2.98387L14.2027 3.09324ZM14.4074 4.2821L15.1662 3.87911L15.1662 3.87911L14.4074 4.2821ZM15.7546 4.84012L15.503 4.01862L15.503 4.01862L15.7546 4.84012ZM16.7404 4.14387L17.2845 4.80886L17.2905 4.8039L16.7404 4.14387ZM16.7404 4.14386L17.2905 4.80389L17.2984 4.79727L17.3062 4.79045L16.7404 4.14386ZM16.7404 4.14386L16.1964 3.4789L16.1854 3.48791L16.1747 3.49727L16.7404 4.14386ZM17.2879 3.74776L17.6385 4.5321L17.6385 4.5321L17.2879 3.74776ZM18.3248 3.79948L17.8978 4.54503L17.8978 4.54503L18.3248 3.79948ZM18.8298 4.24788L18.2223 4.8554L18.2355 4.86861L18.2493 4.88122L18.8298 4.24788ZM18.8298 4.2479L19.4374 3.64038L19.4242 3.62717L19.4104 3.61456L18.8298 4.2479ZM19.7506 5.1687L20.4215 4.63198L20.3918 4.59482L20.3582 4.56117L19.7506 5.1687ZM19.7507 5.16871L19.0798 5.70543L19.1095 5.74259L19.1431 5.77623L19.7507 5.16871ZM20.1997 5.67464L20.9455 5.24797L20.9455 5.24796L20.1997 5.67464ZM20.2514 6.71067L19.4669 6.36032L19.4669 6.36033L20.2514 6.71067ZM19.8548 7.25892L19.1898 6.71483L19.1839 6.7222L19.8548 7.25892ZM19.8548 7.25894L20.512 7.81236L20.5189 7.80409L20.5257 7.79565L19.8548 7.25894ZM19.8547 7.25896L19.1975 6.70549L19.1898 6.71491L19.8547 7.25896ZM19.1574 8.24657L19.9791 8.49757L19.9791 8.49757L19.1574 8.24657ZM19.715 9.59258L19.3114 10.3511L19.3114 10.3511L19.715 9.59258ZM20.906 9.79781L20.8205 10.6527L20.8205 10.6527L20.906 9.79781ZM21.5735 9.90489L21.8803 9.10238L21.8803 9.10238L21.5735 9.90489ZM22.2698 10.6743L21.4407 10.8998L21.4407 10.8998L22.2698 10.6743ZM22.2702 13.3248L23.0995 13.5493L23.0995 13.5493L22.2702 13.3248ZM21.5722 14.096L21.8781 14.8989L21.8781 14.8989L21.5722 14.096ZM20.9077 14.2025L20.9931 15.0574L20.9931 15.0574L20.9077 14.2025ZM19.7217 14.4064L20.1239 15.1656L20.1239 15.1656L19.7217 14.4064ZM19.163 15.7552L19.9842 15.5028L19.9842 15.5028L19.163 15.7552ZM19.8577 16.7385L19.1927 17.2825L19.199 17.2902L19.2054 17.2976L19.8577 16.7385ZM19.8577 16.7385L20.5227 16.1945L20.5165 16.1868L20.51 16.1794L19.8577 16.7385ZM20.2529 17.2845L19.4688 17.6357L19.4688 17.6357L20.2529 17.2845ZM20.2011 18.3227L19.4559 17.8952L19.4558 17.8953L20.2011 18.3227ZM19.7537 18.8265L19.1462 18.219L19.1462 18.219L19.7537 18.8265ZM18.8323 19.7479L19.4398 20.3555L19.4398 20.3555L18.8323 19.7479ZM18.3263 20.1971L18.753 20.9428L18.753 20.9428L18.3263 20.1971ZM17.2903 20.2487L16.94 21.0332L16.94 21.0332L17.2903 20.2487ZM16.7422 19.8522L17.2862 19.1872L17.2862 19.1872L16.7422 19.8522ZM15.7539 19.1546L16.0047 18.3328L16.0047 18.3328L15.7539 19.1546ZM14.4085 19.7119L13.6501 19.3081L13.6501 19.3081L14.4085 19.7119ZM14.2029 20.9048L15.0578 20.9903L15.0578 20.9903L14.2029 20.9048ZM14.0954 21.5742L13.2931 21.2669L13.2931 21.2669L14.0954 21.5742ZM13.327 22.2697L13.553 23.0986L13.553 23.0986L13.327 22.2697ZM10.6744 22.2698L10.8999 21.4408L10.8999 21.4408L10.6744 22.2698ZM9.90511 21.5736L9.10263 21.8805L9.10263 21.8805L9.90511 21.5736ZM9.79795 20.9057L10.6528 20.8202L10.6528 20.8202L9.79795 20.9057ZM9.59285 19.7149L8.83424 20.1182L8.83424 20.1182L9.59285 19.7149ZM8.24642 19.1572L7.99521 18.3355L7.99521 18.3355L8.24642 19.1572ZM7.25978 19.8538L7.80383 20.5188L7.80383 20.5188L7.25978 19.8538ZM6.71247 20.2498L7.06312 21.0342L7.06312 21.0342L6.71247 20.2498ZM5.67566 20.1981L5.24871 20.9437L5.24871 20.9437L5.67566 20.1981ZM5.17051 19.7496L5.77803 19.1421L5.76443 19.1285L5.75025 19.1155L5.17051 19.7496ZM5.17048 19.7496L4.56296 20.3571L4.57655 20.3707L4.59074 20.3837L5.17048 19.7496ZM4.24892 18.8281L4.85645 18.2205L4.85645 18.2205L4.24892 18.8281ZM3.8011 18.3237L3.05571 18.751L3.05571 18.751L3.8011 18.3237ZM3.74934 17.286L4.53355 17.637L4.53355 17.637L3.74934 17.286ZM4.14476 16.7397L4.80972 17.2837L4.80972 17.2837L4.14476 16.7397ZM4.84044 15.7547L4.01897 15.5029L4.01897 15.5029L4.84044 15.7547ZM4.28231 14.4072L4.68517 13.6483L4.68517 13.6483L4.28231 14.4072ZM3.09349 14.2026L3.008 15.0575L3.008 15.0575L3.09349 14.2026ZM2.42684 14.0957L2.73333 13.2931L2.73333 13.2931L2.42684 14.0957ZM1.72996 13.3257L0.900809 13.5508L0.900809 13.5508L1.72996 13.3257ZM1.73031 10.6735L0.901421 10.4474L0.901421 10.4474L1.73031 10.6735ZM2.42559 9.90521L2.73302 10.7075L2.73302 10.7075L2.42559 9.90521ZM3.09519 9.79768L3.0097 8.94277L3.0097 8.94277L3.09519 9.79768ZM4.28891 9.59186L4.69299 10.3501L4.69299 10.3501L4.28891 9.59186ZM4.84596 8.24703L4.02409 8.49744L4.02409 8.49744L4.84596 8.24703ZM4.14774 7.25782L4.8127 6.71377L4.8127 6.71377L4.14774 7.25782ZM3.75084 6.7091L4.53543 6.35897L4.53543 6.35897L3.75084 6.7091ZM3.80249 5.67365L4.54834 6.10011L4.54834 6.10011L3.80249 5.67365ZM4.25202 5.16714L3.6445 4.55962L3.6445 4.55962L4.25202 5.16714ZM5.17294 4.24622L5.78046 4.85374L5.78046 4.85374L5.17294 4.24622ZM5.67722 3.79844L5.24993 3.05306L5.24993 3.05306L5.67722 3.79844ZM6.71496 3.74668L6.36395 4.53087L6.36395 4.53087L6.71496 3.74668ZM7.2616 4.14232L6.71755 4.80727L6.73159 4.81876L6.7461 4.82965L7.2616 4.14232ZM7.26161 4.14232L7.80567 3.47736L7.79162 3.46587L7.77711 3.45499L7.26161 4.14232ZM8.2455 4.83746L7.99323 5.65876L7.99323 5.65876L8.2455 4.83746ZM9.59404 4.27888L10.3532 4.68125L10.3532 4.68124L9.59404 4.27888ZM9.79813 3.09244L10.653 3.17793L10.653 3.17793L9.79813 3.09244ZM9.90464 2.4276L9.1018 2.12163L9.1018 2.12163L9.90464 2.4276ZM10.6757 1.72983L10.9002 2.55913L10.9002 2.55913L10.6757 1.72983ZM13.3257 1.72999L13.5508 0.900818L13.5508 0.900818L13.3257 1.72999ZM14.0959 2.427L14.8986 2.12059L14.8986 2.12058L14.0959 2.427ZM15.0619 3.09322V3.09321H13.3436V3.09322H15.0619ZM15.0549 2.98387L15.0549 2.98385L13.3505 3.20259L13.3505 3.20262L15.0549 2.98387ZM15.1662 3.87911C15.1829 3.91048 15.1652 3.89497 15.139 3.72763C15.1139 3.56701 15.0916 3.34777 15.0576 3.00776L13.3478 3.17873C13.3798 3.49858 13.4071 3.77424 13.4413 3.99332C13.4746 4.20567 13.5262 4.45466 13.6486 4.68508L15.1662 3.87911ZM15.503 4.01862C15.3718 4.0588 15.2306 4.00029 15.1662 3.87911L13.6486 4.68508C14.0991 5.53331 15.0879 5.94288 16.0062 5.66163L15.503 4.01862ZM16.1964 3.47891C15.9318 3.69541 15.7609 3.83481 15.6295 3.93067C15.4925 4.03057 15.469 4.02904 15.503 4.01862L16.0062 5.66163C16.2557 5.58521 16.4684 5.44563 16.6421 5.31895C16.8213 5.18823 17.0356 5.0125 17.2845 4.80883L16.1964 3.47891ZM16.1904 3.48383L16.1904 3.48384L17.2905 4.8039L17.2905 4.80389L16.1904 3.48383ZM16.1747 3.49727L16.1747 3.49727L17.3062 4.79045L17.3062 4.79045L16.1747 3.49727ZM16.9372 2.96342C16.6669 3.08424 16.4263 3.29082 16.1964 3.4789L17.2845 4.80882C17.4266 4.69252 17.5105 4.62417 17.5759 4.57561C17.6369 4.53037 17.6491 4.52736 17.6385 4.5321L16.9372 2.96342ZM18.7517 3.05392C18.1961 2.73567 17.5218 2.70204 16.9372 2.96342L17.6385 4.5321C17.7221 4.49476 17.8184 4.49956 17.8978 4.54503L18.7517 3.05392ZM19.4374 3.64036C19.2274 3.43045 19.0086 3.20102 18.7517 3.05392L17.8978 4.54503C17.8877 4.53927 17.8996 4.54349 17.9557 4.59452C18.0159 4.6493 18.0925 4.7256 18.2223 4.8554L19.4374 3.64036ZM19.4104 3.61456L19.4104 3.61454L18.2493 4.88122L18.2493 4.88124L19.4104 3.61456ZM20.3582 4.56117L19.4374 3.64038L18.2223 4.85542L19.1431 5.77622L20.3582 4.56117ZM20.4216 4.63199L20.4215 4.63198L19.0797 5.70541L19.0798 5.70543L20.4216 4.63199ZM20.9455 5.24796C20.7982 4.99064 20.5684 4.77143 20.3582 4.56119L19.1431 5.77623C19.2731 5.90625 19.3496 5.98298 19.4044 6.04329C19.4555 6.09947 19.4598 6.11139 19.454 6.10131L20.9455 5.24796ZM21.0359 7.06102C21.2968 6.47686 21.2632 5.80326 20.9455 5.24797L19.454 6.10131C19.4994 6.18064 19.5042 6.27687 19.4669 6.36032L21.0359 7.06102ZM20.5197 7.80298C20.7081 7.57278 20.915 7.33172 21.0359 7.06101L19.4669 6.36033C19.4717 6.3497 19.4687 6.36198 19.4234 6.42301C19.3747 6.48851 19.3063 6.57251 19.1898 6.71486L20.5197 7.80298ZM20.5257 7.79565L20.5257 7.79564L19.1839 6.7222L19.1839 6.72222L20.5257 7.79565ZM20.5119 7.81238L20.512 7.81236L19.1976 6.70552L19.1976 6.70554L20.5119 7.81238ZM19.9791 8.49757C19.9687 8.53162 19.9671 8.5081 20.0672 8.37091C20.1632 8.23925 20.3028 8.06809 20.5197 7.80302L19.1898 6.71491C18.9858 6.96426 18.8097 7.17892 18.6788 7.35846C18.5519 7.53248 18.4121 7.74555 18.3357 7.99557L19.9791 8.49757ZM20.1185 8.83407C19.9975 8.7697 19.9391 8.62864 19.9791 8.49757L18.3357 7.99557C18.0555 8.91305 18.4645 9.9005 19.3114 10.3511L20.1185 8.83407ZM20.9915 8.94291C20.6508 8.90884 20.4312 8.88655 20.2703 8.86135C20.1026 8.8351 20.0871 8.81736 20.1185 8.83407L19.3114 10.3511C19.5422 10.4739 19.7916 10.5257 20.0044 10.559C20.2239 10.5934 20.5001 10.6207 20.8205 10.6527L20.9915 8.94291ZM21.8803 9.10238C21.6036 8.99659 21.2872 8.97247 20.9915 8.94291L20.8205 10.6527C21.0033 10.671 21.111 10.682 21.1916 10.6939C21.2667 10.705 21.2775 10.7116 21.2667 10.7074L21.8803 9.10238ZM23.0989 10.4489C22.9309 9.83126 22.4781 9.33095 21.8803 9.10238L21.2667 10.7074C21.3521 10.7401 21.4167 10.8115 21.4407 10.8998L23.0989 10.4489ZM23.1691 11.3491C23.1691 11.052 23.1766 10.7347 23.0989 10.4489L21.4407 10.8998C21.4377 10.8886 21.4431 10.9 21.4467 10.9758C21.4506 11.0572 21.4508 11.1654 21.4508 11.3491H23.1691ZM23.1691 12.6529V11.3491H21.4508V12.6529H23.1691ZM23.0995 13.5493C23.1765 13.2646 23.1691 12.9488 23.1691 12.6529H21.4508C21.4508 12.8359 21.4506 12.9436 21.4467 13.0246C21.4432 13.1001 21.4378 13.1115 21.4408 13.1003L23.0995 13.5493ZM21.8781 14.8989C22.4778 14.6704 22.9318 14.1687 23.0995 13.5493L21.4408 13.1003C21.4169 13.1888 21.352 13.2605 21.2663 13.2931L21.8781 14.8989ZM20.9931 15.0574C21.2875 15.0279 21.6025 15.0039 21.8781 14.8989L21.2663 13.2931C21.2771 13.289 21.2664 13.2955 21.1916 13.3066C21.1114 13.3184 21.0042 13.3293 20.8222 13.3476L20.9931 15.0574ZM20.1239 15.1656C20.0926 15.1822 20.1081 15.1646 20.275 15.1385C20.4353 15.1135 20.654 15.0913 20.9931 15.0574L20.8222 13.3476C20.5031 13.3795 20.2281 13.4066 20.0096 13.4408C19.7978 13.4739 19.5494 13.5254 19.3194 13.6472L20.1239 15.1656ZM19.9842 15.5028C19.9439 15.3715 20.0025 15.23 20.1239 15.1656L19.3194 13.6472C18.4695 14.0976 18.0592 15.0882 18.3417 16.0076L19.9842 15.5028ZM20.5227 16.1944C20.3067 15.9305 20.1677 15.76 20.072 15.6289C19.9723 15.4923 19.9738 15.4689 19.9842 15.5028L18.3417 16.0076C18.4182 16.2564 18.5575 16.4685 18.6839 16.6417C18.8143 16.8205 18.9896 17.0342 19.1927 17.2825L20.5227 16.1944ZM20.51 16.1794L20.51 16.1793L19.2054 17.2976L19.2054 17.2976L20.51 16.1794ZM21.037 16.9333C20.9163 16.6638 20.7103 16.4237 20.5227 16.1945L19.1928 17.2826C19.3088 17.4243 19.3769 17.508 19.4254 17.5732C19.4705 17.634 19.4735 17.6463 19.4688 17.6357L21.037 16.9333ZM20.9464 18.7502C21.2655 18.1939 21.2992 17.5186 21.037 16.9333L19.4688 17.6357C19.5062 17.7193 19.5014 17.8158 19.4559 17.8952L20.9464 18.7502ZM20.3613 19.434C20.5707 19.2246 20.7995 19.0063 20.9464 18.7502L19.4558 17.8953C19.4616 17.8852 19.4574 17.8971 19.4065 17.953C19.3518 18.0131 19.2757 18.0895 19.1462 18.219L20.3613 19.434ZM20.3613 19.434L20.3613 19.434L19.1462 18.219L19.1462 18.219L20.3613 19.434ZM19.4398 20.3555L20.3613 19.434L19.1462 18.219L18.2248 19.1404L19.4398 20.3555ZM18.753 20.9428C19.0103 20.7956 19.2296 20.5657 19.4398 20.3555L18.2248 19.1404C18.0948 19.2704 18.018 19.3469 17.9577 19.4018C17.9015 19.4529 17.8896 19.4571 17.8997 19.4513L18.753 20.9428ZM16.94 21.0332C17.5241 21.2941 18.1977 21.2605 18.753 20.9428L17.8997 19.4513C17.8203 19.4967 17.7241 19.5015 17.6407 19.4642L16.94 21.0332ZM16.1981 20.5171C16.4283 20.7055 16.6693 20.9123 16.94 21.0332L17.6407 19.4642C17.6513 19.469 17.639 19.466 17.578 19.4207C17.5125 19.3721 17.4285 19.3037 17.2862 19.1872L16.1981 20.5171ZM15.5032 19.9763C15.4692 19.9659 15.4927 19.9644 15.6299 20.0644C15.7617 20.1605 15.9329 20.3002 16.1981 20.5171L17.2862 19.1872C17.0367 18.9831 16.822 18.807 16.6423 18.676C16.4681 18.549 16.2549 18.4091 16.0047 18.3328L15.5032 19.9763ZM15.1669 20.1157C15.2312 19.9948 15.3722 19.9364 15.5032 19.9763L16.0047 18.3328C15.0876 18.053 14.1008 18.4618 13.6501 19.3081L15.1669 20.1157ZM15.0578 20.9903C15.092 20.649 15.1143 20.4289 15.1395 20.2677C15.1658 20.0997 15.1836 20.0842 15.1669 20.1157L13.6501 19.3081C13.5271 19.5391 13.4752 19.7889 13.4419 20.0018C13.4075 20.2216 13.3801 20.4983 13.348 20.8193L15.0578 20.9903ZM14.8978 21.8816C15.004 21.6042 15.0282 21.2868 15.0578 20.9903L13.348 20.8193C13.3297 21.0027 13.3187 21.1107 13.3067 21.1916C13.2955 21.267 13.2889 21.2778 13.2931 21.2669L14.8978 21.8816ZM13.553 23.0986C14.1696 22.9305 14.6691 22.4784 14.8978 21.8816L13.2931 21.2669C13.2605 21.3522 13.1891 21.4167 13.101 21.4408L13.553 23.0986ZM12.6506 23.1692C12.9484 23.1692 13.2665 23.1767 13.553 23.0986L13.101 21.4408C13.1122 21.4377 13.1008 21.4432 13.0248 21.4468C12.9432 21.4506 12.8347 21.4508 12.6506 21.4508V23.1692ZM11.3494 23.1692H12.6506V21.4508H11.3494V23.1692ZM10.4489 23.0989C10.7348 23.1767 11.0522 23.1692 11.3494 23.1692V21.4508C11.1656 21.4508 11.0574 21.4506 10.976 21.4468C10.9001 21.4432 10.8887 21.4377 10.8999 21.4408L10.4489 23.0989ZM9.10263 21.8805C9.33121 22.4782 9.83139 22.9309 10.4489 23.0989L10.8999 21.4408C10.8117 21.4168 10.7403 21.3521 10.7076 21.2667L9.10263 21.8805ZM8.94304 20.9912C8.97263 21.2871 8.99677 21.6037 9.10263 21.8805L10.7076 21.2668C10.7118 21.2776 10.7052 21.2668 10.6941 21.1916C10.6821 21.1109 10.6711 21.0032 10.6528 20.8202L8.94304 20.9912ZM8.83424 20.1182C8.81753 20.0868 8.83526 20.1023 8.86151 20.27C8.8867 20.4309 8.90898 20.6506 8.94304 20.9912L10.6528 20.8202C10.6208 20.4998 10.5935 20.2236 10.5592 20.0042C10.5259 19.7916 10.4741 19.5422 10.3515 19.3115L8.83424 20.1182ZM8.49763 19.9788C8.62875 19.9387 8.76988 19.9971 8.83424 20.1182L10.3515 19.3115C9.90091 18.4641 8.91299 18.0549 7.99521 18.3355L8.49763 19.9788ZM7.80383 20.5188C8.06863 20.3021 8.2396 20.1627 8.37112 20.0667C8.50814 19.9668 8.53164 19.9684 8.49763 19.9788L7.99521 18.3355C7.7454 18.4119 7.53252 18.5516 7.35864 18.6784C7.17926 18.8092 6.96481 18.9851 6.71572 19.1889L7.80383 20.5188ZM7.06312 21.0342C7.33339 20.9134 7.57403 20.7068 7.80383 20.5188L6.71572 19.1889C6.57362 19.3051 6.48977 19.3734 6.4244 19.422C6.3635 19.4672 6.35124 19.4702 6.36182 19.4655L7.06312 21.0342ZM5.24871 20.9437C5.80436 21.2619 6.47857 21.2955 7.06312 21.0342L6.36183 19.4655C6.27832 19.5028 6.182 19.498 6.10262 19.4525L5.24871 20.9437ZM4.56298 20.3572C4.77292 20.5671 4.99181 20.7966 5.24871 20.9437L6.10262 19.4525C6.11269 19.4583 6.10079 19.4541 6.04469 19.403C5.98448 19.3483 5.90785 19.2719 5.77803 19.1421L4.56298 20.3572ZM4.59074 20.3837L4.59077 20.3837L5.75025 19.1155L5.75022 19.1155L4.59074 20.3837ZM3.6414 19.4356L4.56296 20.3571L5.778 19.1421L4.85645 18.2205L3.6414 19.4356ZM3.05571 18.751C3.2027 19.0074 3.43178 19.226 3.6414 19.4356L4.85645 18.2205C4.72683 18.0909 4.65063 18.0144 4.59592 17.9543C4.54495 17.8983 4.54073 17.8864 4.54649 17.8964L3.05571 18.751ZM2.96514 16.9351C2.70332 17.5201 2.73698 18.195 3.05571 18.751L4.54649 17.8965C4.50095 17.817 4.49615 17.7206 4.53355 17.637L2.96514 16.9351ZM3.4798 16.1956C3.29208 16.425 3.08588 16.6653 2.96514 16.9351L4.53355 17.637C4.52882 17.6476 4.53184 17.6354 4.57698 17.5746C4.62544 17.5093 4.69364 17.4256 4.80972 17.2837L3.4798 16.1956ZM4.01897 15.5029C4.02938 15.469 4.0309 15.4924 3.93112 15.6292C3.83536 15.7605 3.69611 15.9312 3.4798 16.1956L4.80972 17.2837C5.01319 17.035 5.18878 16.8209 5.3194 16.6418C5.44602 16.4682 5.58549 16.2557 5.6619 16.0064L4.01897 15.5029ZM3.87944 15.1661C4.00066 15.2304 4.05918 15.3717 4.01897 15.5029L5.6619 16.0064C5.94337 15.0879 5.53368 14.0988 4.68517 13.6483L3.87944 15.1661ZM3.008 15.0575C3.34802 15.0915 3.56729 15.1137 3.72793 15.1389C3.89531 15.1651 3.91082 15.1827 3.87944 15.1661L4.68517 13.6483C4.4548 13.526 4.20584 13.4744 3.99354 13.4412C3.77449 13.4069 3.49885 13.3797 3.17898 13.3477L3.008 15.0575ZM2.12034 14.8983C2.39667 15.0039 2.7127 15.028 3.008 15.0575L3.17898 13.3477C2.99638 13.3294 2.88882 13.3184 2.80831 13.3065C2.73329 13.2954 2.72249 13.2889 2.73333 13.2931L2.12034 14.8983ZM0.900809 13.5508C1.06866 14.169 1.52187 14.6698 2.12034 14.8983L2.73333 13.2931C2.64784 13.2604 2.58309 13.1889 2.55911 13.1005L0.900809 13.5508ZM0.830774 12.6519C0.830774 12.9485 0.823309 13.2653 0.900809 13.5508L2.55911 13.1005C2.56215 13.1117 2.55673 13.1003 2.55316 13.0246C2.54933 12.9434 2.54911 12.8353 2.54911 12.6519H0.830774ZM0.830774 11.3502V12.6519H2.54911V11.3502H0.830774ZM0.901421 10.4474C0.823243 10.734 0.830774 11.0522 0.830774 11.3502H2.54911C2.54911 11.1659 2.54933 11.0574 2.55319 10.9758C2.55679 10.8998 2.56226 10.8883 2.5592 10.8996L0.901421 10.4474ZM2.11816 9.10293C1.52149 9.33157 1.06956 9.83095 0.901421 10.4474L2.5592 10.8996C2.58322 10.8115 2.64778 10.7402 2.73302 10.7075L2.11816 9.10293ZM3.0097 8.94277C2.71307 8.97244 2.3956 8.99661 2.11816 9.10293L2.73302 10.7075C2.72213 10.7117 2.73297 10.7051 2.80833 10.6939C2.8892 10.682 2.99725 10.6709 3.18068 10.6526L3.0097 8.94277ZM3.88483 8.83365C3.91632 8.81687 3.90079 8.83467 3.7327 8.86101C3.57139 8.88628 3.35117 8.90863 3.0097 8.94277L3.18068 10.6526C3.50191 10.6205 3.77873 10.5931 3.99868 10.5586C4.21186 10.5252 4.46184 10.4733 4.69299 10.3501L3.88483 8.83365ZM4.02409 8.49744C4.06399 8.62839 4.00564 8.76927 3.88483 8.83365L4.69299 10.3501C5.53865 9.8994 5.94712 8.91326 5.66783 7.99661L4.02409 8.49744ZM3.48279 7.80188C3.69999 8.06735 3.83981 8.23875 3.93594 8.3706C4.03609 8.50797 4.03448 8.53153 4.02409 8.49744L5.66783 7.99661C5.5915 7.7461 5.45154 7.53265 5.32445 7.35832C5.19333 7.17848 5.01702 6.96349 4.8127 6.71377L3.48279 7.80188ZM2.96625 7.05923C3.0872 7.33026 3.29429 7.5715 3.48279 7.80188L4.8127 6.71377C4.69615 6.57131 4.62766 6.48725 4.57902 6.42171C4.5337 6.36065 4.53069 6.34836 4.53543 6.35897L2.96625 7.05923ZM3.05663 5.24719C2.73927 5.80223 2.7057 6.47536 2.96625 7.05923L4.53543 6.35897C4.49821 6.27556 4.503 6.1794 4.54834 6.10011L3.05663 5.24719ZM3.64449 4.55962C3.43402 4.7701 3.20395 4.98954 3.05663 5.24719L4.54834 6.10011C4.54257 6.1102 4.54679 6.09826 4.59795 6.04202C4.65288 5.98164 4.72939 5.90482 4.85954 5.77467L3.64449 4.55962ZM3.6445 4.55962L3.64449 4.55962L4.85954 5.77467L4.85954 5.77466L3.6445 4.55962ZM4.56542 3.63869L3.6445 4.55962L4.85954 5.77466L5.78046 4.85374L4.56542 3.63869ZM5.24993 3.05306C4.99354 3.20004 4.77502 3.4291 4.56542 3.63869L5.78046 4.85374C5.91007 4.72413 5.98657 4.64795 6.04668 4.59324C6.10268 4.54228 6.11456 4.53805 6.10452 4.54381L5.24993 3.05306ZM7.06596 2.96248C6.48094 2.70063 5.80599 2.73429 5.24993 3.05306L6.10452 4.54381C6.18395 4.49828 6.28038 4.49347 6.36395 4.53087L7.06596 2.96248ZM7.80566 3.47736C7.57608 3.28952 7.33572 3.08322 7.06596 2.96248L6.36395 4.53087C6.35335 4.52613 6.36559 4.52914 6.42647 4.57435C6.4918 4.62285 6.57558 4.69112 6.71755 4.80727L7.80566 3.47736ZM7.77711 3.45499L7.7771 3.45498L6.7461 4.82965L6.74611 4.82965L7.77711 3.45499ZM8.49778 4.01617C8.53172 4.02659 8.50828 4.02809 8.37156 3.92833C8.24036 3.83261 8.06979 3.69346 7.80567 3.47736L6.71755 4.80728C6.96603 5.01058 7.17992 5.18598 7.35877 5.31648C7.5321 5.44293 7.74431 5.5823 7.99323 5.65876L8.49778 4.01617ZM8.83491 3.87652C8.77057 3.9979 8.6291 4.0565 8.49778 4.01617L7.99323 5.65876C8.91251 5.94113 9.9028 5.53094 10.3532 4.68125L8.83491 3.87652ZM8.94323 3.00695C8.9093 3.34626 8.8871 3.56504 8.86204 3.72533C8.83592 3.89234 8.81831 3.90784 8.83491 3.87652L10.3532 4.68124C10.4751 4.45121 10.5266 4.20274 10.5597 3.99082C10.5939 3.77219 10.6211 3.49711 10.653 3.17793L8.94323 3.00695ZM9.1018 2.12163C8.99673 2.39733 8.97268 2.71248 8.94323 3.00695L10.653 3.17793C10.6712 2.99584 10.6822 2.88861 10.694 2.80833C10.7051 2.73354 10.7116 2.72277 10.7075 2.73357L9.1018 2.12163ZM10.4511 0.900526C9.83186 1.06821 9.33027 1.52214 9.1018 2.12163L10.7075 2.73357C10.7401 2.64793 10.8118 2.58308 10.9002 2.55913L10.4511 0.900526ZM11.3478 0.830835C11.0519 0.830835 10.7359 0.823406 10.4511 0.900526L10.9002 2.55913C10.8891 2.56215 10.9004 2.55675 10.976 2.5532C11.057 2.54939 11.1648 2.54917 11.3478 2.54917V0.830835ZM12.6522 0.830835H11.3478V2.54917H12.6522V0.830835ZM13.5508 0.900818C13.2654 0.823375 12.9487 0.830835 12.6522 0.830835V2.54917C12.8356 2.54917 12.9436 2.54939 13.0248 2.55322C13.1005 2.55678 13.1119 2.5622 13.1007 2.55917L13.5508 0.900818ZM14.8986 2.12058C14.6701 1.52196 14.1691 1.06864 13.5508 0.900818L13.1007 2.55917C13.189 2.58314 13.2606 2.6479 13.2932 2.73342L14.8986 2.12058ZM15.0576 3.00772C15.0281 2.71263 15.004 2.39682 14.8986 2.12059L13.2932 2.73342C13.2891 2.7226 13.2956 2.73339 13.3067 2.80833C13.3186 2.88878 13.3296 2.99624 13.3478 3.1787L15.0576 3.00772ZM15.2632 12.001C15.2632 13.8041 13.8015 15.2658 11.9983 15.2658V16.9842C14.7505 16.9842 16.9815 14.7531 16.9815 12.001H15.2632ZM11.9983 8.73614C13.8015 8.73614 15.2632 10.1979 15.2632 12.001H16.9815C16.9815 9.24885 14.7505 7.01781 11.9983 7.01781V8.73614ZM8.7335 12.001C8.7335 10.1979 10.1952 8.73614 11.9983 8.73614V7.01781C9.24621 7.01781 7.01517 9.24885 7.01517 12.001H8.7335ZM11.9983 15.2658C10.1952 15.2658 8.7335 13.8041 8.7335 12.001H7.01517C7.01517 14.7531 9.24621 16.9842 11.9983 16.9842V15.2658Z" fill="#5534A5"/>
</svg>
