<svg width="24" height="24" viewBox="0 0 24 24" fill="none" xmlns="http://www.w3.org/2000/svg">
<g clip-path="url(#clip0_552_10050)">
<path d="M16.2958 10.2817H18.0141C19.7324 10.2817 20.5916 9.42251 20.5916 7.70417V5.98584C20.5916 4.26751 19.7324 3.40834 18.0141 3.40834H16.2958C14.5774 3.40834 13.7183 4.26751 13.7183 5.98584V7.70417C13.7183 9.42251 14.5774 10.2817 16.2958 10.2817Z" stroke="#C1C3DA" stroke-width="1.28875" stroke-miterlimit="10" stroke-linecap="round" stroke-linejoin="round"/>
<path d="M5.98583 20.5917H7.70416C9.42249 20.5917 10.2817 19.7325 10.2817 18.0142V16.2958C10.2817 14.5775 9.42249 13.7183 7.70416 13.7183H5.98583C4.26749 13.7183 3.40833 14.5775 3.40833 16.2958V18.0142C3.40833 19.7325 4.26749 20.5917 5.98583 20.5917Z" stroke="#C1C3DA" stroke-width="1.28875" stroke-miterlimit="10" stroke-linecap="round" stroke-linejoin="round"/>
<path d="M6.84499 10.2817C8.74301 10.2817 10.2817 8.74303 10.2817 6.84501C10.2817 4.94699 8.74301 3.40834 6.84499 3.40834C4.94697 3.40834 3.40833 4.94699 3.40833 6.84501C3.40833 8.74303 4.94697 10.2817 6.84499 10.2817Z" stroke="#C1C3DA" stroke-width="1.28875" stroke-miterlimit="10" stroke-linecap="round" stroke-linejoin="round"/>
<path d="M17.1549 20.5917C19.0529 20.5917 20.5916 19.053 20.5916 17.155C20.5916 15.257 19.0529 13.7183 17.1549 13.7183C15.2569 13.7183 13.7183 15.257 13.7183 17.155C13.7183 19.053 15.2569 20.5917 17.1549 20.5917Z" stroke="#C1C3DA" stroke-width="1.28875" stroke-miterlimit="10" stroke-linecap="round" stroke-linejoin="round"/>
</g>
<defs>
<clipPath id="clip0_552_10050">
<rect width="20.62" height="20.62" fill="white" transform="translate(1.68994 1.69)"/>
</clipPath>
</defs>
</svg>
