<svg width="24" height="24" viewBox="0 0 24 24" fill="none" xmlns="http://www.w3.org/2000/svg">
<path d="M15.7227 10.8289L13.1711 8.27718M5.83496 18.1649L7.99392 17.925C8.25769 17.8957 8.38958 17.8811 8.51285 17.8412C8.62222 17.8058 8.7263 17.7557 8.82227 17.6924C8.93044 17.6211 9.02427 17.5273 9.21193 17.3396L17.6365 8.9151C18.3411 8.21048 18.3411 7.06805 17.6365 6.36343C16.9319 5.65881 15.7894 5.6588 15.0848 6.36343L6.66026 14.7879C6.47259 14.9756 6.37876 15.0694 6.30743 15.1776C6.24414 15.2736 6.19412 15.3777 6.15871 15.487C6.11881 15.6103 6.10415 15.7422 6.07484 16.006L5.83496 18.1649Z" stroke="black" stroke-width="1.27584" stroke-linecap="round" stroke-linejoin="round"/>
</svg>