<svg width="21" height="21" viewBox="0 0 21 21" fill="none" xmlns="http://www.w3.org/2000/svg">
<path fill-rule="evenodd" clip-rule="evenodd" d="M13.8045 1.5C14.143 1.5 14.4177 1.7813 14.4177 2.1279L14.4181 2.8377C15.6118 2.9215 16.6033 3.34022 17.305 4.06026C18.071 4.84807 18.4741 5.98081 18.47 7.33959V14.9774C18.47 17.767 16.74 19.5 13.9562 19.5H7.04116C4.25733 19.5 2.52734 17.7427 2.52734 14.9138V7.33792C2.52734 4.70674 4.07015 3.0178 6.58634 2.83798L6.58684 2.1279C6.58684 1.7813 6.86154 1.5 7.20002 1.5C7.53849 1.5 7.8132 1.7813 7.8132 2.1279L7.81295 2.82195H13.1909L13.1914 2.1279C13.1914 1.7813 13.4661 1.5 13.8045 1.5ZM17.2437 8.95448H3.7537V14.9138C3.7537 17.0621 4.9212 18.2442 7.04116 18.2442H13.9562C16.0762 18.2442 17.2437 17.0838 17.2437 14.9774L17.2437 8.95448ZM14.1379 14.2224C14.4763 14.2224 14.751 14.5037 14.751 14.8503C14.751 15.1969 14.4763 15.4782 14.1379 15.4782C13.7994 15.4782 13.5214 15.1969 13.5214 14.8503C13.5214 14.5037 13.792 14.2224 14.1305 14.2224H14.1379ZM10.5099 14.2224C10.8484 14.2224 11.1231 14.5037 11.1231 14.8503C11.1231 15.1969 10.8484 15.4782 10.5099 15.4782C10.1714 15.4782 9.89343 15.1969 9.89343 14.8503C9.89343 14.5037 10.164 14.2224 10.5025 14.2224H10.5099ZM6.8743 14.2224C7.21277 14.2224 7.48748 14.5037 7.48748 14.8503C7.48748 15.1969 7.21277 15.4782 6.8743 15.4782C6.53582 15.4782 6.25703 15.1969 6.25703 14.8503C6.25703 14.5037 6.52846 14.2224 6.86694 14.2224H6.8743ZM14.1379 10.9685C14.4763 10.9685 14.751 11.2498 14.751 11.5964C14.751 11.943 14.4763 12.2243 14.1379 12.2243C13.7994 12.2243 13.5214 11.943 13.5214 11.5964C13.5214 11.2498 13.792 10.9685 14.1305 10.9685H14.1379ZM10.5099 10.9685C10.8484 10.9685 11.1231 11.2498 11.1231 11.5964C11.1231 11.943 10.8484 12.2243 10.5099 12.2243C10.1714 12.2243 9.89343 11.943 9.89343 11.5964C9.89343 11.2498 10.164 10.9685 10.5025 10.9685H10.5099ZM6.8743 10.9685C7.21277 10.9685 7.48748 11.2498 7.48748 11.5964C7.48748 11.943 7.21277 12.2243 6.8743 12.2243C6.53582 12.2243 6.25703 11.943 6.25703 11.5964C6.25703 11.2498 6.52846 10.9685 6.86694 10.9685H6.8743ZM13.1909 4.07776H7.81295L7.8132 4.88315C7.8132 5.22975 7.53849 5.51105 7.20002 5.51105C6.86154 5.51105 6.58684 5.22975 6.58684 4.88315L6.5864 4.09676C4.75485 4.25432 3.7537 5.39121 3.7537 7.33792V7.69867H17.2437L17.2437 7.33792C17.2469 6.30397 16.9755 5.50025 16.4367 4.9477C15.9638 4.46196 15.2724 4.17186 14.4184 4.09716L14.4177 4.88315C14.4177 5.22975 14.143 5.51105 13.8045 5.51105C13.4661 5.51105 13.1914 5.22975 13.1914 4.88315L13.1909 4.07776Z" fill="#696969"/>
</svg>
