<svg width="18" height="18" viewBox="0 0 18 18" fill="none" xmlns="http://www.w3.org/2000/svg">
<path d="M4.30699 1.96094H13.6937C14.4759 1.96094 15.1159 2.60094 15.1159 3.38316V4.9476C15.1159 5.51649 14.7603 6.2276 14.4048 6.58316L11.347 9.28538C10.9203 9.64094 10.6359 10.352 10.6359 10.9209V13.9787C10.6359 14.4054 10.3514 14.9743 9.99588 15.1876L9.00032 15.8276C8.07588 16.3965 6.79588 15.7565 6.79588 14.6187V10.8498C6.79588 10.352 6.51143 9.71205 6.22699 9.35649L3.52477 6.51205C3.16921 6.15649 2.88477 5.51649 2.88477 5.08983V3.45427C2.88477 2.60094 3.52477 1.96094 4.30699 1.96094Z" stroke="#7C7070" stroke-width="1.38667" stroke-miterlimit="10" stroke-linecap="round" stroke-linejoin="round"/>
</svg>