<svg width="18" height="18" viewBox="0 0 18 18" fill="none" xmlns="http://www.w3.org/2000/svg">
<path d="M6.62109 1.6889V3.82224" stroke="#787486" stroke-width="1.38667" stroke-miterlimit="10" stroke-linecap="round" stroke-linejoin="round"/>
<path d="M12.3105 1.6889V3.82224" stroke="#787486" stroke-width="1.38667" stroke-miterlimit="10" stroke-linecap="round" stroke-linejoin="round"/>
<path d="M12.3109 2.75557C14.6789 2.88357 15.8664 3.78668 15.8664 7.1289V11.5236C15.8664 14.4533 15.1553 15.9182 11.5997 15.9182H7.33307C3.77752 15.9182 3.06641 14.4533 3.06641 11.5236V7.1289C3.06641 3.78668 4.25396 2.89068 6.62196 2.75557H12.3109Z" stroke="#787486" stroke-width="1.38667" stroke-miterlimit="10" stroke-linecap="round" stroke-linejoin="round"/>
<path d="M15.6886 12.7822H3.24414" stroke="#787486" stroke-width="1.38667" stroke-miterlimit="10" stroke-linecap="round" stroke-linejoin="round"/>
<path d="M9.46625 6.13333C8.59159 6.13333 7.85203 6.60978 7.85203 7.53422C7.85203 7.97511 8.05825 8.30933 8.37114 8.52266C7.93737 8.77866 7.68848 9.19111 7.68848 9.67466C7.68848 10.5564 8.36403 11.104 9.46625 11.104C10.5614 11.104 11.244 10.5564 11.244 9.67466C11.244 9.19111 10.9951 8.77155 10.5543 8.52266C10.8743 8.30222 11.0734 7.97511 11.0734 7.53422C11.0734 6.60978 10.3409 6.13333 9.46625 6.13333ZM9.46625 8.15289C9.09648 8.15289 8.82625 7.93244 8.82625 7.584C8.82625 7.22844 9.09648 7.02222 9.46625 7.02222C9.83603 7.02222 10.1063 7.22844 10.1063 7.584C10.1063 7.93244 9.83603 8.15289 9.46625 8.15289ZM9.46625 10.2222C8.99692 10.2222 8.65559 9.98755 8.65559 9.56089C8.65559 9.13422 8.99692 8.90666 9.46625 8.90666C9.93559 8.90666 10.2769 9.14133 10.2769 9.56089C10.2769 9.98755 9.93559 10.2222 9.46625 10.2222Z" fill="#787486"/>
</svg>
