<svg width="14" height="14" viewBox="0 0 14 14" fill="none" xmlns="http://www.w3.org/2000/svg">
<path d="M11.2912 7.28598V4.02468C11.2912 3.06336 11.2912 2.58271 11.1041 2.21553C10.9396 1.89256 10.677 1.62997 10.354 1.4654C9.98682 1.27832 9.50617 1.27832 8.54486 1.27832H4.88306C3.92175 1.27832 3.4411 1.27832 3.07393 1.4654C2.75095 1.62997 2.48837 1.89256 2.3238 2.21553C2.13672 2.58271 2.13672 3.06336 2.13672 4.02468V9.97513C2.13672 10.9364 2.13672 11.4171 2.3238 11.7843C2.48837 12.1072 2.75095 12.3698 3.07393 12.5344C3.4411 12.7215 3.92175 12.7215 4.88306 12.7215H6.71396M7.85827 6.42774H4.42534M5.56965 8.71638H4.42534M9.00258 4.13911H4.42534M8.14435 11.005L9.28866 12.1493L11.8634 9.57462" stroke="white" stroke-width="1.14431" stroke-linecap="round" stroke-linejoin="round"/>
</svg>