<svg width="24" height="24" viewBox="0 0 24 24" fill="none" xmlns="http://www.w3.org/2000/svg">
<path fill-rule="evenodd" clip-rule="evenodd" d="M11.0355 1.95987C13.4914 1.95987 15.4894 3.95786 15.4894 6.41367V7.34941C15.4894 7.76508 15.1521 8.10242 14.7364 8.10242C14.3207 8.10242 13.9834 7.76508 13.9834 7.34941V6.41367C13.9834 4.78717 12.661 3.46589 11.0355 3.46589H6.14084C4.51731 3.46589 3.196 4.78717 3.196 6.41367V17.5873C3.196 19.2128 4.51731 20.5341 6.14084 20.5341H11.0466C12.6651 20.5341 13.9834 19.2169 13.9834 17.5984V16.6516C13.9834 16.2359 14.3207 15.8986 14.7364 15.8986C15.1521 15.8986 15.4894 16.2359 15.4894 16.6516V17.5984C15.4894 20.0482 13.4954 22.0401 11.0466 22.0401H6.14084C3.68697 22.0401 1.68994 20.0432 1.68994 17.5873V6.41367C1.68994 3.95786 3.68697 1.95987 6.14084 1.95987H11.0355ZM19.1482 8.54017L22.0881 11.4669C22.1143 11.4929 22.1378 11.52 22.1593 11.5486L22.0881 11.4669C22.1236 11.5019 22.1553 11.5403 22.1827 11.5811C22.1948 11.5997 22.2064 11.6188 22.2172 11.6385C22.226 11.6539 22.2341 11.6699 22.2415 11.6862C22.2479 11.7006 22.254 11.715 22.2596 11.7297C22.2672 11.7488 22.2738 11.7684 22.2796 11.7883C22.284 11.8039 22.288 11.8195 22.2916 11.8353C22.296 11.8545 22.2996 11.8738 22.3024 11.8933C22.3039 11.9059 22.3055 11.9191 22.3067 11.9325C22.309 11.9554 22.3099 11.9777 22.3099 12L22.3048 12.0623L22.3028 12.1021C22.3025 12.1038 22.3023 12.1055 22.3021 12.1072L22.3099 12C22.3099 12.0557 22.3038 12.1109 22.2918 12.1646C22.288 12.1805 22.284 12.1961 22.2795 12.2115C22.2738 12.2316 22.2672 12.2512 22.2598 12.2705C22.254 12.285 22.2479 12.2994 22.2414 12.3136C22.2341 12.3301 22.226 12.3462 22.2174 12.3619C22.2064 12.3812 22.1948 12.4004 22.1823 12.4189C22.1753 12.4299 22.1676 12.4408 22.1595 12.4515C22.1356 12.4829 22.1096 12.5125 22.0814 12.5399L19.1482 15.4608C19.0016 15.6074 18.8089 15.6807 18.6171 15.6807C18.4243 15.6807 18.2305 15.6074 18.084 15.4588C17.7908 15.1637 17.7918 14.6877 18.086 14.3946L19.7325 12.753H9.46701C9.05134 12.753 8.71398 12.4157 8.71398 12C8.71398 11.5843 9.05134 11.247 9.46701 11.247H19.7345L18.086 9.60644C17.7918 9.31326 17.7898 8.83736 18.084 8.54218C18.3771 8.247 18.853 8.247 19.1482 8.54017Z" fill="#5534A5"/>
</svg>
