<svg width="24" height="24" viewBox="0 0 24 24" fill="none" xmlns="http://www.w3.org/2000/svg">
<path d="M3.11133 7.55534L10.369 12.6357C10.9567 13.0471 11.2506 13.2528 11.5702 13.3325C11.8526 13.4029 12.1479 13.4029 12.4302 13.3325C12.7498 13.2528 13.0437 13.0471 13.6314 12.6357L20.8891 7.55534M7.378 19.1109H16.6224C18.1159 19.1109 18.8627 19.1109 19.4331 18.8202C19.9348 18.5646 20.3428 18.1566 20.5985 17.6549C20.8891 17.0844 20.8891 16.3377 20.8891 14.8442V9.15534C20.8891 7.66187 20.8891 6.91513 20.5985 6.3447C20.3428 5.84293 19.9348 5.43498 19.4331 5.17932C18.8627 4.88867 18.1159 4.88867 16.6224 4.88867H7.378C5.88452 4.88867 5.13779 4.88867 4.56735 5.17932C4.06559 5.43498 3.65764 5.84293 3.40198 6.3447C3.11133 6.91513 3.11133 7.66187 3.11133 9.15534V14.8442C3.11133 16.3377 3.11133 17.0844 3.40198 17.6549C3.65764 18.1566 4.06559 18.5646 4.56735 18.8202C5.13779 19.1109 5.88452 19.1109 7.378 19.1109Z" stroke="#667085" stroke-width="1.77778" stroke-linecap="round" stroke-linejoin="round"/>
</svg>
