<svg width="24" height="24" viewBox="0 0 24 24" fill="none" xmlns="http://www.w3.org/2000/svg">
<path fill-rule="evenodd" clip-rule="evenodd" d="M6.28624 1.8846C7.38864 1.8994 8.17423 2.72543 9.16807 3.77055C9.41382 4.02813 9.6793 4.3094 9.97637 4.60546C11.4163 6.04633 11.0067 7.22172 10.6761 8.16519C10.3169 9.19452 10.006 10.0827 11.8673 11.944C13.7287 13.8053 14.6159 13.4944 15.6443 13.1322C16.5888 12.8026 17.7613 12.3901 19.2042 13.831C19.4973 14.1241 19.7736 14.3866 20.0302 14.6303C21.0793 15.6291 21.9084 16.4176 21.9223 17.5229C21.933 18.4644 21.3606 19.4257 19.9473 20.8389L19.3216 20.4145L19.8516 20.9307C19.5387 21.2514 18.7067 22.1061 17.0773 22.1159H17.0477C14.5883 22.1159 11.3818 20.1579 7.51694 16.2942C3.63633 12.4148 1.6753 9.19847 1.69002 6.7342C1.69899 5.10582 2.55268 4.27189 2.87344 3.95905L2.90081 3.92915L2.96719 3.86233C4.38344 2.44614 5.35655 1.86387 6.28624 1.8846ZM6.26749 3.36494H6.25959C5.8164 3.36494 5.14334 3.80904 4.20463 4.72083L4.01613 4.90593L4.01827 4.90548C4.01827 4.90548 4.00217 4.92396 3.97471 4.95195L3.90872 5.01799C3.66989 5.24991 3.17544 5.7325 3.17045 6.74209C3.16261 8.15434 4.09131 10.7765 8.56309 15.2471C13.0132 19.6961 15.6315 20.6356 17.0477 20.6356H17.0684C18.0781 20.6297 18.5597 20.1352 18.7916 19.8974C18.8617 19.8253 18.9189 19.7711 18.9594 19.7385C19.9434 18.7486 20.4467 18.0134 20.4418 17.5407C20.4358 17.0591 19.8368 16.4906 19.0088 15.7021C18.7452 15.4524 18.459 15.1791 18.157 14.8771C17.3734 14.0964 16.9875 14.2297 16.1338 14.5297C14.9544 14.9432 13.3388 15.5097 10.8212 12.9901C8.30254 10.4726 8.86706 8.85701 9.27861 7.67668C9.57666 6.824 9.71286 6.43615 8.93022 5.65256C8.62428 5.34662 8.34892 5.05648 8.09528 4.79001C7.31166 3.96694 6.74615 3.37185 6.26749 3.36494ZM14.7631 5.39547C16.8169 5.79418 18.4029 7.37913 18.8026 9.43385C18.8805 9.8365 18.619 10.2243 18.2183 10.3023C18.17 10.3112 18.1226 10.3161 18.0752 10.3161C17.7278 10.3161 17.4189 10.0714 17.3498 9.71807C17.0656 8.25747 15.9395 7.13142 14.4808 6.84818C14.0791 6.77022 13.8176 6.38237 13.8956 5.9807C13.9735 5.57904 14.3683 5.31652 14.7631 5.39547ZM14.704 1.89022C18.7287 2.33729 21.8543 5.45883 22.3053 9.4824C22.3507 9.889 22.0586 10.2551 21.6529 10.3005C21.6253 10.3035 21.5967 10.3055 21.569 10.3055C21.197 10.3055 20.8772 10.0262 20.8348 9.6482C20.4607 6.31644 17.873 3.73078 14.5401 3.36069C14.1345 3.3153 13.8414 2.95015 13.8868 2.54355C13.9312 2.13793 14.2934 1.8389 14.704 1.89022Z" fill="#B8BBD5"/>
</svg>
