<svg width="24" height="24" viewBox="0 0 24 24" fill="none" xmlns="http://www.w3.org/2000/svg">
<path d="M15.0273 3.48453C17.5961 4.39245 19.6296 6.43341 20.5273 9.00692M11.0273 3.02734C6.52739 3.52479 3.02734 7.33986 3.02734 11.9724C3.02734 13.7435 3.53891 15.3951 4.42233 16.7874L3.02734 20.9724L7.21231 19.5774C8.60471 20.4609 10.2563 20.9724 12.0273 20.9724C16.6599 20.9724 20.475 17.4724 20.9724 12.9724" stroke="#667085" stroke-width="1.72" stroke-linecap="round" stroke-linejoin="round"/>
<path d="M12.0273 16.9727C9.26592 16.9727 7.02734 14.7341 7.02734 11.9727M9.02686 7.97266C9.8626 7.34475 10.9015 6.97266 12.0273 6.97266C14.7888 6.97266 17.0273 9.21123 17.0273 11.9727C17.0273 13.0985 16.6553 14.1374 16.0273 14.9731" stroke="#667085" stroke-width="1.72" stroke-linecap="round" stroke-linejoin="round"/>
<circle cx="12.0273" cy="11.9727" r="1" stroke="#667085" stroke-width="1.72" stroke-linecap="round" stroke-linejoin="round"/>
</svg>
