<svg width="12" height="12" viewBox="0 0 12 12" fill="none" xmlns="http://www.w3.org/2000/svg">
<path d="M1.88405 7.62706C1.56858 7.62706 1.29839 7.51607 1.07347 7.29407C0.851475 7.07207 0.741937 6.80334 0.744858 6.48787C0.741937 6.17824 0.851475 5.91389 1.07347 5.69481C1.29839 5.47282 1.56858 5.36182 1.88405 5.36182C2.182 5.36182 2.44489 5.47282 2.67273 5.69481C2.90349 5.91389 3.02033 6.17824 3.02325 6.48787C3.02033 6.69818 2.96483 6.88951 2.85675 7.06185C2.75159 7.23419 2.61285 7.37148 2.44051 7.47371C2.27109 7.57595 2.0856 7.62706 1.88405 7.62706ZM6.00053 7.62706C5.68506 7.62706 5.41487 7.51607 5.18995 7.29407C4.96796 7.07207 4.85842 6.80334 4.86134 6.48787C4.85842 6.17824 4.96796 5.91389 5.18995 5.69481C5.41487 5.47282 5.68506 5.36182 6.00053 5.36182C6.29848 5.36182 6.56137 5.47282 6.78921 5.69481C7.01997 5.91389 7.13681 6.17824 7.13973 6.48787C7.13681 6.69818 7.08131 6.88951 6.97323 7.06185C6.86807 7.23419 6.72933 7.37148 6.55699 7.47371C6.38757 7.57595 6.20208 7.62706 6.00053 7.62706ZM10.117 7.62706C9.80155 7.62706 9.53135 7.51607 9.30643 7.29407C9.08444 7.07207 8.9749 6.80334 8.97782 6.48787C8.9749 6.17824 9.08444 5.91389 9.30643 5.69481C9.53135 5.47282 9.80155 5.36182 10.117 5.36182C10.415 5.36182 10.6778 5.47282 10.9057 5.69481C11.1364 5.91389 11.2533 6.17824 11.2562 6.48787C11.2533 6.69818 11.1978 6.88951 11.0897 7.06185C10.9846 7.23419 10.8458 7.37148 10.6735 7.47371C10.504 7.57595 10.3186 7.62706 10.117 7.62706Z" fill="#0D062D"/>
</svg>
