<svg width="25" height="25" viewBox="0 0 25 25" fill="none" xmlns="http://www.w3.org/2000/svg">
<path fill-rule="evenodd" clip-rule="evenodd" d="M3.95342 13.957V13.7495C3.98386 13.1356 4.1806 12.5408 4.52337 12.0265C5.0939 11.4085 5.48446 10.6514 5.65407 9.8343C5.65407 9.20281 5.65407 8.56231 5.70923 7.93082C5.9942 4.89067 9.00022 2.78873 11.9695 2.78873H12.043C15.0123 2.78873 18.0183 4.89067 18.3124 7.93082C18.3676 8.56231 18.3124 9.20281 18.3584 9.8343C18.5303 10.6532 18.9205 11.4128 19.4891 12.0355C19.8344 12.5453 20.0315 13.1379 20.0591 13.7495V13.948C20.0796 14.7727 19.7955 15.5769 19.2593 16.2123C18.5507 16.9552 17.5891 17.4174 16.5566 17.5114C13.529 17.8361 10.4743 17.8361 7.44665 17.5114C6.41532 17.4133 5.45514 16.9518 4.74399 16.2123C4.21604 15.5764 3.93581 14.777 3.95342 13.957Z" stroke="#8E92BC" stroke-width="1.42125" stroke-linecap="round" stroke-linejoin="round"/>
<path d="M9.68994 20.6507C10.163 21.2445 10.8577 21.6288 11.6203 21.7185C12.3828 21.8083 13.1504 21.5961 13.7531 21.1289C13.9385 20.9907 14.1053 20.83 14.2495 20.6507" stroke="#8E92BC" stroke-width="1.42125" stroke-linecap="round" stroke-linejoin="round"/>
</svg>
