<svg width="22" height="21" viewBox="0 0 22 21" fill="none" xmlns="http://www.w3.org/2000/svg">
<path fill-rule="evenodd" clip-rule="evenodd" d="M8.46366 12.4241C11.2383 12.4241 14.9273 12.744 14.9273 15.512C14.9273 18.4277 10.6288 18.6026 8.78498 18.6131L8.11554 18.6131C6.14956 18.6027 2 18.4287 2 15.5294C2 12.6104 6.29852 12.4352 8.14235 12.4247L8.36388 12.4241C8.3984 12.4241 8.43169 12.4241 8.46366 12.4241ZM8.46366 13.7317C6.09768 13.7317 3.27707 14.043 3.27707 15.5294C3.27707 16.7081 5.02239 17.3061 8.46366 17.3061C11.9049 17.3061 13.6503 16.702 13.6503 15.512C13.6503 14.3307 11.9049 13.7317 8.46366 13.7317ZM16.2237 12.0168C18.5275 12.3699 19.0103 13.4623 19.0103 14.3158C19.0103 14.9513 18.7421 15.8118 17.4625 16.3078C17.3884 16.3366 17.3118 16.3505 17.236 16.3505C16.978 16.3505 16.7354 16.1893 16.6392 15.9286C16.514 15.5912 16.6801 15.2128 17.0095 15.0856C17.7332 14.8048 17.7332 14.4622 17.7332 14.3158C17.7332 13.8215 17.1619 13.4832 16.0356 13.3115C15.6865 13.2574 15.4456 12.9244 15.4975 12.5678C15.5503 12.2104 15.8815 11.9706 16.2237 12.0168ZM8.46366 2C10.8739 2 12.8355 4.00862 12.8355 6.47667C12.8406 7.6658 12.3902 8.78867 11.5695 9.63431C10.7505 10.4808 9.65644 10.949 8.49261 10.9533H8.46366C6.05256 10.9533 4.09098 8.94472 4.09098 6.47667C4.09098 4.00862 6.05256 2 8.46366 2ZM14.4979 2.97972C16.1709 3.26044 17.3849 4.72593 17.3849 6.46342C17.3815 8.21137 16.107 9.7126 14.4196 9.95496C14.3898 9.95932 14.36 9.96106 14.3302 9.96106C14.0169 9.96106 13.7436 9.7248 13.6984 9.39788C13.6499 9.04044 13.8926 8.70916 14.2416 8.65947C15.3041 8.5069 16.1061 7.56275 16.1078 6.46255C16.1078 5.36931 15.3433 4.44695 14.2919 4.27085C13.9436 4.21157 13.7078 3.87593 13.7649 3.51936C13.8219 3.1628 14.1514 2.92306 14.4979 2.97972ZM8.46366 3.30769C6.75665 3.30769 5.36805 4.72959 5.36805 6.47667C5.36805 8.22375 6.75665 9.64564 8.46366 9.64564H8.49006C9.31078 9.64216 10.0838 9.31175 10.6636 8.71282C11.2443 8.11564 11.5618 7.32144 11.5585 6.47928C11.5585 4.72959 10.1698 3.30769 8.46366 3.30769Z" fill="#696969"/>
</svg>
