<svg width="24" height="24" viewBox="0 0 24 24" fill="none" xmlns="http://www.w3.org/2000/svg">
<path d="M13.8785 6.52309C14.7584 6.69475 15.567 7.12505 16.2008 7.75892C16.8347 8.39279 17.265 9.20139 17.4367 10.0812M13.8785 2.91992C15.7065 3.12299 17.4111 3.94158 18.7124 5.24127C20.0137 6.54096 20.8344 8.24452 21.0398 10.0722M10.4348 13.6061C9.3524 12.5237 8.49774 11.2999 7.87079 9.99405C7.81686 9.88173 7.7899 9.82557 7.76918 9.75451C7.69557 9.50197 7.74844 9.19186 7.90159 8.97799C7.94468 8.9178 7.99617 8.86632 8.09914 8.76335C8.41406 8.44842 8.57152 8.29096 8.67447 8.13262C9.06271 7.5355 9.06271 6.7657 8.67447 6.16857C8.57152 6.01023 8.41406 5.85277 8.09914 5.53785L7.9236 5.36231C7.44488 4.88359 7.20552 4.64423 6.94845 4.5142C6.4372 4.25561 5.83343 4.25561 5.32217 4.51421C5.06511 4.64423 4.82575 4.88359 4.34703 5.36231L4.20503 5.5043C3.72795 5.98139 3.48941 6.21993 3.30723 6.54424C3.10507 6.90411 2.95972 7.46305 2.96095 7.87581C2.96205 8.24779 3.03421 8.50201 3.17852 9.01046C3.95408 11.7429 5.41739 14.3213 7.56847 16.4724C9.71954 18.6235 12.2979 20.0868 15.0304 20.8623C15.5388 21.0066 15.7931 21.0788 16.1651 21.0799C16.5778 21.0811 17.1367 20.9358 17.4966 20.7336C17.8209 20.5514 18.0595 20.3129 18.5366 19.8358L18.6786 19.6938C19.1573 19.2151 19.3966 18.9758 19.5267 18.7187C19.7852 18.2074 19.7852 17.6037 19.5267 17.0924C19.3966 16.8353 19.1573 16.596 18.6786 16.1173L18.503 15.9417C18.1881 15.6268 18.0306 15.4693 17.8723 15.3664C17.2752 14.9781 16.5054 14.9781 15.9082 15.3664C15.7499 15.4693 15.5924 15.6268 15.2775 15.9417C15.1745 16.0447 15.1231 16.0962 15.0629 16.1393C14.849 16.2924 14.5389 16.3453 14.2864 16.2717C14.2153 16.251 14.1591 16.224 14.0468 16.1701C12.741 15.5431 11.5171 14.6885 10.4348 13.6061Z" stroke="#667085" stroke-width="1.75" stroke-linecap="round" stroke-linejoin="round"/>
</svg>
