<svg width="24" height="24" viewBox="0 0 24 24" fill="none" xmlns="http://www.w3.org/2000/svg">
<path fill-rule="evenodd" clip-rule="evenodd" d="M11.1836 2.36096C16.2376 2.36096 20.3486 6.3819 20.3486 11.3252C20.3486 13.6575 19.4335 15.7846 17.9361 17.381L20.8826 20.257C21.1584 20.5267 21.1593 20.963 20.8835 21.2328C20.7461 21.369 20.5645 21.4362 20.3838 21.4362C20.204 21.4362 20.0233 21.369 19.885 21.2346L16.9029 18.326C15.3341 19.5547 13.3451 20.2904 11.1836 20.2904C6.12951 20.2904 2.01758 16.2685 2.01758 11.3252C2.01758 6.3819 6.12951 2.36096 11.1836 2.36096ZM11.1836 3.74178C6.90785 3.74178 3.42932 7.14319 3.42932 11.3252C3.42932 15.5072 6.90785 18.9096 11.1836 18.9096C15.4583 18.9096 18.9368 15.5072 18.9368 11.3252C18.9368 7.14319 15.4583 3.74178 11.1836 3.74178Z" fill="#696969"/>
</svg>
