<svg width="24" height="24" viewBox="0 0 24 24" fill="none" xmlns="http://www.w3.org/2000/svg">
<path d="M16.2963 10.2825H18.0146C19.7329 10.2825 20.5921 9.42335 20.5921 7.70501V5.98668C20.5921 4.26835 19.7329 3.40918 18.0146 3.40918H16.2963C14.5779 3.40918 13.7188 4.26835 13.7188 5.98668V7.70501C13.7188 9.42335 14.5779 10.2825 16.2963 10.2825Z" stroke="#667085" stroke-width="1.72" stroke-miterlimit="10" stroke-linecap="round" stroke-linejoin="round"/>
<path d="M5.98668 20.5921H7.70501C9.42335 20.5921 10.2825 19.7329 10.2825 18.0146V16.2963C10.2825 14.5779 9.42335 13.7188 7.70501 13.7188H5.98668C4.26835 13.7188 3.40918 14.5779 3.40918 16.2963V18.0146C3.40918 19.7329 4.26835 20.5921 5.98668 20.5921Z" stroke="#667085" stroke-width="1.72" stroke-miterlimit="10" stroke-linecap="round" stroke-linejoin="round"/>
<path d="M6.84585 10.2825C8.74387 10.2825 10.2825 8.74387 10.2825 6.84585C10.2825 4.94783 8.74387 3.40918 6.84585 3.40918C4.94783 3.40918 3.40918 4.94783 3.40918 6.84585C3.40918 8.74387 4.94783 10.2825 6.84585 10.2825Z" stroke="#667085" stroke-width="1.72" stroke-miterlimit="10" stroke-linecap="round" stroke-linejoin="round"/>
<path d="M17.1554 20.5921C19.0534 20.5921 20.5921 19.0534 20.5921 17.1554C20.5921 15.2574 19.0534 13.7188 17.1554 13.7188C15.2574 13.7188 13.7188 15.2574 13.7188 17.1554C13.7188 19.0534 15.2574 20.5921 17.1554 20.5921Z" stroke="#667085" stroke-width="1.72" stroke-miterlimit="10" stroke-linecap="round" stroke-linejoin="round"/>
</svg>
