<svg width="406" height="406" viewBox="0 0 406 406" fill="none" xmlns="http://www.w3.org/2000/svg">
<path d="M108.817 26.4006L150.516 2.04461C154.13 -0.352523 158.997 -0.836233 163.29 1.64179L339.883 103.6C343.832 105.879 347.111 109.158 349.391 113.107C351.671 117.056 352.871 121.535 352.871 126.095V365.096C352.871 372.592 350.259 377.759 346.192 379.763L346.199 379.773L304.075 404.577C300.907 406.612 296.687 406.538 292.054 403.862L119.918 304.478C110.08 298.797 102.104 283.56 102.104 270.439V37.2484C102.104 32.301 104.945 28.3394 108.817 26.4006Z" fill="#767676"/>
<path d="M119.919 304.478L292.054 403.862C301.895 409.543 309.868 403.511 309.868 390.393V190.294L102.105 70.3418V270.442C102.105 283.56 110.08 298.8 119.919 304.478Z" fill="#AAAAAA"/>
<path d="M108.817 26.4006L150.516 2.04461C154.13 -0.352523 158.997 -0.836233 163.29 1.64179L339.883 103.6C343.832 105.879 347.111 109.158 349.391 113.107C351.671 117.056 352.871 121.535 352.871 126.095V165.186L309.868 190.294L102.104 70.342V37.2484C102.104 32.301 104.945 28.3394 108.817 26.4006Z" fill="#AC392D"/>
<path d="M57.9031 291.016L230.039 390.4C245.502 399.327 262.361 410.19 273.747 391.921L284.923 371.248C301.292 341.23 309.87 307.585 309.871 273.394V190.294L102.105 70.3418V153.442C102.104 187.634 93.5265 221.278 77.1563 251.296L75.6505 254.081C70.3883 263.816 63.6941 272.66 56.2482 280.85C52.9018 284.527 52.162 287.701 57.9023 291.016H57.9031Z" fill="#E3E3E3"/>
<path d="M309.868 151.204V190.294L102.105 70.3424V37.2487C102.105 27.9187 112.205 22.0864 120.287 26.7506L296.883 128.709C300.831 130.989 304.11 134.268 306.389 138.216C308.668 142.165 309.868 146.644 309.868 151.204Z" fill="#E84C3D"/>
<path d="M212.49 228.604C216.102 235.424 214.778 244.469 209.903 253.481C205.101 262.359 196.52 271.34 185.755 278.027C174.906 284.868 163.592 288.165 154.26 288.08L153.961 288.079C144.772 287.996 136.969 284.525 133.739 277.558C131.924 274.581 134.673 269.5 139.831 266.297C144.612 263.23 150.097 263.279 151.686 266.404C153.477 270.247 157.528 272.115 162.87 272.164C167.907 272.209 174.076 270.433 179.99 266.66C185.825 263.037 190.568 258.125 193.161 253.332C195.903 248.264 196.558 243.462 194.543 239.758C192.743 235.927 188.62 234.183 183.44 234.138C178.4 234.092 172.143 235.741 166.239 239.501C161.302 242.568 155.968 242.521 154.383 239.395C154.091 238.828 154.028 238.124 153.735 237.556C153.89 237.27 153.964 237.133 153.818 237.131C153.974 236.843 153.973 236.568 153.908 236.418C154.138 235.993 154.137 235.717 154.291 235.431C154.366 235.294 154.221 235.29 154.295 235.153C154.609 234.295 155.045 233.489 155.591 232.756L179.771 196.32C181.508 193.927 183.909 191.964 186.522 190.721C186.894 190.587 187.037 190.588 187.269 190.441C187.487 190.304 187.639 190.306 187.864 190.17C189.351 189.618 190.694 189.342 192.173 189.354L235.893 189.751C240.635 189.794 242.435 193.347 239.997 197.855C237.709 202.085 232.025 205.711 227.283 205.668L190.828 205.339L181.503 219.268C185.22 218.447 188.858 218.056 192.124 218.085C201.457 218.166 209.111 221.636 212.49 228.604Z" fill="#767676"/>
<path d="M250.117 132.978C250.117 137.91 253.115 143.64 256.813 145.774C260.515 147.911 263.514 145.644 263.514 140.712C263.514 135.778 260.515 130.048 256.813 127.914C253.115 125.776 250.117 128.047 250.117 132.978ZM139.581 69.1502C139.581 74.0817 142.58 79.8117 146.278 81.9487C149.98 84.0834 152.978 81.8163 152.978 76.8848C152.978 71.9502 149.98 66.2234 146.278 64.0864C142.58 61.9517 139.581 64.2188 139.581 69.1502Z" fill="#E3E3E3"/>
</svg>
