<svg width="426" height="493" viewBox="0 0 426 493" fill="none" xmlns="http://www.w3.org/2000/svg">
<path d="M0 442.398H145.6C154.561 471.519 181.44 492.796 212.799 492.796C244.158 492.796 271.037 471.515 279.998 442.398H425.598L425.039 361.757L412.156 358.397C371.836 348.319 368.476 246.957 368.476 216.157C368.476 119.837 310.796 79.5174 267.116 63.2774C267.675 60.4766 267.675 57.6758 267.675 54.879C267.675 24.641 243.034 0 212.796 0C182.558 0 157.917 24.641 157.917 54.879C157.917 57.6798 157.917 60.4806 158.476 63.2774C114.796 80.0784 57.1156 119.836 57.1156 216.157C57.1156 246.958 53.7562 348.317 13.4356 358.397L0.556595 361.757L0 442.398ZM212.8 459.199C202.159 459.199 192.081 454.718 185.359 446.879H240.238C233.519 454.719 223.441 459.199 212.8 459.199V459.199ZM34.16 386.398C71.68 367.918 90.16 310.796 90.16 216.718C90.16 133.839 141.121 102.478 183.68 90.7178L204.399 85.1162L193.758 66.6362C192.078 63.2768 190.957 59.9174 190.957 55.9952C190.957 44.2332 200.477 34.7142 212.238 34.7142C224 34.7142 233.519 44.2337 233.519 55.9952C233.519 59.9171 232.398 63.2764 230.718 66.6362L220.077 85.1162L240.796 90.7178C283.355 102.48 334.316 134.398 334.316 216.718C334.316 310.796 353.355 367.918 390.316 386.398V408.796H34.1564L34.16 386.398Z" fill="black"/>
</svg>
